<?xml version="1.0" encoding="UTF-8" standalone="no"?>
<svg
   version="1.1"
   width="512"
   height="512"
   id="svg364"
   sodipodi:docname="casamentos.pt.svg"
   inkscape:version="1.2.2 (732a01da63, 2022-12-09)"
   xmlns:inkscape="http://www.inkscape.org/namespaces/inkscape"
   xmlns:sodipodi="http://sodipodi.sourceforge.net/DTD/sodipodi-0.dtd"
   xmlns="http://www.w3.org/2000/svg"
   xmlns:svg="http://www.w3.org/2000/svg">
  <defs
     id="defs368" />
  <sodipodi:namedview
     id="namedview366"
     pagecolor="#ffffff"
     bordercolor="#000000"
     borderopacity="0.25"
     inkscape:showpageshadow="2"
     inkscape:pageopacity="0.0"
     inkscape:pagecheckerboard="0"
     inkscape:deskcolor="#d1d1d1"
     showgrid="false"
     inkscape:zoom="1.1103786"
     inkscape:cx="226.49932"
     inkscape:cy="197.68032"
     inkscape:window-width="1920"
     inkscape:window-height="991"
     inkscape:window-x="-9"
     inkscape:window-y="-9"
     inkscape:window-maximized="1"
     inkscape:current-layer="svg364" />
  <path
     d="M0 0 C1.54508708 -0.00462262 3.09016974 -0.01098457 4.63524342 -0.01890898 C8.83251534 -0.03543887 13.0294184 -0.02743145 17.22669077 -0.0149641 C21.77211271 -0.00584815 26.3174748 -0.01991552 30.86288452 -0.03088379 C39.74819744 -0.04860427 48.63337465 -0.04485801 57.51869273 -0.03323323 C64.74453892 -0.02417359 71.97034726 -0.02298581 79.19619751 -0.02732849 C80.22739521 -0.02794142 81.25859291 -0.02855436 82.32103902 -0.02918586 C84.41636079 -0.03046485 86.51168254 -0.03176171 88.60700428 -0.03307623 C108.22219813 -0.04446307 127.83731701 -0.03139813 147.45249856 -0.00987476 C164.25735101 0.00799448 181.0620929 0.00488984 197.86694336 -0.0135498 C217.41534461 -0.03499007 236.96368027 -0.04336461 256.51209164 -0.03110075 C258.59940019 -0.02982665 260.68670876 -0.02856916 262.77401733 -0.02732849 C264.3142264 -0.02640284 264.3142264 -0.02640284 265.8855508 -0.02545848 C273.09678183 -0.02201505 280.30797101 -0.02781216 287.51919556 -0.0372467 C296.3157828 -0.0485032 305.1122274 -0.04535023 313.90879846 -0.02412373 C318.39086135 -0.01366225 322.87268702 -0.00940707 327.35474777 -0.02272034 C331.46798486 -0.03475265 335.58076773 -0.02790597 339.69396436 -0.00681013 C341.17154923 -0.00238946 342.64917353 -0.0045064 344.12673247 -0.01431328 C357.33566133 -0.09516949 370.53679451 1.89234606 382.29760742 8.25793457 C382.95438477 8.6008252 383.61116211 8.94371582 384.2878418 9.29699707 C403.12824178 19.38941075 417.31102066 35.13943652 424.00590086 55.6326046 C426.72394144 65.01736251 427.55694648 73.80028553 427.49304199 83.56115723 C427.49766312 85.12259309 427.50402409 86.68402458 427.51195097 88.24544716 C427.52850131 92.49251367 427.52046386 96.73921624 427.5080061 100.9862833 C427.49889873 105.58351043 427.51295333 110.18067804 427.52392578 114.77789307 C427.54165528 123.76661355 427.53789594 132.75519997 427.52627522 141.74392557 C427.51721917 149.05323284 427.51602627 156.36250269 427.52037048 163.67181396 C427.52098342 164.71453732 427.52159635 165.75726068 427.52222785 166.83158171 C427.52350683 168.95025874 427.52480369 171.06893576 427.52611822 173.18761277 C427.5375077 193.02595749 427.52443595 212.8642281 427.50291675 232.70256066 C427.48504727 249.70217551 427.48815184 266.70168107 427.5065918 283.70129395 C427.52802737 303.47161595 427.53640922 323.24187312 427.52414274 343.01220512 C427.52286863 345.1228218 427.52161114 347.23343848 427.52037048 349.34405518 C427.51975338 350.38235336 427.51913628 351.42065154 427.51850048 352.49041331 C427.51505564 359.78575939 427.5208572 367.08106413 427.5302887 374.37640381 C427.54153995 383.27441921 427.53840311 392.17229358 427.51716572 401.07029295 C427.50669727 405.60488103 427.5024612 410.13923447 427.51576233 414.6738205 C427.52777989 418.8339209 427.52097151 422.99357167 427.49985212 427.15363193 C427.49542535 428.6493984 427.49756265 430.14520375 427.50735527 431.64094472 C427.58653091 444.75166378 425.43999687 457.11690326 419.23510742 468.82043457 C418.72077148 469.81623535 418.72077148 469.81623535 418.19604492 470.83215332 C415.1086539 476.62382845 411.42950346 481.67138594 406.98510742 486.50793457 C406.34831055 487.21305176 405.71151367 487.91816895 405.05541992 488.64465332 C391.05002522 503.40937665 371.49895768 512.28999326 351.1861105 513.01129913 C348.41934216 513.04751323 345.65442222 513.03412281 342.88755798 513.01586914 C341.33350864 513.02049163 339.7794637 513.0268535 338.22542769 513.03477812 C334.00342273 513.05130955 329.78178445 513.04329988 325.55977905 513.03083324 C320.98779125 513.02171802 316.41586298 513.03578426 311.84388733 513.04675293 C302.90677273 513.06447374 293.96979303 513.06072712 285.03267329 513.04910237 C277.7653426 513.04004343 270.49804953 513.03885465 263.2307148 513.04319763 C261.67515908 513.04411703 261.67515908 513.04411703 260.088178 513.045055 C257.9810165 513.04633399 255.87385501 513.04763084 253.76669354 513.04894537 C234.04089098 513.06033216 214.31516297 513.04726705 194.58937264 513.0257439 C177.68698587 513.00787201 160.78470901 513.01098149 143.88232422 513.02941895 C124.22223131 513.05085473 104.56220359 513.05923648 84.90210062 513.04696989 C82.80329519 513.04569578 80.70448974 513.0444383 78.60568428 513.04319763 C77.5732093 513.04258053 76.54073433 513.04196343 75.47697223 513.04132763 C68.22319251 513.03788304 60.96945436 513.04368373 53.71568108 513.05311584 C44.86892653 513.06436722 36.02231385 513.0612299 27.17557543 513.03999287 C22.6673084 513.02952498 18.15927737 513.0252874 13.65101242 513.03858948 C9.51500648 513.05060807 5.37945276 513.04379703 1.24348719 513.02267927 C-0.24350111 513.01825296 -1.73052852 513.02038872 -3.21749116 513.03018242 C-16.38771934 513.1101951 -28.72776113 510.91849686 -40.45239258 504.63293457 C-41.12214111 504.2848877 -41.79188965 503.93684082 -42.48193359 503.57824707 C-47.37329866 500.98192791 -51.81731924 498.13478522 -56.01489258 494.50793457 C-57.08223633 493.65328613 -57.08223633 493.65328613 -58.17114258 492.78137207 C-73.56496188 479.97076217 -83.44777539 460.61953417 -85.38700199 440.68226159 C-85.52542051 436.64126873 -85.54952579 432.61774019 -85.52282715 428.57533264 C-85.52744844 427.02698383 -85.53380953 425.47863941 -85.54173613 423.93030399 C-85.55828435 419.71937175 -85.55024999 415.50880663 -85.53779125 411.29787385 C-85.52868292 406.73948258 -85.54273901 402.18115129 -85.55371094 397.62277222 C-85.57143984 388.70991678 -85.56768123 379.79719655 -85.55606037 370.88433594 C-85.54700352 363.63605931 -85.54581177 356.3878204 -85.55015564 349.13953972 C-85.55076857 348.10543117 -85.5513815 347.07132262 -85.55201301 346.00587745 C-85.553292 343.90467715 -85.55458885 341.80347686 -85.55590338 339.70227658 C-85.56729284 320.02747563 -85.55422144 300.35274938 -85.53270191 280.67796069 C-85.51483508 263.82136184 -85.51793481 246.96487322 -85.53637695 230.10827637 C-85.55781716 210.50238369 -85.56619156 190.89655641 -85.5539279 171.29065365 C-85.55265379 169.19715084 -85.55139631 167.10364802 -85.55015564 165.01014519 C-85.54953854 163.98028005 -85.54892144 162.95041491 -85.54828563 161.88934173 C-85.54484198 154.65608097 -85.55063984 147.42286192 -85.56007385 140.18960762 C-85.57133039 131.36554795 -85.56817739 122.54163047 -85.54695088 113.71758694 C-85.53648905 109.22135439 -85.5322348 104.72535831 -85.54554749 100.22912788 C-85.55757922 96.10289844 -85.55073402 91.97712181 -85.52963728 87.85093271 C-85.52521634 86.36860733 -85.52733418 84.88624266 -85.53714043 83.40394313 C-85.6182514 70.11006376 -83.59957908 56.90571156 -77.20239258 45.07043457 C-76.85837402 44.40922607 -76.51435547 43.74801758 -76.15991211 43.06677246 C-73.31513332 37.74506295 -69.97790648 33.06017356 -66.01489258 28.50793457 C-65.57016602 27.92141113 -65.12543945 27.3348877 -64.66723633 26.73059082 C-58.30569215 18.55146259 -49.35284884 12.92337035 -40.26489258 8.19543457 C-39.68304199 7.88227295 -39.10119141 7.56911133 -38.50170898 7.24645996 C-26.41911475 1.26268379 -13.27793846 -0.08812859 0 0 Z "
     fill="#F76C6F"
     transform="translate(85.014892578125,-0.5079345703125)"
     id="path2"
     style="fill:#000000;fill-opacity:1" />
  <path
     d="M0 0 C29.53422977 22.27432299 47.31775271 61.13215971 64.40063477 92.859375 C75.8475649 114.11860255 75.8475649 114.11860255 88.55151367 134.6394043 C89.01501221 135.34242676 89.47851074 136.04544922 89.95605469 136.76977539 C93.94590355 142.6631102 98.20719468 148.7223583 104.17651367 152.7019043 C107.09143917 153.2857239 107.09143917 153.2857239 110.17651367 152.7019043 C114.36796452 149.2622832 115.75169547 146.89841826 116.48901367 141.5769043 C118.26904089 132.00675798 122.18528203 123.53321474 126.17651367 114.7019043 C126.65048584 113.62851807 126.65048584 113.62851807 127.1340332 112.53344727 C145.74850351 70.40180832 176.60149657 19.80130649 221.08276367 1.5065918 C225.0090912 0.48535004 228.63709423 0.37165641 232.67651367 0.3894043 C233.77672852 0.36523438 233.77672852 0.36523438 234.89916992 0.34057617 C240.99256059 0.33512591 245.03176773 1.87102362 249.73901367 5.8894043 C258.41935922 15.90518762 259.51174494 25.12175086 259.42651367 38.0769043 C259.43424805 39.24479492 259.44198242 40.41268555 259.44995117 41.6159668 C259.43432649 48.58457617 258.8203159 54.94002176 257.17651367 61.7019043 C256.97928711 62.59184082 256.78206055 63.48177734 256.57885742 64.39868164 C253.87862266 76.56860618 250.7573732 88.59257038 247.11401367 100.5144043 C246.6400415 102.07674805 246.6400415 102.07674805 246.15649414 103.6706543 C243.90646317 110.8762891 241.16807627 117.77530723 238.17651367 124.7019043 C237.71768799 125.78689209 237.2588623 126.87187988 236.78613281 127.98974609 C220.9743066 165.3740487 203.16630632 201.93511402 182.17651367 236.7019043 C181.53037109 237.77601563 180.88422852 238.85012695 180.21850586 239.95678711 C169.68447789 257.4217672 158.65066934 274.40556703 146.55151367 290.8269043 C146.05425781 291.50897949 145.55700195 292.19105469 145.04467773 292.89379883 C141.53124304 297.58366118 141.53124304 297.58366118 138.17651367 298.7019043 C137.63124023 297.89108398 137.0859668 297.08026367 136.52416992 296.24487305 C125.47576037 279.95478871 112.57996556 264.83898355 97.69604492 251.9050293 C95.22059344 249.74044847 92.81634892 247.51607045 90.41577148 245.26953125 C85.13692249 240.33425323 79.7493115 235.63378249 74.11401367 231.10424805 C70.61708486 228.2443927 67.20733787 225.29414545 63.80151367 222.3269043 C55.23596701 214.87082259 46.6215043 207.48176395 37.80151367 200.3269043 C27.26018929 191.73143486 17.09200641 182.72563968 7.14526367 173.4519043 C4.59039454 171.0730083 1.98478085 168.75817942 -0.63598633 166.4519043 C-5.23877492 162.32448567 -9.6322851 158.00155942 -14.01098633 153.6394043 C-14.67654541 152.9784375 -15.34210449 152.3174707 -16.02783203 151.63647461 C-36.71875897 130.88123421 -54.52557784 106.72798432 -63.82348633 78.7019043 C-64.41323242 76.92493164 -64.41323242 76.92493164 -65.01489258 75.11206055 C-70.36781663 57.47127771 -69.87988359 36.33002797 -62.26098633 19.4519043 C-55.80916713 7.67376753 -46.45226541 -0.88892138 -33.74536133 -5.38793945 C-20.8220358 -8.98327489 -10.99044675 -7.91746532 0 0 Z "
     fill="#F76C6F"
     transform="translate(162.823486328125,110.298095703125)"
     id="path4"
     style="fill:#150102;fill-opacity:1" />
  <path
     d="M0 0 C1.09046631 0.00829834 2.18093262 0.01659668 3.30444336 0.02514648 C33.61660406 0.65510855 60.3922631 18.15080006 81.75 38.4375 C82.27174805 38.92669922 82.79349609 39.41589844 83.33105469 39.91992188 C100.77631488 56.36859767 115.72361911 76.5587417 125.75 98.4375 C125.75 99.4275 125.75 100.4175 125.75 101.4375 C126.41 101.4375 127.07 101.4375 127.75 101.4375 C128.00007812 100.75300781 128.25015625 100.06851563 128.5078125 99.36328125 C143.54149212 63.95376542 179.34698577 28.24239686 214.75 13.4375 C234.67017916 6.26155872 256.24176247 4.08746453 276.05200195 13.05126953 C290.93319551 20.31047383 301.5200098 31.78967236 307.1003418 47.42529297 C325.13663291 101.55450035 295.57525452 171.53136368 271.91796875 219.296875 C258.96688609 244.78480061 243.08727344 268.53300778 224.75 290.4375 C224.30817383 290.97101074 223.86634766 291.50452148 223.41113281 292.05419922 C212.59842799 305.09039344 201.07187049 316.94207977 187.75 327.4375 C186.88117188 328.17355469 186.01234375 328.90960938 185.1171875 329.66796875 C178.06562225 335.64021279 170.59451635 340.59336801 162.75 345.4375 C162.08572998 345.01339844 161.42145996 344.58929688 160.73706055 344.15234375 C154.03389887 339.87885071 147.30677787 335.64573919 140.5625 331.4375 C139.52786621 330.79087402 138.49323242 330.14424805 137.42724609 329.47802734 C132.212834 326.21970994 126.99490279 322.96727698 121.76953125 319.7265625 C84.04590108 296.30004444 46.44123171 271.96274148 12.70703125 242.95703125 C9.84606633 240.51935308 6.93363946 238.16184613 4 235.8125 C-0.23786525 232.36808122 -4.11421539 228.71982378 -7.88671875 224.7734375 C-9.88250601 222.800742 -11.91592993 220.9823025 -14.04296875 219.15625 C-18.23894947 215.51294865 -22.08243573 211.62031519 -25.875 207.5625 C-26.56303711 206.82636475 -27.25107422 206.09022949 -27.95996094 205.33178711 C-47.98538312 183.69890396 -64.94556359 159.92262619 -75.53613281 132.27685547 C-76.13794108 130.72623185 -76.77941776 129.19108931 -77.4296875 127.66015625 C-87.28743125 103.47429658 -87.28542569 75.26805594 -77.9375 51.0625 C-68.6977714 30.50480597 -51.62406973 13.99962789 -30.6875 5.625 C-20.56421909 1.82018479 -10.80506133 -0.10741627 0 0 Z M-36.24609375 37.71875 C-47.22868883 52.61911292 -49.15164721 71.43705952 -47.25 89.4375 C-42.01096536 119.60117869 -25.37858032 145.85220534 -4.6640625 167.84765625 C-2.71912477 169.93421566 -0.84924881 172.05090007 1.01171875 174.2109375 C4.88924367 178.66049643 9.00418015 182.83927233 13.1875 187 C13.89970703 187.71607422 14.61191406 188.43214844 15.34570312 189.16992188 C19.40552908 193.22237303 23.5629919 197.09594627 27.90795898 200.84057617 C30.51847501 203.10371538 33.03437154 205.4576279 35.5625 207.8125 C40.15831286 212.05914433 44.89430546 216.06668102 49.76953125 219.9921875 C53.3229054 222.90753772 56.78723733 225.91561843 60.25 228.9375 C65.40969067 233.43640405 70.63480889 237.82932732 75.953125 242.140625 C81.02216335 246.30346655 85.97451435 250.60276473 90.94287109 254.88476562 C92.73424144 256.42395982 94.53195887 257.95537119 96.33203125 259.484375 C103.4000427 265.49422526 110.33483354 271.60986315 117.12695312 277.93212891 C118.91605943 279.59151963 120.7156293 281.23914938 122.515625 282.88671875 C136.12515982 295.3885995 149.6226339 309.19334144 158.75 325.4375 C161.98844751 324.05837933 163.67212462 322.61641571 165.74609375 319.7890625 C166.2978125 319.04172852 166.84953125 318.29439453 167.41796875 317.52441406 C168.00191406 316.71198242 168.58585938 315.89955078 169.1875 315.0625 C169.80367187 314.21397461 170.41984375 313.36544922 171.0546875 312.49121094 C182.86605593 296.07244266 193.39921141 278.80138407 203.75 261.4375 C204.34006836 260.45104492 204.93013672 259.46458984 205.53808594 258.44824219 C216.79680339 239.54509409 226.90133731 220.10182631 236.75 200.4375 C237.30204102 199.33744629 237.85408203 198.23739258 238.42285156 197.10400391 C245.85784722 182.19262592 252.24265191 166.90167883 258.49169922 151.46606445 C259.52974362 148.96762812 260.63049986 146.52737283 261.78515625 144.08203125 C264.76065269 137.46779332 266.67645759 130.43648845 268.75 123.5 C268.97099365 122.76683563 269.1919873 122.03367126 269.41967773 121.27828979 C272.68813411 110.41643042 275.61513005 99.58755447 277.75 88.4375 C278.00946411 87.34187744 278.00946411 87.34187744 278.27416992 86.22412109 C279.89407073 79.11036229 280.08273801 72.21508752 280.0625 64.9375 C280.07861328 63.77863281 280.09472656 62.61976563 280.11132812 61.42578125 C280.11762204 50.28555884 278.05824601 41.08735639 270.75 32.4375 C263.85393877 26.40761071 255.5439291 26.77118068 246.88574219 27.21533203 C241.6571611 27.75922878 237.30858997 29.96193239 232.75 32.4375 C231.80125 32.91058594 230.8525 33.38367188 229.875 33.87109375 C213.94156948 42.36751082 200.7720499 56.37329738 189.75 70.4375 C189.29463867 71.0164502 188.83927734 71.59540039 188.37011719 72.19189453 C176.73733551 87.07791176 166.80093869 102.98632517 157.77490234 119.56835938 C156.79063393 121.36339485 155.78319036 123.14331366 154.76953125 124.921875 C146.26208596 140.06199239 138.91857378 156.37527414 135.6640625 173.48828125 C134.62478961 176.84149077 133.79632698 177.7878852 130.75 179.4375 C128 180.0625 128 180.0625 124.75 179.4375 C118.92963856 175.36019968 114.78675147 170.24554258 111 164.3125 C110.4939624 163.53535645 109.9879248 162.75821289 109.46655273 161.95751953 C100.46293653 147.95189432 92.62934396 133.26293714 84.75292969 118.60668945 C79.19162867 108.30801453 73.29289479 98.21696151 67.33984375 88.14111328 C65.88895039 85.67379247 64.45568429 83.19750515 63.03125 80.71484375 C55.02219696 66.79790697 46.2368035 53.62793584 35.75 41.4375 C35.05648437 40.58671875 34.36296875 39.7359375 33.6484375 38.859375 C26.10646111 29.91870481 15.50120666 20.77893584 3.53515625 19.1328125 C-12.1322897 18.26945243 -26.37692581 25.99580276 -36.24609375 37.71875 Z "
     fill="#FEFDFD"
     transform="translate(142.25,83.5625)"
     id="path6" />
  <path
     d="M0 0 C1.21623047 -0.02900391 2.43246094 -0.05800781 3.68554688 -0.08789062 C11.41166218 -0.14238845 17.59491117 0.15228447 23.44897461 5.76049805 C29.94760005 13.15741155 29.71806869 20.76393247 29.17138672 30.15869141 C28.55008736 35.88009321 26.25001861 40.0261411 22.2109375 44.01953125 C17.58933382 47.4714698 13.20506882 47.84671208 7.55078125 47.78125 C4.48841628 47.23194687 2.55126408 45.95760655 -0.0625 44.3125 C-0.08755615 45.03429443 -0.1126123 45.75608887 -0.13842773 46.49975586 C-0.25401302 49.750035 -0.37690774 52.99999688 -0.5 56.25 C-0.53931641 57.38630859 -0.57863281 58.52261719 -0.61914062 59.69335938 C-0.66103516 60.77294922 -0.70292969 61.85253906 -0.74609375 62.96484375 C-0.80108032 64.46519165 -0.80108032 64.46519165 -0.85717773 65.99584961 C-1.0625 68.3125 -1.0625 68.3125 -2.0625 69.3125 C-3.89365883 69.41101171 -5.72869933 69.44222629 -7.5625 69.4375 C-8.5628125 69.44007813 -9.563125 69.44265625 -10.59375 69.4453125 C-13.0625 69.3125 -13.0625 69.3125 -14.0625 68.3125 C-14.16193972 66.23174591 -14.19049596 64.14758152 -14.19189453 62.06445312 C-14.19364685 61.41242416 -14.19539917 60.7603952 -14.19720459 60.08860779 C-14.20162204 57.92362847 -14.19868551 55.75873021 -14.1953125 53.59375 C-14.19598557 52.09541813 -14.19695562 50.59708637 -14.19821167 49.09875488 C-14.1996885 45.95466067 -14.19753458 42.81059483 -14.19287109 39.66650391 C-14.1871738 35.62763461 -14.19045289 31.58883176 -14.19644356 27.5499649 C-14.20004958 24.4548492 -14.19891039 21.35974935 -14.19631577 18.26463318 C-14.19564661 16.77501925 -14.19647452 15.2854039 -14.19879532 13.79579163 C-14.20132253 11.71733765 -14.19748033 9.63899269 -14.19189453 7.56054688 C-14.19109894 6.37553589 -14.19030334 5.1905249 -14.18948364 3.96960449 C-13.88642918 -2.37174275 -4.88758484 0.0380061 0 0 Z "
     fill="#FEF8F8"
     transform="translate(79.0625,389.6875)"
     id="path8" />
  <path
     d="M0 0 C2.64 0 5.28 0 8 0 C8 4.29 8 8.58 8 13 C10.97 13 13.94 13 17 13 C17.38218767 14.65614657 17.71395102 16.32457024 18 18 C17 19 17 19 14.71484375 19.09765625 C13.34005859 19.08025391 13.34005859 19.08025391 11.9375 19.0625 C11.01839844 19.05347656 10.09929687 19.04445313 9.15234375 19.03515625 C8.44207031 19.02355469 7.73179687 19.01195312 7 19 C6.97534712 23.68139254 6.95716261 28.36274759 6.94506836 33.04418945 C6.94002843 34.63794614 6.9331965 36.23169819 6.92456055 37.82543945 C6.91248001 40.11150253 6.90676845 42.39750467 6.90234375 44.68359375 C6.89718246 45.40026718 6.89202118 46.11694061 6.88670349 46.85533142 C6.88650737 48.57063672 6.93807993 50.28581266 7 52 C7.97591148 53.19347662 7.97591148 53.19347662 9.78515625 53.1328125 C14.94580028 53.11510875 19.89222297 52.74294939 25 52 C25.495 53.98 25.495 53.98 26 56 C17.95877063 60.2033699 11.07788483 60.76877679 2 60 C-1.26181647 58.871809 -3.1690925 57.22604698 -5.12841797 54.33496094 C-6.35925343 51.03756307 -6.24637777 47.85937683 -6.1953125 44.390625 C-6.19106766 43.30041046 -6.19106766 43.30041046 -6.18673706 42.18817139 C-6.17557523 39.87527749 -6.15047851 37.56277612 -6.125 35.25 C-6.11496501 33.67839102 -6.10584006 32.10677596 -6.09765625 30.53515625 C-6.07564904 26.68995378 -6.04114715 22.84504336 -6 19 C-7.65 18.67 -9.3 18.34 -11 18 C-11 16.35 -11 14.7 -11 13 C-8.69 13 -6.38 13 -4 13 C-3.8453125 11.7315625 -3.8453125 11.7315625 -3.6875 10.4375 C-2.9171146 6.58557299 -1.63725486 3.55924969 0 0 Z "
     fill="#FEF8F8"
     transform="translate(126,377)"
     id="path10" />
  <path
     d="M0 0 C5.19055577 5.07521009 6.10910562 8.57357548 6.2409668 15.63623047 C6.26947971 22.30825145 6.23674307 28.00603136 3 34 C-0.6053389 36.40355927 -3.79361025 36.75085268 -8 36 C-10.09399414 34.83789062 -10.09399414 34.83789062 -12 33 C-12.51757812 30.36791992 -12.51757812 30.36791992 -12.53125 27.23046875 C-12.53640625 26.09416016 -12.5415625 24.95785156 -12.546875 23.78710938 C-12.53140625 22.59923828 -12.5159375 21.41136719 -12.5 20.1875 C-12.51546875 19.01123047 -12.5309375 17.83496094 -12.546875 16.62304688 C-12.51784048 10.20278973 -12.48772655 5.79751365 -8 1 C-5.074084 -0.462958 -3.24382653 -0.44523109 0 0 Z "
     fill="#F66C6F"
     transform="translate(90,395)"
     id="path12"
     style="fill:#000000;fill-opacity:1" />
  <path
     d="M0 0 C4 1 4 1 4 1 Z "
     fill="#FF7575"
     transform="translate(59,511)"
     id="path16" />
  <path
     d="M0 0 C0.99 0.33 1.98 0.66 3 1 C2.01 1 1.02 1 0 1 C0 0.67 0 0.34 0 0 Z "
     fill="#FF4040"
     transform="translate(27,494)"
     id="path18" />
  <path
     d="M0 0 C0.99 0.495 0.99 0.495 2 1 C1.67 1.66 1.34 2.32 1 3 C0.67 2.01 0.34 1.02 0 0 Z "
     fill="#FF4040"
     transform="translate(16,482)"
     id="path20" />
  <path
     d="M0 0 C1 4 1 4 1 4 Z "
     fill="#FF6060"
     transform="translate(0,449)"
     id="path22" />
  <path
     d="M0 0 C1 4 1 4 1 4 Z "
     fill="#FF5555"
     transform="translate(0,59)"
     id="path24" />
  <path
     d="M0 0 C1 4 1 4 1 4 Z "
     fill="#FF3535"
     transform="translate(511,58)"
     id="path26" />
  <path
     d="M0 0 C0 3 0 3 0 3 Z "
     fill="#BF407F"
     transform="translate(14,31)"
     id="path28" />
  <path
     d="M0 0 C0.99 0.495 0.99 0.495 2 1 C1.67 1.66 1.34 2.32 1 3 C0.67 2.01 0.34 1.02 0 0 Z "
     fill="#FF4040"
     transform="translate(495,28)"
     id="path30" />
  <path
     d="M0 0 C0 3 0 3 0 3 Z "
     fill="#FF3535"
     transform="translate(18,26)"
     id="path32" />
  <path
     d="M0 0 C0.66 0.33 1.32 0.66 2 1 C1.01 1 0.02 1 -1 1 C-0.67 0.67 -0.34 0.34 0 0 Z "
     fill="#FF7575"
     transform="translate(27,17)"
     id="path34" />
  <path
     d="M0 0 C4 1 4 1 4 1 Z "
     fill="#FF5555"
     transform="translate(449,0)"
     id="path36" />
  <path
     d="M0 0 C4 1 4 1 4 1 Z "
     fill="#FF758A"
     transform="translate(59,0)"
     id="path38" />
  <path
     d="M0 0 C3 1 3 1 3 1 Z "
     fill="#E9AAAA"
     transform="translate(450,511)"
     id="path40" />
  <path
     d="M0 0 C3 1 3 1 3 1 Z "
     fill="#FF4747"
     transform="translate(454,510)"
     id="path42" />
  <path
     d="M0 0 C3 1 3 1 3 1 Z "
     fill="#FF8080"
     transform="translate(56,510)"
     id="path44" />
  <path
     d="M0 0 C3 1 3 1 3 1 Z "
     fill="#E93147"
     transform="translate(457,509)"
     id="path46" />
  <path
     d="M0 0 C3 1 3 1 3 1 Z "
     fill="#FF2A2A"
     transform="translate(50,508)"
     id="path48" />
  <path
     d=""
     fill="#FF3838"
     transform="translate(0,0)"
     id="path50" />
  <path
     d=""
     fill="#BF4055"
     transform="translate(0,0)"
     id="path52" />
  <path
     d=""
     fill="#FFD4D4"
     transform="translate(0,0)"
     id="path54" />
  <path
     d=""
     fill="#D45555"
     transform="translate(0,0)"
     id="path56" />
  <path
     d=""
     fill="#D48080"
     transform="translate(0,0)"
     id="path58" />
  <path
     d=""
     fill="#D48080"
     transform="translate(0,0)"
     id="path60" />
  <path
     d=""
     fill="#FF4747"
     transform="translate(0,0)"
     id="path62" />
  <path
     d=""
     fill="#E99C9C"
     transform="translate(0,0)"
     id="path64" />
  <path
     d=""
     fill="#E2479C"
     transform="translate(0,0)"
     id="path66" />
  <path
     d=""
     fill="#FF55AA"
     transform="translate(0,0)"
     id="path68" />
  <path
     d=""
     fill="#FF5555"
     transform="translate(0,0)"
     id="path70" />
  <path
     d=""
     fill="#FF4747"
     transform="translate(0,0)"
     id="path72" />
  <path
     d=""
     fill="#E9152A"
     transform="translate(0,0)"
     id="path74" />
  <path
     d="M0 0 C3 1 3 1 3 1 Z "
     fill="#FF2A2A"
     transform="translate(48,4)"
     id="path76" />
  <path
     d="M0 0 C3 1 3 1 3 1 Z "
     fill="#FF4747"
     transform="translate(459,3)"
     id="path78" />
  <path
     d="M0 0 C3 1 3 1 3 1 Z "
     fill="#FFD4D4"
     transform="translate(456,2)"
     id="path80" />
  <path
     d="M0 0 C3 1 3 1 3 1 Z "
     fill="#FF3838"
     transform="translate(53,2)"
     id="path82" />
  <path
     d="M0 0 C3 1 3 1 3 1 Z "
     fill="#FF9C9C"
     transform="translate(453,1)"
     id="path84" />
  <path
     d="M0 0 C3 1 3 1 3 1 Z "
     fill="#FF4747"
     transform="translate(56,1)"
     id="path86" />
  <path
     d="M0 0 C2 1 2 1 2 1 Z "
     fill="#FF8080"
     transform="translate(53,509)"
     id="path88" />
  <path
     d="M0 0 C2 1 2 1 2 1 Z "
     fill="#FF8080"
     transform="translate(460,508)"
     id="path90" />
  <path
     d="M0 0 C2 1 2 1 2 1 Z "
     fill="#FF6A6A"
     transform="translate(462,507)"
     id="path92" />
  <path
     d="M0 0 C2 1 2 1 2 1 Z "
     fill="#FF6A6A"
     transform="translate(48,507)"
     id="path94" />
  <path
     d="M0 0 C2 1 2 1 2 1 Z "
     fill="#FF4040"
     transform="translate(465,506)"
     id="path96" />
  <path
     d="M0 0 C2 1 2 1 2 1 Z "
     fill="#FF6A6A"
     transform="translate(46,506)"
     id="path98" />
  <path
     d="M0 0 C2 1 2 1 2 1 Z "
     fill="#FF4040"
     transform="translate(467,505)"
     id="path100" />
  <path
     d="M0 0 C2 1 2 1 2 1 Z "
     fill="#FF2AAA"
     transform="translate(44,505)"
     id="path102" />
  <path
     d="M0 0 C2 1 2 1 2 1 Z "
     fill="#FF4040"
     transform="translate(469,504)"
     id="path104" />
  <path
     d="M0 0 C2 1 2 1 2 1 Z "
     fill="#BF6A6A"
     transform="translate(42,504)"
     id="path106" />
  <path
     d="M0 0 C2 1 2 1 2 1 Z "
     fill="#FF8080"
     transform="translate(40,503)"
     id="path108" />
  <path
     d="M0 0 C2 1 2 1 2 1 Z "
     fill="#FF8080"
     transform="translate(472,502)"
     id="path110" />
  <path
     d="M0 0 C2 1 2 1 2 1 Z "
     fill="#FFBFBF"
     transform="translate(38,502)"
     id="path112" />
  <path
     d="M0 0 C2 1 2 1 2 1 Z "
     fill="#FF4040"
     transform="translate(474,501)"
     id="path114" />
  <path
     d="M0 0 C2 1 2 1 2 1 Z "
     fill="#FF6A6A"
     transform="translate(35,500)"
     id="path116" />
  <path
     d="M0 0 C2 1 2 1 2 1 Z "
     fill="#DF4040"
     transform="translate(477,499)"
     id="path118" />
  <path
     d="M0 0 C2 1 2 1 2 1 Z "
     fill="#FFAAAA"
     transform="translate(32,498)"
     id="path120" />
  <path
     d="M0 0 C2 1 2 1 2 1 Z "
     fill="#FF2A2A"
     transform="translate(481,496)"
     id="path122" />
  <path
     d=""
     fill="#FFBFBF"
     transform="translate(0,0)"
     id="path124" />
  <path
     d=""
     fill="#FFAAAA"
     transform="translate(0,0)"
     id="path126" />
  <path
     d=""
     fill="#FFAAAA"
     transform="translate(0,0)"
     id="path128" />
  <path
     d=""
     fill="#FF6A6A"
     transform="translate(0,0)"
     id="path130" />
  <path
     d=""
     fill="#FFAAAA"
     transform="translate(0,0)"
     id="path132" />
  <path
     d=""
     fill="#FF4040"
     transform="translate(0,0)"
     id="path134" />
  <path
     d=""
     fill="#FF4040"
     transform="translate(0,0)"
     id="path136" />
  <path
     d=""
     fill="#FF6A6A"
     transform="translate(0,0)"
     id="path138" />
  <path
     d=""
     fill="#FFBFBF"
     transform="translate(0,0)"
     id="path140" />
  <path
     d=""
     fill="#FF6A6A"
     transform="translate(0,0)"
     id="path142" />
  <path
     d=""
     fill="#DF6080"
     transform="translate(0,0)"
     id="path144" />
  <path
     d=""
     fill="#FF6A6A"
     transform="translate(0,0)"
     id="path146" />
  <path
     d=""
     fill="#FF8080"
     transform="translate(0,0)"
     id="path148" />
  <path
     d=""
     fill="#FF5555"
     transform="translate(0,0)"
     id="path150" />
  <path
     d=""
     fill="#DF40BF"
     transform="translate(0,0)"
     id="path152" />
  <path
     d=""
     fill="#DF6080"
     transform="translate(0,0)"
     id="path154" />
  <path
     d=""
     fill="#D45555"
     transform="translate(0,0)"
     id="path156" />
  <path
     d=""
     fill="#FFBFBF"
     transform="translate(0,0)"
     id="path158" />
  <path
     d=""
     fill="#FF6A6A"
     transform="translate(0,0)"
     id="path160" />
  <path
     d=""
     fill="#FFBFBF"
     transform="translate(0,0)"
     id="path162" />
  <path
     d=""
     fill="#FF6A6A"
     transform="translate(0,0)"
     id="path164" />
  <path
     d=""
     fill="#FF40BF"
     transform="translate(0,0)"
     id="path166" />
  <path
     d=""
     fill="#FF6A6A"
     transform="translate(0,0)"
     id="path168" />
  <path
     d=""
     fill="#FF4040"
     transform="translate(0,0)"
     id="path170" />
  <path
     d=""
     fill="#FFAAD4"
     transform="translate(0,0)"
     id="path172" />
  <path
     d=""
     fill="#FF8080"
     transform="translate(0,0)"
     id="path174" />
  <path
     d=""
     fill="#FF4040"
     transform="translate(0,0)"
     id="path176" />
  <path
     d=""
     fill="#FF4040"
     transform="translate(0,0)"
     id="path178" />
  <path
     d=""
     fill="#FF4040"
     transform="translate(0,0)"
     id="path180" />
  <path
     d=""
     fill="#FF4040"
     transform="translate(0,0)"
     id="path182" />
  <path
     d="M0 0 C2 1 2 1 2 1 Z "
     fill="#FFAAAA"
     transform="translate(482,16)"
     id="path184" />
  <path
     d="M0 0 C2 1 2 1 2 1 Z "
     fill="#FF8080"
     transform="translate(31,14)"
     id="path186" />
  <path
     d="M0 0 C2 1 2 1 2 1 Z "
     fill="#FF6A6A"
     transform="translate(478,13)"
     id="path188" />
  <path
     d="M0 0 C2 1 2 1 2 1 Z "
     fill="#FF8080"
     transform="translate(475,11)"
     id="path190" />
  <path
     d="M0 0 C2 1 2 1 2 1 Z "
     fill="#FF4040"
     transform="translate(35,11)"
     id="path192" />
  <path
     d="M0 0 C2 1 2 1 2 1 Z "
     fill="#FF4040"
     transform="translate(37,10)"
     id="path194" />
  <path
     d="M0 0 C2 1 2 1 2 1 Z "
     fill="#FFBFBF"
     transform="translate(472,9)"
     id="path196" />
  <path
     d="M0 0 C2 1 2 1 2 1 Z "
     fill="#FF8080"
     transform="translate(470,8)"
     id="path198" />
  <path
     d="M0 0 C2 1 2 1 2 1 Z "
     fill="#FFBFBF"
     transform="translate(40,8)"
     id="path200" />
  <path
     d="M0 0 C2 1 2 1 2 1 Z "
     fill="#FF6A6A"
     transform="translate(468,7)"
     id="path202" />
  <path
     d="M0 0 C2 1 2 1 2 1 Z "
     fill="#DF6080"
     transform="translate(42,7)"
     id="path204" />
  <path
     d="M0 0 C2 1 2 1 2 1 Z "
     fill="#FFAAAA"
     transform="translate(466,6)"
     id="path206" />
  <path
     d="M0 0 C2 1 2 1 2 1 Z "
     fill="#FF6A6A"
     transform="translate(44,6)"
     id="path208" />
  <path
     d="M0 0 C2 1 2 1 2 1 Z "
     fill="#FF5555"
     transform="translate(464,5)"
     id="path210" />
  <path
     d="M0 0 C2 1 2 1 2 1 Z "
     fill="#FF8080"
     transform="translate(46,5)"
     id="path212" />
  <path
     d="M0 0 C2 1 2 1 2 1 Z "
     fill="#DF8080"
     transform="translate(462,4)"
     id="path214" />
  <path
     d="M0 0 C2 1 2 1 2 1 Z "
     fill="#D45555"
     transform="translate(51,3)"
     id="path216" />
  <path
     d=""
     fill="#FF5555"
     transform="translate(0,0)"
     id="path218" />
  <path
     d=""
     fill="#FF8080"
     transform="translate(0,0)"
     id="path220" />
  <path
     d=""
     fill="#FF5555"
     transform="translate(0,0)"
     id="path222" />
  <path
     d=""
     fill="#FF8080"
     transform="translate(0,0)"
     id="path224" />
  <path
     d=""
     fill="#FF5555"
     transform="translate(0,0)"
     id="path226" />
  <path
     d=""
     fill="#FF8080"
     transform="translate(0,0)"
     id="path228" />
  <path
     d=""
     fill="#FF5555"
     transform="translate(0,0)"
     id="path230" />
  <path
     d=""
     fill="#FF8080"
     transform="translate(0,0)"
     id="path232" />
  <path
     d=""
     fill="#FF8080"
     transform="translate(0,0)"
     id="path234" />
  <path
     d=""
     fill="#FF55AA"
     transform="translate(0,0)"
     id="path236" />
  <path
     d=""
     fill="#FF8080"
     transform="translate(0,0)"
     id="path238" />
  <path
     d=""
     fill="#FF5555"
     transform="translate(0,0)"
     id="path240" />
  <path
     d=""
     fill="#FF8080"
     transform="translate(0,0)"
     id="path242" />
  <path
     d=""
     fill="#FF5555"
     transform="translate(0,0)"
     id="path244" />
  <path
     d=""
     fill="#FF8080"
     transform="translate(0,0)"
     id="path246" />
  <path
     d=""
     fill="#FF8080"
     transform="translate(0,0)"
     id="path248" />
  <path
     d=""
     fill="#FF8080"
     transform="translate(0,0)"
     id="path250" />
  <path
     d=""
     fill="#FF8080"
     transform="translate(0,0)"
     id="path252" />
  <path
     d=""
     fill="#FF5555"
     transform="translate(0,0)"
     id="path254" />
  <path
     d=""
     fill="#FF8080"
     transform="translate(0,0)"
     id="path256" />
  <path
     d=""
     fill="#FF8080"
     transform="translate(0,0)"
     id="path258" />
  <path
     d=""
     fill="#FF8080"
     transform="translate(0,0)"
     id="path260" />
  <path
     d=""
     fill="#FF8080"
     transform="translate(0,0)"
     id="path262" />
  <path
     d=""
     fill="#FF8080"
     transform="translate(0,0)"
     id="path264" />
  <path
     d=""
     fill="#FF8080"
     transform="translate(0,0)"
     id="path266" />
  <path
     d=""
     fill="#FF5555"
     transform="translate(0,0)"
     id="path268" />
  <path
     d=""
     fill="#FF8080"
     transform="translate(0,0)"
     id="path270" />
  <path
     d=""
     fill="#FF5555"
     transform="translate(0,0)"
     id="path272" />
  <path
     d=""
     fill="#FF8080"
     transform="translate(0,0)"
     id="path274" />
  <path
     d=""
     fill="#FF5555"
     transform="translate(0,0)"
     id="path276" />
  <path
     d=""
     fill="#FF8080"
     transform="translate(0,0)"
     id="path278" />
  <path
     d=""
     fill="#FF8080"
     transform="translate(0,0)"
     id="path280" />
  <path
     d=""
     fill="#FF5555"
     transform="translate(0,0)"
     id="path282" />
  <path
     d=""
     fill="#FF55AA"
     transform="translate(0,0)"
     id="path284" />
  <path
     d=""
     fill="#FF8080"
     transform="translate(0,0)"
     id="path286" />
  <path
     d=""
     fill="#FF8080"
     transform="translate(0,0)"
     id="path288" />
  <path
     d=""
     fill="#BF4080"
     transform="translate(0,0)"
     id="path290" />
  <path
     d=""
     fill="#FF5555"
     transform="translate(0,0)"
     id="path292" />
  <path
     d=""
     fill="#BF8080"
     transform="translate(0,0)"
     id="path294" />
  <path
     d=""
     fill="#FF5555"
     transform="translate(0,0)"
     id="path296" />
  <path
     d=""
     fill="#FF5555"
     transform="translate(0,0)"
     id="path298" />
  <path
     d=""
     fill="#FF5555"
     transform="translate(0,0)"
     id="path300" />
  <path
     d=""
     fill="#AA5555"
     transform="translate(0,0)"
     id="path302" />
  <path
     d=""
     fill="#FF8080"
     transform="translate(0,0)"
     id="path304" />
  <path
     d=""
     fill="#FF8080"
     transform="translate(0,0)"
     id="path306" />
  <path
     d=""
     fill="#FF8080"
     transform="translate(0,0)"
     id="path308" />
  <path
     d=""
     fill="#FF5555"
     transform="translate(0,0)"
     id="path310" />
  <path
     d=""
     fill="#FF8080"
     transform="translate(0,0)"
     id="path312" />
  <path
     d=""
     fill="#FF8080"
     transform="translate(0,0)"
     id="path314" />
  <path
     d=""
     fill="#FF8080"
     transform="translate(0,0)"
     id="path316" />
  <path
     d=""
     fill="#CC6666"
     transform="translate(0,0)"
     id="path318" />
  <path
     d=""
     fill="#FF5555"
     transform="translate(0,0)"
     id="path320" />
  <path
     d=""
     fill="#FF8080"
     transform="translate(0,0)"
     id="path322" />
  <path
     d=""
     fill="#FF5555"
     transform="translate(0,0)"
     id="path324" />
  <path
     d=""
     fill="#FF8080"
     transform="translate(0,0)"
     id="path326" />
  <path
     d=""
     fill="#FF5555"
     transform="translate(0,0)"
     id="path328" />
  <path
     d=""
     fill="#CC6666"
     transform="translate(0,0)"
     id="path330" />
  <path
     d=""
     fill="#FF5555"
     transform="translate(0,0)"
     id="path332" />
  <path
     d=""
     fill="#FF8080"
     transform="translate(0,0)"
     id="path334" />
  <path
     d=""
     fill="#FF5555"
     transform="translate(0,0)"
     id="path336" />
  <path
     d=""
     fill="#FF8080"
     transform="translate(0,0)"
     id="path338" />
  <path
     d=""
     fill="#FF8080"
     transform="translate(0,0)"
     id="path340" />
  <path
     d=""
     fill="#FF5555"
     transform="translate(0,0)"
     id="path342" />
  <path
     d=""
     fill="#FF8080"
     transform="translate(0,0)"
     id="path344" />
  <path
     d=""
     fill="#FF8080"
     transform="translate(0,0)"
     id="path346" />
  <path
     d=""
     fill="#FF8080"
     transform="translate(0,0)"
     id="path348" />
  <path
     d=""
     fill="#FF55AA"
     transform="translate(0,0)"
     id="path350" />
  <path
     d=""
     fill="#FF55AA"
     transform="translate(0,0)"
     id="path352" />
  <path
     d=""
     fill="#FF8080"
     transform="translate(0,0)"
     id="path354" />
  <path
     d=""
     fill="#FF8080"
     transform="translate(0,0)"
     id="path356" />
  <path
     d=""
     fill="#FF5555"
     transform="translate(0,0)"
     id="path358" />
  <path
     d=""
     fill="#FF8080"
     transform="translate(0,0)"
     id="path360" />
  <path
     d=""
     fill="#FF8080"
     transform="translate(0,0)"
     id="path362" />
</svg>
