<?xml version="1.0" encoding="UTF-8" standalone="no"?>
<!-- Created with Inkscape (http://www.inkscape.org/) -->

<svg
   width="430"
   height="201"
   viewBox="0 0 113.77083 53.181251"
   version="1.1"
   id="svg473"
   inkscape:version="1.2.2 (732a01da63, 2022-12-09)"
   sodipodi:docname="letring.svg"
   xmlns:inkscape="http://www.inkscape.org/namespaces/inkscape"
   xmlns:sodipodi="http://sodipodi.sourceforge.net/DTD/sodipodi-0.dtd"
   xmlns="http://www.w3.org/2000/svg"
   xmlns:svg="http://www.w3.org/2000/svg">
  <sodipodi:namedview
     id="namedview475"
     pagecolor="#ffffff"
     bordercolor="#000000"
     borderopacity="0.25"
     inkscape:showpageshadow="2"
     inkscape:pageopacity="0.0"
     inkscape:pagecheckerboard="0"
     inkscape:deskcolor="#d1d1d1"
     inkscape:document-units="mm"
     showgrid="false"
     inkscape:zoom="1.4770342"
     inkscape:cx="288.41579"
     inkscape:cy="79.889821"
     inkscape:window-width="1920"
     inkscape:window-height="1009"
     inkscape:window-x="1912"
     inkscape:window-y="-8"
     inkscape:window-maximized="1"
     inkscape:current-layer="layer1" />
  <defs
     id="defs470">
    <clipPath
       id="badd009e40">
      <path
         d="M 45.347656,156 H 139 v 66 H 45.347656 Z m 0,0"
         clip-rule="nonzero"
         id="path41272" />
    </clipPath>
  </defs>
  <g
     inkscape:label="Layer 1"
     inkscape:groupmode="layer"
     id="layer1">
    <g
       id="g1523"
       transform="matrix(2.1191012,0,0,2.1257907,-255.21335,-368.57209)">
      <g
         fill="#000000"
         fill-opacity="1"
         id="g41315"
         transform="matrix(0.4112473,0,0,0.4112473,62.957923,107.37317)">
        <g
           transform="translate(139.81624,198.21064)"
           id="g41313">
          <g
             id="g41311">
            <path
               d="M 0.140625,-37.390625 H 7.71875 l 0.859375,26.96875 h 0.28125 l 0.84375,-26.96875 h 7.265625 l 0.84375,26.96875 h 0.3125 l 0.8125,-26.96875 h 7.59375 L 22.546875,0 H 14.21875 l -0.75,-23.921875 h -0.25 L 12.453125,0 H 4.15625 Z m 0,0"
               id="path41309" />
          </g>
        </g>
      </g>
      <g
         fill="#000000"
         fill-opacity="1"
         id="g41323"
         transform="matrix(0.4112473,0,0,0.4112473,62.957923,107.37317)">
        <g
           transform="translate(168.18069,198.21064)"
           id="g41321">
          <g
             id="g41319">
            <path
               d="m 0.71875,0 v -37.390625 h 12.421875 v 5.171875 h -4.75 v 11.703125 h 3.765625 v 3.90625 H 8.390625 V -5.03125 H 13.21875 V 0 Z m 0,0"
               id="path41317" />
          </g>
        </g>
      </g>
      <g
         fill="#000000"
         fill-opacity="1"
         id="g41331"
         transform="matrix(0.4112473,0,0,0.4112473,62.957923,107.37317)">
        <g
           transform="translate(183.34522,198.21064)"
           id="g41329">
          <g
             id="g41327">
            <path
               d="m 0.71875,0 v -37.390625 h 8.140625 c 2.78125,0 4.878906,0.636719 6.296875,1.90625 1.425781,1.273437 2.140625,3.15625 2.140625,5.65625 V -7.59375 c 0,2.5 -0.710937,4.390625 -2.125,5.671875 C 13.765625,-0.640625 11.664062,0 8.875,0 Z M 8.0625,-6.015625 H 8.75 c 0.34375,0 0.570312,-0.101563 0.6875,-0.3125 0.125,-0.21875 0.1875,-0.628906 0.1875,-1.234375 v -22.21875 c 0,-0.625 -0.0625,-1.046875 -0.1875,-1.265625 C 9.320312,-31.265625 9.09375,-31.375 8.75,-31.375 H 8.0625 Z m 0,0"
               id="path41325" />
          </g>
        </g>
      </g>
      <g
         fill="#000000"
         fill-opacity="1"
         id="g41339"
         transform="matrix(0.4112473,0,0,0.4112473,62.957923,107.37317)">
        <g
           transform="translate(202.93722,198.21064)"
           id="g41337">
          <g
             id="g41335">
            <path
               d="m 0.71875,0 v -37.390625 h 8.140625 c 2.78125,0 4.878906,0.636719 6.296875,1.90625 1.425781,1.273437 2.140625,3.15625 2.140625,5.65625 V -7.59375 c 0,2.5 -0.710937,4.390625 -2.125,5.671875 C 13.765625,-0.640625 11.664062,0 8.875,0 Z M 8.0625,-6.015625 H 8.75 c 0.34375,0 0.570312,-0.101563 0.6875,-0.3125 0.125,-0.21875 0.1875,-0.628906 0.1875,-1.234375 v -22.21875 c 0,-0.625 -0.0625,-1.046875 -0.1875,-1.265625 C 9.320312,-31.265625 9.09375,-31.375 8.75,-31.375 H 8.0625 Z m 0,0"
               id="path41333" />
          </g>
        </g>
      </g>
      <g
         fill="#000000"
         fill-opacity="1"
         id="g41347"
         transform="matrix(0.4112473,0,0,0.4112473,62.957923,107.37317)">
        <g
           transform="translate(222.52922,198.21064)"
           id="g41345">
          <g
             id="g41343">
            <path
               d="M 0.71875,0 V -37.390625 H 8.296875 V 0 Z m 0,0"
               id="path41341" />
          </g>
        </g>
      </g>
      <g
         fill="#000000"
         fill-opacity="1"
         id="g41355"
         transform="matrix(0.4112473,0,0,0.4112473,62.957923,107.37317)">
        <g
           transform="translate(233.23876,198.21064)"
           id="g41353">
          <g
             id="g41351">
            <path
               d="m 0.71875,0 v -37.390625 h 7.921875 l 0.65625,5.21875 1.734375,18.3125 h 0.375 L 10.3125,-37.390625 H 16.875 V 0 H 8.96875 L 8.296875,-5.140625 6.359375,-24.78125 5.96875,-24.796875 7.234375,0 Z m 0,0"
               id="path41349" />
          </g>
        </g>
      </g>
      <g
         fill="#000000"
         fill-opacity="1"
         id="g41363"
         transform="matrix(0.4112473,0,0,0.4112473,62.957923,107.37317)">
        <g
           transform="translate(252.52825,198.21064)"
           id="g41361">
          <g
             id="g41359">
            <path
               d="m 9.15625,0.546875 c -5.71875,0 -8.578125,-2.617187 -8.578125,-7.859375 v -22.734375 c 0,-5.25 2.859375,-7.875 8.578125,-7.875 5.601562,0 8.425781,2.257813 8.46875,6.765625 v 10.09375 l -7.703125,-0.03125 v -10.546875 c 0,-0.539063 -0.257813,-0.8125 -0.765625,-0.8125 -0.53125,0 -0.796875,0.273437 -0.796875,0.8125 v 26.6875 c 0,0.53125 0.265625,0.796875 0.796875,0.796875 0.34375,0 0.617188,-0.070312 0.828125,-0.21875 V -16 h -0.71875 v -3.828125 H 17.65625 V -1.3125 c -2.125,1.2421875 -4.960938,1.859375 -8.5,1.859375 z m 0,0"
               id="path41357" />
          </g>
        </g>
      </g>
      <path
         stroke-linecap="butt"
         fill="none"
         stroke-linejoin="miter"
         d="m 143.70855,186.50453 c 0,0.11727 -0.0466,0.21366 -0.14136,0.29077 -0.0948,0.0771 -0.21044,0.11566 -0.34699,0.11566 -0.27631,0 -0.5976,-0.0402 -0.96226,-0.12209 -0.36465,-0.0819 -0.69237,-0.15421 -0.97992,-0.21847 -0.24418,-0.0514 -0.50281,-0.11406 -0.77751,-0.18795 -0.27471,-0.0723 -0.57029,-0.13013 -0.88515,-0.1735 -0.65703,0.2506 -1.33013,0.58795 -2.02089,1.01205 -0.68917,0.42249 -1.35744,0.91246 -2.00483,1.46989 -0.45945,0.39679 -0.89479,0.81768 -1.30282,1.26427 -0.40964,0.44658 -0.76948,0.88835 -1.08274,1.3253 -0.31004,0.43534 -0.55261,0.85141 -0.72771,1.24981 -0.17671,0.39679 -0.26506,0.74217 -0.26506,1.03936 0,0.31486 0.10602,0.56868 0.31646,0.76145 0.21366,0.19438 0.54619,0.28595 0.99599,0.27792 0.4498,-0.0177 0.9237,-0.11888 1.4217,-0.30362 0.5012,-0.18474 0.95904,-0.41286 1.37189,-0.68274 0.31647,-0.20723 0.61687,-0.41606 0.90121,-0.62651 0.28273,-0.21204 0.55583,-0.43052 0.81767,-0.65703 0.0353,-0.0257 0.0787,-0.0594 0.13173,-0.098 0.0546,-0.0418 0.0964,-0.0498 0.1221,-0.0241 0.0369,0.0369 0.0418,0.0771 0.0128,0.11888 -0.0257,0.0402 -0.061,0.0771 -0.10442,0.11245 -0.26185,0.21526 -0.5494,0.44659 -0.86105,0.69559 -0.31004,0.249 -0.6233,0.46747 -0.93655,0.65703 -0.44177,0.27791 -0.90603,0.51566 -1.39278,0.70844 -0.48514,0.19277 -0.98956,0.29879 -1.51326,0.31646 -0.44016,0.01 -0.82892,-0.0787 -1.16788,-0.26345 -0.33895,-0.18474 -0.55743,-0.47069 -0.65542,-0.85784 -0.0626,0.0273 -0.13173,0.0434 -0.20884,0.053 -0.0771,0.008 -0.151,0.0128 -0.22329,0.0128 -0.69238,0 -1.23214,-0.21044 -1.61929,-0.63293 -0.38715,-0.4241 -0.58153,-1.03294 -0.58153,-1.8233 0,-0.56707 0.11406,-1.12611 0.34378,-1.67552 0.23133,-0.54939 0.54458,-1.05703 0.93976,-1.52129 0.39519,-0.46426 0.83213,-0.85783 1.30925,-1.18072 0.72932,-0.48515 1.51165,-0.84017 2.34539,-1.06507 0.83213,-0.22651 1.73174,-0.33896 2.69399,-0.33896 0.49478,0 0.97189,0.0321 1.43133,0.0948 0.45944,0.0627 0.91085,0.14619 1.35262,0.25382 0.41286,-0.12531 0.83374,-0.21687 1.25944,-0.2731 0.42892,-0.0594 0.83696,-0.0851 1.22411,-0.0755 0.50602,0.0177 0.92691,0.11085 1.26265,0.28274 0.33896,0.17188 0.50763,0.4016 0.50763,0.68916 z m -0.14779,0 c 0,-0.26184 -0.16064,-0.45943 -0.48193,-0.59277 -0.31807,-0.13655 -0.6988,-0.20402 -1.14056,-0.20402 -0.27952,0 -0.58796,0.0225 -0.92692,0.0691 -0.33735,0.0434 -0.67149,0.1237 -1.00241,0.23936 0.22329,0.0562 0.45301,0.11727 0.68595,0.18474 0.23453,0.0675 0.44658,0.12691 0.63614,0.18153 0.28755,0.0739 0.60241,0.15421 0.94298,0.24417 0.34378,0.09 0.6506,0.13494 0.92049,0.13494 0.24417,0 0.36626,-0.0851 0.36626,-0.25703 z m -4.64741,-0.39197 c -0.6747,-0.0819 -1.42169,-0.12208 -2.24258,-0.12208 -0.89318,0 -1.72853,0.0884 -2.50604,0.26345 -0.77912,0.17671 -1.54218,0.50282 -2.28917,0.97992 -0.51406,0.3229 -0.96708,0.70523 -1.35904,1.14861 -0.39197,0.44177 -0.69719,0.90924 -0.92049,1.40402 -0.22008,0.49478 -0.32932,0.99438 -0.32932,1.50041 0,0.7743 0.17992,1.35262 0.54137,1.73495 0.35984,0.38233 0.84177,0.57349 1.44418,0.57349 0.0643,0 0.13173,-0.003 0.20402,-0.0128 0.0723,-0.008 0.13976,-0.0225 0.20081,-0.0402 -0.0257,-0.40642 0.0369,-0.82731 0.18795,-1.26265 0.15422,-0.43695 0.36948,-0.87069 0.64418,-1.30282 0.2747,-0.43213 0.58796,-0.84499 0.93976,-1.23696 0.35181,-0.39036 0.70684,-0.74056 1.06507,-1.049 0.66827,-0.56707 1.38475,-1.06828 2.15101,-1.50362 0.76467,-0.43695 1.52129,-0.79518 2.26829,-1.07471 z m 3.49881,3.9181 c 0.15101,0 0.26185,0.0369 0.32932,0.10923 0.0675,0.0707 0.10281,0.15101 0.10281,0.24097 0,0.16225 -0.0739,0.34217 -0.21847,0.53976 -0.14298,0.1992 -0.31165,0.39679 -0.50442,0.59438 -0.19278,0.19759 -0.37109,0.36948 -0.53494,0.51406 -0.21527,0.19759 -0.41286,0.38554 -0.59278,0.56065 -0.17992,0.1767 -0.34378,0.34056 -0.48836,0.49156 -0.17188,0.17992 -0.29558,0.3229 -0.37269,0.42892 -0.0739,0.10281 -0.11245,0.18956 -0.11245,0.26024 0,0.09 0.0498,0.13495 0.1494,0.13495 0.10763,0 0.26506,-0.0514 0.47068,-0.15422 0.20723,-0.10281 0.4241,-0.23615 0.65061,-0.40001 0.23293,-0.16867 0.48675,-0.36787 0.76145,-0.59598 0.2747,-0.23133 0.50281,-0.41928 0.68273,-0.56386 0.0257,-0.0273 0.0562,-0.0482 0.0916,-0.0659 0.0385,-0.0209 0.0691,-0.0161 0.0964,0.0128 0.037,0.0353 0.037,0.0739 0,0.11566 -0.0353,0.0385 -0.0707,0.0723 -0.10603,0.098 -0.20883,0.18153 -0.44659,0.38233 -0.71165,0.60402 -0.26345,0.22008 -0.52209,0.41928 -0.7759,0.60081 -0.24097,0.17028 -0.47712,0.30843 -0.70844,0.41124 -0.22812,0.10442 -0.4241,0.15583 -0.58796,0.15583 -0.3245,0 -0.48675,-0.16225 -0.48675,-0.48836 0,-0.21526 0.0996,-0.46265 0.2988,-0.74217 0.17029,-0.23293 0.33575,-0.43373 0.49799,-0.6008 0.16386,-0.16707 0.38394,-0.37591 0.66346,-0.62973 0.0996,-0.098 0.22491,-0.21044 0.37591,-0.33574 0.15422,-0.12531 0.30682,-0.25542 0.45944,-0.38876 0.15261,-0.13655 0.28112,-0.25864 0.38554,-0.36627 0.10442,-0.11084 0.15743,-0.19598 0.15743,-0.25703 0,-0.0562 -0.0321,-0.0835 -0.0948,-0.0835 -0.11727,0 -0.31004,0.0691 -0.58153,0.20562 -0.26988,0.13334 -0.5751,0.31005 -0.91245,0.52691 -0.33735,0.21527 -0.66185,0.43856 -0.9735,0.66988 -0.31004,0.22812 -0.56386,0.43696 -0.76145,0.62652 -0.2249,0.20723 -0.42088,0.4 -0.58795,0.57992 -0.16708,0.17992 -0.33736,0.37269 -0.51406,0.5735 -0.17511,0.2024 -0.38073,0.45622 -0.61366,0.76305 -0.0546,0 -0.098,-0.0321 -0.12851,-0.0964 -0.0305,-0.061 -0.0466,-0.13334 -0.0466,-0.21366 0,-0.0996 0.0835,-0.28434 0.2506,-0.55422 0.16546,-0.27149 0.39197,-0.58795 0.67952,-0.95422 0.28916,-0.36466 0.60884,-0.73093 0.96065,-1.0972 0.34217,-0.36948 0.71647,-0.7502 1.12129,-1.14217 0.40482,-0.39358 0.81125,-0.76948 1.21928,-1.12772 0.41125,-0.35984 0.80001,-0.68434 1.16467,-0.97189 0.36466,-0.29076 0.68273,-0.52049 0.95422,-0.68916 0.098,-0.0643 0.22169,-0.13333 0.36787,-0.20562 0.15101,-0.0723 0.28274,-0.1253 0.4,-0.16065 0.13655,-0.045 0.26989,-0.0707 0.3984,-0.0803 0.13012,-0.01 0.28112,-0.0161 0.45302,-0.0161 0.037,0 0.037,0.01 0,0.0305 -0.1992,0.0434 -0.39679,0.12691 -0.59439,0.2506 -0.19759,0.12049 -0.35984,0.22972 -0.48514,0.32932 -0.30683,0.2249 -0.66667,0.50603 -1.0747,0.84499 -0.40964,0.33574 -0.83535,0.70361 -1.27712,1.1004 -0.44177,0.39679 -0.87068,0.7968 -1.28514,1.20162 -0.41446,0.40321 -0.77752,0.78233 -1.09238,1.13414 -0.0176,0.0177 -0.0241,0.0305 -0.0193,0.0385 0.005,0.01 0.0112,0.01 0.0193,0 0.17189,-0.14297 0.39197,-0.31325 0.66346,-0.51085 0.26988,-0.19758 0.55743,-0.39357 0.86426,-0.58634 0.30522,-0.19599 0.59599,-0.35663 0.87069,-0.48193 0.2747,-0.12531 0.5012,-0.18795 0.68273,-0.18795 z m 5.36228,0.10923 c -0.38715,0.3486 -0.76145,0.70041 -1.12129,1.05222 -0.36145,0.35181 -0.68113,0.67309 -0.96065,0.96546 -0.27791,0.29238 -0.4996,0.53334 -0.66185,0.7229 -0.17029,0.19759 -0.30683,0.37109 -0.41286,0.52049 -0.1028,0.14779 -0.15421,0.26666 -0.15421,0.35662 0,0.0819 0.045,0.12209 0.13494,0.12209 0.09,0 0.20883,-0.0434 0.35502,-0.12851 0.151,-0.0867 0.30683,-0.18474 0.46908,-0.29719 0.16225,-0.11245 0.30201,-0.21366 0.41928,-0.30362 0.21526,-0.17189 0.43695,-0.35823 0.66506,-0.56064 0.23133,-0.20242 0.42892,-0.37591 0.59117,-0.52049 0.0257,-0.0177 0.0578,-0.0353 0.0916,-0.053 0.0385,-0.0177 0.0707,-0.01 0.0964,0.0257 0.037,0.0353 0.0161,0.09 -0.0659,0.16225 -0.19759,0.18956 -0.41446,0.38233 -0.65061,0.57993 -0.23293,0.19759 -0.43534,0.36626 -0.60562,0.5012 -0.13494,0.10763 -0.28916,0.22651 -0.46587,0.35342 -0.1751,0.1253 -0.35181,0.23293 -0.52691,0.32289 -0.17671,0.09 -0.33092,0.13494 -0.46586,0.13494 -0.31647,0 -0.47391,-0.15261 -0.47391,-0.46104 0,-0.0996 0.0289,-0.22009 0.0884,-0.36306 0.0594,-0.14458 0.16064,-0.30361 0.30362,-0.4739 -0.38715,0.35181 -0.7743,0.65543 -1.16146,0.91246 -0.38714,0.25703 -0.68916,0.38554 -0.90602,0.38554 -0.30683,0 -0.45944,-0.14779 -0.45944,-0.44498 -0.008,-0.24418 0.0883,-0.54458 0.29076,-0.89961 0.20241,-0.35662 0.45784,-0.68755 0.76466,-0.99277 0.30683,-0.31486 0.65382,-0.60562 1.04579,-0.87069 0.39197,-0.26666 0.77591,-0.48032 1.15503,-0.63936 0.37751,-0.16385 0.69237,-0.24418 0.94619,-0.24418 0.1253,0 0.22811,0.0193 0.31004,0.0594 0.0803,0.0385 0.12209,0.11727 0.12209,0.23615 0,0.0707 -0.0273,0.16386 -0.0835,0.27791 -0.0514,0.11245 -0.15582,0.24418 -0.30843,0.39519 -0.01,0.0112 -0.0112,0.0193 -0.008,0.0241 0.005,0.003 0.0112,0.002 0.0209,-0.008 0.20884,-0.20883 0.41607,-0.38393 0.6233,-0.52691 0.20562,-0.14457 0.36305,-0.23453 0.47068,-0.26988 0.0723,-0.0273 0.14298,-0.0418 0.20884,-0.0466 0.0675,-0.005 0.13815,-0.006 0.21044,-0.006 z m -1.43134,0.21366 c 0,-0.098 -0.0546,-0.14779 -0.16224,-0.14779 -0.18957,0 -0.51085,0.16064 -0.96547,0.48193 -0.45623,0.31807 -1.00242,0.78394 -1.64339,1.39438 -0.33413,0.33414 -0.6249,0.66025 -0.87389,0.97672 -0.24579,0.31325 -0.36948,0.54779 -0.36948,0.69879 0,0.037 0.006,0.0691 0.0209,0.0948 0.0129,0.0273 0.0514,0.0402 0.11406,0.0402 0.11727,0 0.30683,-0.0803 0.56868,-0.24097 0.26024,-0.16224 0.56386,-0.38714 0.90924,-0.6763 0.34699,-0.28756 0.69719,-0.61206 1.049,-0.9719 0.16225,-0.16385 0.3502,-0.3502 0.56065,-0.56064 0.21044,-0.21205 0.39518,-0.41767 0.55421,-0.62008 0.15904,-0.20563 0.23775,-0.36145 0.23775,-0.46909 z m 5.67233,-0.29719 c -0.38716,0.35181 -0.75825,0.70844 -1.11487,1.06988 -0.35663,0.35824 -0.6731,0.68916 -0.95262,0.99278 -0.27952,0.3004 -0.50121,0.5494 -0.66345,0.7486 -0.16065,0.19759 -0.30041,0.3759 -0.41929,0.53334 -0.11565,0.15582 -0.17349,0.2747 -0.17349,0.35662 0,0.0819 0.045,0.12209 0.13494,0.12209 0.09,0 0.20884,-0.0402 0.35663,-0.12209 0.1494,-0.0819 0.3004,-0.17831 0.45462,-0.29076 0.15422,-0.11245 0.27952,-0.20402 0.37912,-0.27631 0.21526,-0.17992 0.44177,-0.37108 0.67952,-0.57349 0.23936,-0.20242 0.4498,-0.38073 0.62972,-0.53495 0.0353,-0.0177 0.0659,-0.0337 0.0916,-0.0466 0.0289,-0.0128 0.0562,-0.006 0.0835,0.0209 0.0466,0.045 0.0321,0.0948 -0.0401,0.14779 -0.1253,0.10763 -0.27148,0.23454 -0.43855,0.37912 -0.16707,0.14297 -0.32932,0.28112 -0.48836,0.41285 -0.15582,0.12852 -0.28273,0.23454 -0.38233,0.31647 -0.21687,0.16225 -0.45783,0.33414 -0.71808,0.51406 -0.26023,0.17992 -0.49317,0.26988 -0.7004,0.26988 -0.17992,0 -0.30362,-0.0418 -0.37269,-0.12852 -0.0675,-0.0851 -0.10121,-0.19598 -0.10121,-0.33253 0,-0.19759 0.0851,-0.44016 0.25703,-0.72932 -0.09,0.09 -0.17832,0.17028 -0.26346,0.23776 -0.0867,0.0691 -0.15582,0.12369 -0.20883,0.16867 -0.20884,0.17189 -0.45302,0.34538 -0.73254,0.52049 -0.27791,0.1767 -0.52209,0.26345 -0.72771,0.26345 -0.17189,0 -0.29077,-0.0385 -0.35663,-0.11406 -0.0675,-0.0771 -0.10281,-0.1751 -0.10281,-0.29076 0,-0.22651 0.09,-0.48675 0.27149,-0.77912 0.17992,-0.29237 0.42249,-0.60402 0.72771,-0.93656 0.18153,-0.18795 0.3968,-0.39357 0.64739,-0.61365 0.25222,-0.22169 0.50764,-0.42892 0.76467,-0.6233 0.25702,-0.19277 0.4755,-0.33896 0.65703,-0.43855 0.098,-0.0627 0.24096,-0.10763 0.4257,-0.13495 0.18474,-0.0289 0.3213,-0.0369 0.41125,-0.0257 -0.39518,0.3229 -0.78554,0.65864 -1.17109,1.00563 -0.38233,0.34538 -0.71968,0.66988 -1.01205,0.9735 -0.29237,0.3004 -0.52049,0.5494 -0.68273,0.7486 -0.16065,0.19759 -0.2972,0.3759 -0.40804,0.53333 -0.11566,0.15583 -0.17189,0.2747 -0.17189,0.35663 0,0.0819 0.0402,0.12209 0.12209,0.12209 0.09,0 0.21044,-0.0402 0.36305,-0.12209 0.15262,-0.0819 0.31165,-0.17831 0.4739,-0.29076 0.16225,-0.11246 0.2988,-0.21205 0.40643,-0.30362 0.11566,-0.09 0.26185,-0.21205 0.43856,-0.36948 0.1751,-0.15743 0.34217,-0.31647 0.49799,-0.4739 0.15743,-0.15904 0.2731,-0.27309 0.34538,-0.34378 0.18153,-0.18795 0.39679,-0.4 0.6474,-0.63293 0.25221,-0.23454 0.50602,-0.45783 0.75823,-0.66989 0.25221,-0.21204 0.46908,-0.37268 0.649,-0.48032 0.0707,-0.0466 0.18795,-0.0835 0.3502,-0.10923 0.16225,-0.0273 0.28916,-0.0353 0.37913,-0.0273 z m 7.53577,-3.6209 c -0.62811,0 -1.18555,0.13494 -1.66908,0.40643 -0.48032,0.26988 -0.99117,0.63132 -1.52932,1.08112 -0.24418,0.1976 -0.51888,0.44177 -0.82572,0.72933 -0.30522,0.28755 -0.61204,0.58635 -0.91887,0.89317 -0.30683,0.30523 -0.58153,0.58796 -0.82571,0.8482 0.12852,0 0.28434,0 0.46908,0 0.18474,0 0.36145,0.005 0.53012,0.0128 0.0209,0 0.0466,0.005 0.0771,0.0161 0.0305,0.01 0.0369,0.0353 0.0193,0.0803 -0.008,0.0257 -0.0289,0.0418 -0.0627,0.0482 -0.0305,0.005 -0.0675,0.008 -0.11244,0.008 -0.20563,0 -0.3984,0.002 -0.5735,0.006 -0.17671,0.003 -0.34056,0.01 -0.49479,0.0193 -0.31485,0.3502 -0.61365,0.68434 -0.89638,1.00562 -0.28434,0.31968 -0.58635,0.65382 -0.90764,1.00563 -0.31807,0.35181 -0.69398,0.75824 -1.1245,1.21768 -0.71326,0.75663 -1.45383,1.43936 -2.2233,2.05142 -0.76949,0.61365 -1.57431,1.10201 -2.41769,1.46667 -0.84178,0.36626 -1.73174,0.54779 -2.66829,0.54779 -0.81928,0 -1.46988,-0.16064 -1.95181,-0.48193 -0.48193,-0.31807 -0.74539,-0.69397 -0.79198,-1.12771 -0.0257,-0.2233 -0.003,-0.34057 0.0691,-0.3486 0.0353,-0.01 0.0578,0.006 0.0659,0.045 0.01,0.0402 0.0176,0.0964 0.0273,0.16867 0.0643,0.45141 0.33253,0.81768 0.80482,1.10202 0.4723,0.28273 1.06025,0.42571 1.76065,0.42571 0.66828,0 1.29961,-0.11406 1.89399,-0.34057 0.59277,-0.2233 1.15985,-0.5253 1.70121,-0.90282 0.54137,-0.37911 1.05382,-0.79679 1.54058,-1.25623 0.48514,-0.46104 0.9494,-0.9237 1.39116,-1.39277 0.21527,-0.23294 0.41929,-0.45463 0.61366,-0.66668 0.19278,-0.21204 0.3984,-0.43534 0.61366,-0.66827 0.21687,-0.23615 0.46747,-0.50442 0.75181,-0.80482 0.28273,-0.30201 0.61848,-0.65382 1.00563,-1.05864 -0.09,-0.01 -0.23454,-0.0113 -0.43213,-0.006 -0.19759,0.003 -0.34217,0.006 -0.43213,0.006 -0.0723,0 -0.10924,-0.0241 -0.10924,-0.0691 0,-0.0273 0.0161,-0.0466 0.0466,-0.0594 0.0337,-0.0145 0.0578,-0.0209 0.0755,-0.0209 0.0819,-0.0112 0.22972,-0.0161 0.44659,-0.0161 0.21526,0 0.40321,-0.005 0.56707,-0.0128 0.10763,-0.11727 0.26667,-0.28434 0.47711,-0.50442 0.21365,-0.22169 0.45944,-0.46747 0.73896,-0.73575 0.27952,-0.26988 0.57189,-0.54297 0.87711,-0.81767 0.30683,-0.2747 0.61366,-0.52209 0.92049,-0.73896 0.53012,-0.39518 1.0988,-0.72129 1.70603,-0.97671 0.60884,-0.25703 1.22411,-0.38555 1.84579,-0.38555 0.48675,0 0.88837,0.0723 1.20804,0.21687 0.31968,0.14298 0.48033,0.33575 0.48033,0.57832 0,0.09 -0.0353,0.1494 -0.10764,0.17831 -0.0353,0.008 -0.0787,-0.0161 -0.12851,-0.0739 -0.0498,-0.0578 -0.0964,-0.10763 -0.14297,-0.14458 -0.12531,-0.1253 -0.30041,-0.249 -0.52691,-0.36948 -0.2249,-0.12209 -0.50763,-0.18474 -0.85141,-0.18474 z m 2.31006,0 c -0.62812,0 -1.18555,0.13494 -1.66909,0.40643 -0.48193,0.26988 -0.99117,0.63132 -1.52932,1.08112 -0.24418,0.1976 -0.51888,0.44177 -0.82571,0.72933 -0.30522,0.28755 -0.61205,0.58635 -0.92048,0.89317 -0.30523,0.30523 -0.57993,0.58796 -0.82411,0.8482 0.12852,0 0.28434,0 0.46908,0 0.18474,0 0.36145,0.005 0.53012,0.0128 0.0209,0 0.045,0.005 0.0771,0.0161 0.0305,0.01 0.0369,0.0353 0.0193,0.0803 -0.01,0.0257 -0.0305,0.0418 -0.0627,0.0482 -0.0305,0.005 -0.0691,0.008 -0.11245,0.008 -0.20723,0 -0.3984,0.002 -0.57349,0.006 -0.17671,0.003 -0.34057,0.01 -0.49479,0.0193 -0.31486,0.3502 -0.61366,0.68434 -0.898,1.00562 -0.28273,0.31968 -0.58473,0.65382 -0.90602,1.00563 -0.31968,0.35181 -0.69398,0.75824 -1.1245,1.21768 -0.71326,0.75663 -1.45383,1.43936 -2.22331,2.05142 -0.76948,0.61365 -1.57591,1.10201 -2.41769,1.46667 -0.84177,0.36626 -1.73173,0.54779 -2.66828,0.54779 -0.81928,0 -1.46989,-0.16064 -1.95182,-0.48193 -0.48193,-0.31807 -0.74538,-0.69397 -0.79197,-1.12771 -0.0257,-0.2233 -0.003,-0.34057 0.0691,-0.3486 0.0353,-0.01 0.0578,0.006 0.0659,0.045 0.01,0.0402 0.0176,0.0964 0.0273,0.16867 0.0626,0.45141 0.33092,0.81768 0.80482,1.10202 0.47229,0.28273 1.05864,0.42571 1.76065,0.42571 0.66827,0 1.29961,-0.11406 1.89238,-0.34057 0.59438,-0.2233 1.16145,-0.5253 1.70282,-0.90282 0.53976,-0.37911 1.05382,-0.79679 1.54057,-1.25623 0.48514,-0.46104 0.9494,-0.9237 1.39117,-1.39277 0.21526,-0.23294 0.41928,-0.45463 0.61366,-0.66668 0.19277,-0.21204 0.39839,-0.43534 0.61366,-0.66827 0.21687,-0.23615 0.46747,-0.50442 0.75181,-0.80482 0.28273,-0.30201 0.61847,-0.65382 1.00563,-1.05864 -0.09,-0.01 -0.23455,-0.0113 -0.43213,-0.006 -0.1976,0.003 -0.34217,0.006 -0.43214,0.006 -0.0723,0 -0.10923,-0.0241 -0.10923,-0.0691 0,-0.0273 0.0161,-0.0466 0.0466,-0.0594 0.0337,-0.0145 0.0578,-0.0209 0.0755,-0.0209 0.0819,-0.0112 0.22972,-0.0161 0.44498,-0.0161 0.21687,0 0.40482,-0.005 0.56868,-0.0128 0.10763,-0.11727 0.26666,-0.28434 0.4771,-0.50442 0.21366,-0.22169 0.45944,-0.46747 0.73897,-0.73575 0.27952,-0.26988 0.57189,-0.54297 0.87711,-0.81767 0.30522,-0.2747 0.61205,-0.52209 0.92048,-0.73896 0.53013,-0.39518 1.09881,-0.72129 1.70443,-0.97671 0.61045,-0.25703 1.22571,-0.38555 1.8474,-0.38555 0.48675,0 0.88836,0.0723 1.20804,0.21687 0.31968,0.14298 0.48032,0.33575 0.48032,0.57832 0,0.09 -0.0353,0.1494 -0.10763,0.17831 -0.0353,0.008 -0.0787,-0.0161 -0.13012,-0.0739 -0.0482,-0.0578 -0.0948,-0.10763 -0.14137,-0.14458 -0.1253,-0.1253 -0.3004,-0.249 -0.52691,-0.36948 -0.2249,-0.12209 -0.50763,-0.18474 -0.8514,-0.18474 z m -4.91569,5.28356 c -0.2249,0.20723 -0.44498,0.43213 -0.66346,0.67631 -0.21526,0.24257 -0.39518,0.4755 -0.54137,0.70201 -0.14297,0.2249 -0.21366,0.40964 -0.21366,0.55422 0,0.17832 0.10282,0.26827 0.31005,0.26827 0.13655,0 0.30683,-0.0401 0.51406,-0.11887 0.20723,-0.0819 0.42249,-0.19438 0.64739,-0.34057 0.3245,-0.20562 0.64258,-0.43855 0.95262,-0.69558 0.31004,-0.25703 0.551,-0.46105 0.72129,-0.61366 0.0466,-0.0466 0.0916,-0.0819 0.13654,-0.10924 0.045,-0.0257 0.0819,-0.0257 0.10764,0 0.0273,0.0273 0.0289,0.0594 0.006,0.0964 -0.0209,0.0353 -0.045,0.0659 -0.0723,0.0916 -0.22651,0.20884 -0.47069,0.41928 -0.73093,0.63133 -0.26024,0.21045 -0.53976,0.41928 -0.83856,0.62651 -0.2249,0.15261 -0.4755,0.2988 -0.75502,0.43535 -0.27952,0.13333 -0.5494,0.2008 -0.81125,0.2008 -0.16064,0 -0.31647,-0.0402 -0.46587,-0.12209 -0.14939,-0.0819 -0.22329,-0.25381 -0.22329,-0.51406 0,-0.18152 0.0675,-0.43213 0.20402,-0.75663 0.13494,-0.32289 0.41767,-0.69237 0.85141,-1.10683 0.30522,-0.28916 0.63775,-0.55422 0.9992,-0.79519 0.35984,-0.24418 0.70843,-0.44176 1.04579,-0.59438 0.33735,-0.15261 0.61526,-0.22972 0.83052,-0.22972 0.13655,0 0.23776,0.0305 0.30362,0.0948 0.0675,0.061 0.10281,0.14137 0.10281,0.24097 0,0.14458 -0.0739,0.30201 -0.21847,0.46908 -0.14298,0.16385 -0.30844,0.31004 -0.498,0.43534 -0.21526,0.14458 -0.45783,0.26828 -0.72932,0.37269 -0.26988,0.10281 -0.50924,0.15422 -0.71486,0.15422 -0.0996,0 -0.18474,-0.0177 -0.25703,-0.053 z m 0.0948,-0.0948 c 0.0353,0.0177 0.0707,0.0257 0.10602,0.0257 0.13655,0 0.33254,-0.053 0.58635,-0.16225 0.25703,-0.10763 0.51246,-0.26345 0.76627,-0.47068 0.18796,-0.15422 0.34057,-0.3004 0.45783,-0.43856 0.11888,-0.14137 0.17832,-0.25221 0.17832,-0.33414 0,-0.0514 -0.0321,-0.0787 -0.0964,-0.0787 -0.09,0 -0.25703,0.0787 -0.5012,0.23775 -0.24097,0.15583 -0.4996,0.34699 -0.77431,0.5735 -0.2747,0.2249 -0.51566,0.44016 -0.72289,0.64739 z m 6.63297,-1.56788 c -0.38716,0.35181 -0.75985,0.70844 -1.11487,1.06988 -0.35663,0.35824 -0.6747,0.68916 -0.95422,0.99278 -0.27792,0.3004 -0.4996,0.5494 -0.66185,0.7486 -0.16065,0.19759 -0.30041,0.3759 -0.41928,0.53334 -0.11727,0.15582 -0.17511,0.2747 -0.17511,0.35662 0,0.0819 0.045,0.12209 0.13495,0.12209 0.09,0 0.20883,-0.0402 0.35663,-0.12209 0.14939,-0.0819 0.302,-0.17831 0.45461,-0.29076 0.15422,-0.11245 0.28113,-0.20402 0.37913,-0.27631 0.21686,-0.17992 0.44337,-0.37108 0.67952,-0.57349 0.24096,-0.20242 0.4498,-0.38073 0.63132,-0.53495 0.0337,-0.0177 0.0659,-0.0337 0.0916,-0.0466 0.0289,-0.0128 0.0562,-0.006 0.0819,0.0209 0.0466,0.045 0.0337,0.0948 -0.0385,0.14779 -0.1253,0.10763 -0.27148,0.23454 -0.43855,0.37912 -0.16707,0.14297 -0.33093,0.28112 -0.48836,0.41285 -0.15582,0.12852 -0.28434,0.23454 -0.38233,0.31647 -0.21847,0.16225 -0.45783,0.33414 -0.71968,0.51406 -0.25864,0.17992 -0.49157,0.26988 -0.6988,0.26988 -0.17992,0 -0.30522,-0.0418 -0.37269,-0.12852 -0.0691,-0.0851 -0.10282,-0.19598 -0.10282,-0.33253 0,-0.19759 0.0868,-0.44016 0.25703,-0.72932 -0.09,0.09 -0.1767,0.17028 -0.26345,0.23776 -0.0851,0.0691 -0.15422,0.12369 -0.20723,0.16867 -0.20884,0.17189 -0.45302,0.34538 -0.73254,0.52049 -0.27951,0.1767 -0.52208,0.26345 -0.72932,0.26345 -0.17028,0 -0.28916,-0.0385 -0.35502,-0.11406 -0.0691,-0.0771 -0.10281,-0.1751 -0.10281,-0.29076 0,-0.22651 0.09,-0.48675 0.26988,-0.77912 0.18153,-0.29237 0.4241,-0.60402 0.72932,-0.93656 0.17992,-0.18795 0.39519,-0.39357 0.64579,-0.61365 0.25382,-0.22169 0.50924,-0.42892 0.76627,-0.6233 0.25703,-0.19277 0.47551,-0.33896 0.65543,-0.43855 0.0996,-0.0627 0.24096,-0.10763 0.4257,-0.13495 0.18474,-0.0289 0.32289,-0.0369 0.41285,-0.0257 -0.39679,0.3229 -0.78715,0.65864 -1.17109,1.00563 -0.38233,0.34538 -0.71968,0.66988 -1.01205,0.9735 -0.29238,0.3004 -0.52048,0.5494 -0.68273,0.7486 -0.16065,0.19759 -0.2972,0.3759 -0.40965,0.53333 -0.11405,0.15583 -0.17189,0.2747 -0.17189,0.35663 0,0.0819 0.0418,0.12209 0.12209,0.12209 0.09,0 0.21206,-0.0402 0.36306,-0.12209 0.15422,-0.0819 0.31165,-0.17831 0.4755,-0.29076 0.16225,-0.11246 0.29719,-0.21205 0.40483,-0.30362 0.11726,-0.09 0.26345,-0.21205 0.43855,-0.36948 0.17671,-0.15743 0.34217,-0.31647 0.498,-0.4739 0.15903,-0.15904 0.2747,-0.27309 0.34698,-0.34378 0.17992,-0.18795 0.39519,-0.4 0.64579,-0.63293 0.25382,-0.23454 0.50603,-0.45783 0.75824,-0.66989 0.25381,-0.21204 0.47068,-0.37268 0.65061,-0.48032 0.0707,-0.0466 0.18634,-0.0835 0.35019,-0.10923 0.16225,-0.0273 0.28917,-0.0353 0.37913,-0.0273 z m 1.22891,3.50042 c -0.2265,0.151 -0.43855,0.27952 -0.63614,0.38554 -0.1976,0.10281 -0.3743,0.15422 -0.52691,0.15422 -0.31486,0 -0.47229,-0.16225 -0.47229,-0.48675 0,-0.27952 0.12369,-0.58153 0.36948,-0.90442 0.24899,-0.32611 0.58474,-0.6731 1.00884,-1.04257 0.17188,-0.15101 0.34859,-0.31005 0.53173,-0.47712 0.18474,-0.16707 0.34217,-0.31646 0.47068,-0.44659 0.13173,-0.13172 0.19438,-0.21847 0.18474,-0.26345 -0.008,-0.0546 -0.0353,-0.0916 -0.0819,-0.10924 -0.0434,-0.0177 -0.11567,-0.0482 -0.21527,-0.0916 -0.11566,-0.0643 -0.19759,-0.1237 -0.24257,-0.17832 -0.14297,0.16225 -0.3004,0.32932 -0.47229,0.50121 -0.17189,0.17189 -0.34699,0.34699 -0.52852,0.52851 -0.24097,0.2233 -0.50763,0.46908 -0.79679,0.73414 -0.28916,0.26667 -0.52691,0.47551 -0.71647,0.62812 -0.0257,0.0273 -0.0562,0.0466 -0.0916,0.0546 -0.0385,0.01 -0.0659,0 -0.0835,-0.0289 -0.0176,-0.0257 -0.0176,-0.0546 0,-0.0851 0.0176,-0.0337 0.0418,-0.0594 0.0691,-0.0771 0.21686,-0.18796 0.45944,-0.40322 0.72932,-0.64579 0.27149,-0.24418 0.52209,-0.47872 0.75502,-0.70201 0.22651,-0.20884 0.4241,-0.4 0.59438,-0.5751 0.17189,-0.17511 0.32932,-0.3486 0.4739,-0.52049 0,-0.0996 0.0498,-0.21526 0.1494,-0.3502 0.098,-0.13494 0.2249,-0.26185 0.37911,-0.37912 0.12531,-0.09 0.24258,-0.15903 0.35021,-0.20723 0.10763,-0.0498 0.19759,-0.0803 0.26988,-0.0884 0.0257,-0.01 0.0739,-0.0177 0.14137,-0.0273 0.0691,-0.0112 0.13333,-0.0161 0.19438,-0.0161 0.13654,0 0.20562,0.0193 0.20562,0.0562 0,0.0257 -0.0578,0.0803 -0.17189,0.16065 -0.11245,0.0819 -0.23615,0.16064 -0.36948,0.23775 -0.13494,0.0755 -0.23293,0.13172 -0.29719,0.16867 -0.14458,0.09 -0.27952,0.17993 -0.40482,0.26989 -0.1253,0.09 -0.18796,0.17028 -0.18796,0.24096 0,0.037 0.045,0.0771 0.13495,0.11888 0.09,0.0401 0.15743,0.0675 0.2008,0.0851 0.25221,0.0819 0.37912,0.20883 0.37912,0.38072 0,0.17671 -0.0675,0.36788 -0.20402,0.5735 -0.13494,0.20241 -0.29558,0.4 -0.48514,0.59277 -0.18956,0.19438 -0.35984,0.36145 -0.51406,0.50442 -0.2506,0.23615 -0.47069,0.44338 -0.66024,0.6233 -0.18956,0.18153 -0.347,0.34699 -0.4739,0.498 -0.14298,0.17188 -0.21527,0.30682 -0.21527,0.40642 0,0.09 0.0546,0.13494 0.16225,0.13494 0.12531,0 0.29719,-0.0643 0.51727,-0.19438 0.2217,-0.13173 0.40483,-0.24739 0.5478,-0.34698 0.23454,-0.16868 0.48836,-0.36788 0.75824,-0.59599 0.26988,-0.23133 0.49639,-0.41928 0.6763,-0.56386 0.0257,-0.0273 0.0562,-0.0482 0.0916,-0.0659 0.0385,-0.0209 0.0691,-0.0161 0.0964,0.0128 0.0353,0.0353 0.0337,0.0739 -0.003,0.11566 -0.0353,0.0385 -0.0707,0.0723 -0.10603,0.098 -0.20723,0.18153 -0.44337,0.38233 -0.70843,0.60402 -0.26667,0.22008 -0.5253,0.41928 -0.77591,0.60081 z m 0,0"
         stroke="#000000"
         stroke-width="0.743095"
         stroke-opacity="1"
         stroke-miterlimit="4"
         id="path41365" />
      <g
         fill="#f9de7f"
         fill-opacity="1"
         id="g41373"
         transform="matrix(0.4112473,0,0,0.4112473,62.957923,107.37317)">
        <g
           transform="translate(159.76259,210.64793)"
           id="g41371">
          <g
             id="g41369">
            <path
               d="m 36.59375,-18.234375 c 0,0.292969 -0.121094,0.53125 -0.359375,0.71875 -0.230469,0.179687 -0.507813,0.265625 -0.828125,0.265625 -0.679688,0 -1.460938,-0.09375 -2.34375,-0.28125 -0.886719,-0.195312 -1.683594,-0.375 -2.390625,-0.53125 -0.585937,-0.132812 -1.214844,-0.285156 -1.890625,-0.453125 -0.667969,-0.175781 -1.382812,-0.320313 -2.140625,-0.4375 -1.605469,0.617187 -3.246094,1.4375 -4.921875,2.46875 -1.667969,1.03125 -3.292969,2.226563 -4.875,3.578125 -1.117188,0.960938 -2.171875,1.980469 -3.171875,3.0625 -0.992187,1.085938 -1.867187,2.15625 -2.625,3.21875 -0.75,1.0625 -1.339844,2.078125 -1.765625,3.046875 -0.429688,0.960937 -0.640625,1.804687 -0.640625,2.53125 0,0.761719 0.253906,1.375 0.765625,1.84375 0.519531,0.476563 1.328125,0.707031 2.421875,0.6875 1.09375,-0.054687 2.242187,-0.304687 3.453125,-0.75 1.21875,-0.449219 2.332031,-1 3.34375,-1.65625 0.757812,-0.5 1.484375,-1.003906 2.171875,-1.515625 0.695313,-0.519531 1.363281,-1.054688 2,-1.609375 0.08203,-0.0625 0.1875,-0.140625 0.3125,-0.234375 0.132813,-0.101562 0.238281,-0.117188 0.3125,-0.046875 0.08203,0.085937 0.09375,0.179687 0.03125,0.28125 -0.0625,0.09375 -0.152344,0.183594 -0.265625,0.265625 -0.636719,0.53125 -1.335938,1.101562 -2.09375,1.703125 -0.75,0.59375 -1.511719,1.121094 -2.28125,1.578125 C 17.738281,0.1875 16.609375,0.765625 15.421875,1.234375 14.242188,1.703125 13.023438,1.957031 11.765625,2 10.691406,2.019531 9.742188,1.804688 8.921875,1.359375 8.097656,0.910156 7.566406,0.21875 7.328125,-0.71875 7.171875,-0.65625 7,-0.613281 6.8125,-0.59375 6.625,-0.570312 6.441406,-0.5625 6.265625,-0.5625 c -1.679687,0 -2.992187,-0.507812 -3.9375,-1.53125 -0.9375,-1.03125 -1.40625,-2.507812 -1.40625,-4.4375 0,-1.382812 0.273437,-2.742188 0.828125,-4.078125 0.5625,-1.332031 1.320312,-2.5625 2.28125,-3.6875 0.96875,-1.132813 2.03125,-2.09375 3.1875,-2.875 1.78125,-1.1875 3.679688,-2.050781 5.703125,-2.59375 2.03125,-0.550781 4.210937,-0.828125 6.546875,-0.828125 1.207031,0 2.367188,0.07813 3.484375,0.234375 1.125,0.148437 2.222656,0.355469 3.296875,0.625 1,-0.3125 2.019531,-0.535156 3.0625,-0.671875 1.039062,-0.144531 2.03125,-0.207031 2.96875,-0.1875 1.226562,0.04297 2.253906,0.273438 3.078125,0.6875 0.820313,0.417969 1.234375,0.976562 1.234375,1.671875 z m -0.359375,0 c 0,-0.632813 -0.390625,-1.113281 -1.171875,-1.4375 -0.78125,-0.332031 -1.710938,-0.5 -2.78125,-0.5 -0.679688,0 -1.429688,0.05859 -2.25,0.171875 -0.824219,0.105469 -1.636719,0.304688 -2.4375,0.59375 0.539062,0.125 1.097656,0.273438 1.671875,0.4375 0.570313,0.167969 1.085937,0.3125 1.546875,0.4375 0.695312,0.179688 1.460938,0.375 2.296875,0.59375 0.832031,0.21875 1.578125,0.328125 2.234375,0.328125 0.59375,0 0.890625,-0.207031 0.890625,-0.625 z m -11.3125,-0.953125 c -1.636719,-0.1875 -3.453125,-0.28125 -5.453125,-0.28125 -2.167969,0 -4.199219,0.214844 -6.09375,0.640625 -1.886719,0.417969 -3.742188,1.210937 -5.5625,2.375 -1.25,0.792969 -2.351562,1.726563 -3.296875,2.796875 -0.949219,1.074219 -1.695313,2.214844 -2.234375,3.421875 -0.53125,1.199219 -0.796875,2.40625 -0.796875,3.625 0,1.886719 0.4375,3.296875 1.3125,4.234375 0.875,0.929688 2.046875,1.390625 3.515625,1.390625 0.144531,0 0.304688,-0.007813 0.484375,-0.03125 0.175781,-0.019531 0.34375,-0.050781 0.5,-0.09375 C 7.222656,-2.097656 7.375,-3.125 7.75,-4.1875 8.125,-5.25 8.644531,-6.304688 9.3125,-7.359375 c 0.664062,-1.050781 1.425781,-2.050781 2.28125,-3 0.851562,-0.957031 1.71875,-1.804687 2.59375,-2.546875 1.625,-1.382812 3.363281,-2.601562 5.21875,-3.65625 1.863281,-1.0625 3.703125,-1.9375 5.515625,-2.625 z m 0,0"
               id="path41367" />
          </g>
        </g>
      </g>
      <g
         fill="#f9de7f"
         fill-opacity="1"
         id="g41381"
         transform="matrix(0.4112473,0,0,0.4112473,62.957923,107.37317)">
        <g
           transform="translate(182.65607,210.64793)"
           id="g41379">
          <g
             id="g41377">
            <path
               d="m 10.546875,-9.65625 c 0.363281,0 0.628906,0.089844 0.796875,0.265625 0.164062,0.179687 0.25,0.375 0.25,0.59375 0,0.386719 -0.179688,0.824219 -0.53125,1.3125 -0.34375,0.480469 -0.757812,0.960937 -1.234375,1.4375 -0.46875,0.480469 -0.898437,0.898437 -1.28125,1.25 -0.53125,0.480469 -1.015625,0.933594 -1.453125,1.359375 -0.4375,0.429688 -0.835938,0.828125 -1.1875,1.203125 -0.417969,0.4375 -0.71875,0.78125 -0.90625,1.03125 -0.179688,0.25 -0.265625,0.464844 -0.265625,0.640625 0,0.21875 0.117187,0.328125 0.359375,0.328125 0.257812,0 0.640625,-0.125 1.140625,-0.375 0.507813,-0.25 1.035156,-0.570313 1.578125,-0.96875 0.570312,-0.414063 1.191406,-0.898437 1.859375,-1.453125 0.664063,-0.5625 1.21875,-1.019531 1.65625,-1.375 0.0625,-0.0625 0.132813,-0.113281 0.21875,-0.15625 0.09375,-0.039062 0.175781,-0.03125 0.25,0.03125 0.08203,0.085938 0.07813,0.179688 -0.01563,0.28125 -0.08594,0.09375 -0.167969,0.179688 -0.25,0.25 -0.511719,0.4375 -1.089844,0.929688 -1.734375,1.46875 -0.648437,0.53125 -1.273437,1.015625 -1.875,1.453125 -0.59375,0.417969 -1.171875,0.75 -1.734375,1 -0.554688,0.25 -1.027344,0.375 -1.421875,0.375 -0.792969,0 -1.1875,-0.3945312 -1.1875,-1.1875 0,-0.519531 0.238281,-1.117187 0.71875,-1.796875 C 4.710938,-3.257812 5.117188,-3.75 5.515625,-4.15625 5.910156,-4.5625 6.445312,-5.070312 7.125,-5.6875 7.363281,-5.925781 7.671875,-6.195312 8.046875,-6.5 c 0.375,-0.3125 0.742187,-0.628906 1.109375,-0.953125 0.375,-0.332031 0.6875,-0.628906 0.9375,-0.890625 0.257812,-0.257812 0.390625,-0.46875 0.390625,-0.625 0,-0.125 -0.07813,-0.1875 -0.234375,-0.1875 -0.292969,0 -0.765625,0.167969 -1.421875,0.5 -0.65625,0.324219 -1.398437,0.746094 -2.21875,1.265625 -0.8125,0.523437 -1.601563,1.0625 -2.359375,1.625 -0.75,0.5625 -1.371094,1.074219 -1.859375,1.53125 -0.542969,0.5 -1.015625,0.96875 -1.421875,1.40625 -0.40625,0.4375 -0.824219,0.90625 -1.25,1.40625 -0.425781,0.492187 -0.925781,1.105469 -1.5,1.84375 -0.125,0 -0.222656,-0.078125 -0.296875,-0.234375 -0.082031,-0.1484375 -0.125,-0.316406 -0.125,-0.515625 0,-0.238281 0.203125,-0.6875 0.609375,-1.34375 0.40625,-0.65625 0.960938,-1.425781 1.65625,-2.3125 0.695312,-0.894531 1.472656,-1.789063 2.328125,-2.6875 C 3.222656,-7.566406 4.132812,-8.488281 5.125,-9.4375 c 0.988281,-0.957031 1.976562,-1.875 2.96875,-2.75 1,-0.875 1.941406,-1.660156 2.828125,-2.359375 0.882813,-0.695313 1.65625,-1.253906 2.3125,-1.671875 0.238281,-0.15625 0.539063,-0.320312 0.90625,-0.5 0.363281,-0.175781 0.6875,-0.304688 0.96875,-0.390625 0.320313,-0.113281 0.640625,-0.179687 0.953125,-0.203125 0.320312,-0.01953 0.691406,-0.03125 1.109375,-0.03125 0.09375,0 0.09375,0.02344 0,0.0625 -0.480469,0.117188 -0.960937,0.324219 -1.4375,0.625 -0.480469,0.292969 -0.875,0.558594 -1.1875,0.796875 -0.742187,0.542969 -1.609375,1.226563 -2.609375,2.046875 -1,0.824219 -2.039062,1.71875 -3.109375,2.6875 -1.074219,0.960938 -2.117187,1.933594 -3.125,2.921875 -1,0.980469 -1.886719,1.898437 -2.65625,2.75 C 3.003906,-5.410156 2.988281,-5.378906 3,-5.359375 c 0.00781,0.023437 0.023438,0.023437 0.046875,0 C 3.460938,-5.703125 4,-6.113281 4.65625,-6.59375 5.320312,-7.082031 6.023438,-7.5625 6.765625,-8.03125 7.503906,-8.5 8.207031,-8.882812 8.875,-9.1875 9.550781,-9.5 10.109375,-9.65625 10.546875,-9.65625 Z m 0,0"
               id="path41375" />
          </g>
        </g>
      </g>
      <g
         fill="#f9de7f"
         fill-opacity="1"
         id="g41389"
         transform="matrix(0.4112473,0,0,0.4112473,62.957923,107.37317)">
        <g
           transform="translate(193.62655,210.64793)"
           id="g41387">
          <g
             id="g41385">
            <path
               d="m 12.609375,-9.390625 c -0.9375,0.855469 -1.84375,1.710937 -2.71875,2.5625 -0.875,0.855469 -1.65625,1.636719 -2.34375,2.34375 C 6.867188,-3.773438 6.332031,-3.1875 5.9375,-2.71875 c -0.40625,0.480469 -0.742188,0.902344 -1,1.265625 -0.25,0.355469 -0.375,0.640625 -0.375,0.859375 0,0.199219 0.109375,0.296875 0.328125,0.296875 0.21875,0 0.507813,-0.101563 0.875,-0.3125 0.363281,-0.207031 0.738281,-0.445313 1.125,-0.71875 0.394531,-0.269531 0.738281,-0.515625 1.03125,-0.734375 0.519531,-0.414062 1.054687,-0.867188 1.609375,-1.359375 0.5625,-0.5 1.039062,-0.925781 1.4375,-1.28125 0.0625,-0.039063 0.132812,-0.082031 0.21875,-0.125 0.09375,-0.039063 0.171875,-0.019531 0.234375,0.0625 0.09375,0.09375 0.03906,0.226563 -0.15625,0.390625 C 10.785156,-3.90625 10.257812,-3.429688 9.6875,-2.953125 9.113281,-2.472656 8.625,-2.066406 8.21875,-1.734375 7.882812,-1.472656 7.503906,-1.1875 7.078125,-0.875 6.648438,-0.570312 6.222656,-0.3125 5.796875,-0.09375 5.367188,0.125 4.988281,0.234375 4.65625,0.234375 c -0.761719,0 -1.140625,-0.375 -1.140625,-1.125 0,-0.238281 0.066406,-0.53125 0.203125,-0.875 0.144531,-0.351563 0.394531,-0.738281 0.75,-1.15625 -0.949219,0.855469 -1.890625,1.59375 -2.828125,2.21875 -0.9375,0.625 -1.671875,0.9375 -2.203125,0.9375 -0.738281,0 -1.109375,-0.363281 -1.109375,-1.09375 -0.019531,-0.582031 0.214844,-1.304687 0.703125,-2.171875 0.492188,-0.863281 1.109375,-1.671875 1.859375,-2.421875 0.738281,-0.769531 1.582031,-1.476563 2.53125,-2.125 0.957031,-0.644531 1.894531,-1.160156 2.8125,-1.546875 0.925781,-0.394531 1.695313,-0.59375 2.3125,-0.59375 0.300781,0 0.550781,0.054688 0.75,0.15625 0.195313,0.09375 0.296875,0.28125 0.296875,0.5625 0,0.179688 -0.070312,0.402344 -0.203125,0.671875 -0.125,0.273437 -0.375,0.59375 -0.75,0.96875 C 8.617188,-7.335938 8.613281,-7.320312 8.625,-7.3125 c 0.00781,0.011719 0.023438,0.00781 0.046875,-0.015625 0.5,-0.5 1,-0.921875 1.5,-1.265625 0.507813,-0.351562 0.894531,-0.578125 1.15625,-0.671875 0.175781,-0.0625 0.347656,-0.097656 0.515625,-0.109375 0.164062,-0.00781 0.332031,-0.015625 0.5,-0.015625 z M 9.125,-8.875 c 0,-0.238281 -0.132812,-0.359375 -0.390625,-0.359375 -0.460937,0 -1.242187,0.390625 -2.34375,1.171875 -1.105469,0.78125 -2.4375,1.917969 -4,3.40625 -0.804687,0.804688 -1.507813,1.589844 -2.109375,2.359375 -0.601562,0.761719 -0.90625,1.328125 -0.90625,1.703125 0,0.09375 0.015625,0.171875 0.046875,0.234375 0.03125,0.0625 0.125,0.09375 0.28125,0.09375 0.28125,0 0.738281,-0.191406 1.375,-0.578125 0.632813,-0.394531 1.375,-0.941406 2.21875,-1.640625 0.84375,-0.707031 1.691406,-1.5 2.546875,-2.375 0.394531,-0.394531 0.847656,-0.847656 1.359375,-1.359375 0.519531,-0.519531 0.96875,-1.023438 1.34375,-1.515625 C 8.929688,-8.222656 9.125,-8.601562 9.125,-8.875 Z m 0,0"
               id="path41383" />
          </g>
        </g>
      </g>
      <g
         fill="#f9de7f"
         fill-opacity="1"
         id="g41397"
         transform="matrix(0.4112473,0,0,0.4112473,62.957923,107.37317)">
        <g
           transform="translate(203.94012,210.64793)"
           id="g41395">
          <g
             id="g41393">
            <path
               d="M 12.609375,-9.59375 C 11.671875,-8.738281 10.769531,-7.875 9.90625,-7 c -0.867188,0.875 -1.640625,1.683594 -2.328125,2.421875 -0.679687,0.730469 -1.210937,1.335937 -1.59375,1.8125 -0.398437,0.492187 -0.742187,0.929687 -1.03125,1.3125 -0.28125,0.375 -0.421875,0.664063 -0.421875,0.859375 0,0.199219 0.109375,0.296875 0.328125,0.296875 0.21875,0 0.503906,-0.097656 0.859375,-0.296875 0.363281,-0.195312 0.734375,-0.429688 1.109375,-0.703125 0.375,-0.269531 0.679687,-0.492187 0.921875,-0.671875 0.53125,-0.4375 1.082031,-0.898438 1.65625,-1.390625 0.582031,-0.5 1.09375,-0.929687 1.53125,-1.296875 0.08203,-0.050781 0.15625,-0.09375 0.21875,-0.125 0.07031,-0.03125 0.140625,-0.015625 0.203125,0.046875 0.113281,0.117187 0.08203,0.234375 -0.09375,0.359375 -0.304687,0.273438 -0.65625,0.585938 -1.0625,0.9375 -0.40625,0.34375 -0.804687,0.679688 -1.1875,1 -0.386719,0.3125 -0.699219,0.570312 -0.9375,0.765625 -0.523437,0.398437 -1.101563,0.8125 -1.734375,1.25 -0.636719,0.4375 -1.210938,0.65625 -1.71875,0.65625 -0.4375,0 -0.742188,-0.105469 -0.90625,-0.3125 -0.15625,-0.207031 -0.234375,-0.476563 -0.234375,-0.8125 0,-0.476563 0.207031,-1.066406 0.625,-1.765625 -0.21875,0.21875 -0.433594,0.414062 -0.640625,0.578125 -0.210938,0.15625 -0.382812,0.292969 -0.515625,0.40625 -0.5,0.417969 -1.089844,0.839844 -1.765625,1.265625 -0.679688,0.4257812 -1.2695312,0.640625 -1.78125,0.640625 -0.414062,0 -0.703125,-0.09375 -0.859375,-0.28125 -0.164063,-0.1875 -0.25,-0.421875 -0.25,-0.703125 0,-0.550781 0.21875,-1.179688 0.65625,-1.890625 0.4375,-0.71875 1.0273438,-1.476563 1.765625,-2.28125 C 1.15625,-5.378906 1.679688,-5.875 2.296875,-6.40625 2.910156,-6.945312 3.53125,-7.453125 4.15625,-7.921875 4.78125,-8.398438 5.3125,-8.757812 5.75,-9 c 0.238281,-0.15625 0.582031,-0.265625 1.03125,-0.328125 0.445312,-0.0625 0.78125,-0.082031 1,-0.0625 -0.960938,0.78125 -1.90625,1.59375 -2.84375,2.4375 -0.929688,0.84375 -1.75,1.636719 -2.46875,2.375 -0.710938,0.730469 -1.257812,1.335937 -1.640625,1.8125 -0.398437,0.492187 -0.7304688,0.929687 -1,1.3125 -0.28125,0.375 -0.421875,0.664063 -0.421875,0.859375 0,0.199219 0.101562,0.296875 0.296875,0.296875 0.21875,0 0.515625,-0.097656 0.890625,-0.296875 0.375,-0.195312 0.753906,-0.429688 1.140625,-0.703125 C 2.128906,-1.566406 2.457031,-1.8125 2.71875,-2.03125 3.007812,-2.25 3.367188,-2.550781 3.796875,-2.9375 4.222656,-3.320312 4.625,-3.703125 5,-4.078125 c 0.382812,-0.382813 0.664062,-0.664063 0.84375,-0.84375 0.4375,-0.457031 0.960938,-0.972656 1.578125,-1.546875 0.613281,-0.570312 1.226563,-1.113281 1.84375,-1.625 0.613281,-0.519531 1.140625,-0.910156 1.578125,-1.171875 0.164062,-0.101563 0.445312,-0.1875 0.84375,-0.25 0.394531,-0.070313 0.703125,-0.097656 0.921875,-0.078125 z m 0,0"
               id="path41391" />
          </g>
        </g>
      </g>
      <g
         fill="#f9de7f"
         fill-opacity="1"
         id="g41405"
         transform="matrix(0.4112473,0,0,0.4112473,62.957923,107.37317)">
        <g
           transform="translate(214.22083,210.64793)"
           id="g41403">
          <g
             id="g41401">
            <path
               d="m 20.65625,-18.390625 c -1.53125,0 -2.886719,0.328125 -4.0625,0.984375 -1.167969,0.65625 -2.40625,1.53125 -3.71875,2.625 -0.59375,0.480469 -1.265625,1.074219 -2.015625,1.78125 -0.742187,0.699219 -1.484375,1.421875 -2.234375,2.171875 -0.742188,0.742187 -1.402344,1.429687 -1.984375,2.0625 0.300781,0 0.675781,0 1.125,0 0.445313,0 0.878906,0.011719 1.296875,0.03125 0.039062,0 0.097656,0.011719 0.171875,0.03125 0.082031,0.023437 0.101563,0.089844 0.0625,0.203125 -0.023437,0.0625 -0.074219,0.101562 -0.15625,0.109375 C 9.066406,-8.378906 8.976562,-8.375 8.875,-8.375 c -0.511719,0 -0.980469,0.00781 -1.40625,0.015625 -0.429688,0.011719 -0.828125,0.027344 -1.203125,0.046875 -0.761719,0.855469 -1.492187,1.671875 -2.1875,2.453125 -0.6875,0.773437 -1.421875,1.585937 -2.203125,2.4375 -0.773438,0.855469 -1.683594,1.84375 -2.734375,2.96875 C -2.585938,1.378906 -4.382812,3.039062 -6.25,4.53125 c -1.875,1.488281 -3.832031,2.675781 -5.875,3.5625 -2.050781,0.882812 -4.21875,1.328125 -6.5,1.328125 -1.988281,0 -3.566406,-0.390625 -4.734375,-1.171875 -1.175781,-0.773438 -1.820313,-1.683594 -1.9375,-2.734375 -0.0625,-0.542969 -0.0039,-0.828125 0.171875,-0.859375 0.08594,-0.023438 0.140625,0.015625 0.171875,0.109375 0.02344,0.101563 0.04297,0.242187 0.0625,0.421875 0.148437,1.09375 0.796875,1.984375 1.953125,2.671875 1.148438,0.695313 2.574219,1.046875 4.28125,1.046875 1.625,0 3.164062,-0.277344 4.609375,-0.828125 1.4375,-0.542969 2.8125,-1.277344 4.125,-2.203125 1.3125,-0.917969 2.5625,-1.933594 3.75,-3.046875 1.179687,-1.117187 2.304687,-2.246094 3.375,-3.390625 0.53125,-0.5625 1.03125,-1.097656 1.5,-1.609375 0.46875,-0.519531 0.964844,-1.0625 1.484375,-1.625 C 0.71875,-4.367188 1.328125,-5.019531 2.015625,-5.75 2.703125,-6.488281 3.519531,-7.351562 4.46875,-8.34375 4.25,-8.363281 3.894531,-8.367188 3.40625,-8.359375 2.925781,-8.347656 2.578125,-8.34375 2.359375,-8.34375 c -0.167969,0 -0.25,-0.050781 -0.25,-0.15625 0,-0.070312 0.035156,-0.125 0.109375,-0.15625 0.070312,-0.03125 0.128906,-0.046875 0.171875,-0.046875 0.195313,-0.019531 0.554687,-0.03125 1.078125,-0.03125 0.53125,0 0.992188,-0.00781 1.390625,-0.03125 C 5.117188,-9.054688 5.503906,-9.46875 6.015625,-10 c 0.519531,-0.539062 1.117187,-1.140625 1.796875,-1.796875 0.675781,-0.65625 1.382812,-1.316406 2.125,-1.984375 0.75,-0.664062 1.5,-1.257812 2.25,-1.78125 1.289062,-0.96875 2.675781,-1.765625 4.15625,-2.390625 1.476562,-0.625 2.972656,-0.9375 4.484375,-0.9375 1.175781,0 2.148437,0.179687 2.921875,0.53125 0.78125,0.355469 1.171875,0.824219 1.171875,1.40625 0,0.21875 -0.08594,0.367187 -0.25,0.4375 -0.09375,0.02344 -0.203125,-0.03906 -0.328125,-0.1875 -0.117188,-0.144531 -0.226562,-0.257813 -0.328125,-0.34375 -0.3125,-0.300781 -0.746094,-0.597656 -1.296875,-0.890625 -0.542969,-0.300781 -1.230469,-0.453125 -2.0625,-0.453125 z m 0,0"
               id="path41399" />
          </g>
        </g>
      </g>
      <g
         fill="#f9de7f"
         fill-opacity="1"
         id="g41413"
         transform="matrix(0.4112473,0,0,0.4112473,62.957923,107.37317)">
        <g
           transform="translate(219.83745,210.64793)"
           id="g41411">
          <g
             id="g41409">
            <path
               d="m 20.65625,-18.390625 c -1.53125,0 -2.886719,0.328125 -4.0625,0.984375 -1.167969,0.65625 -2.40625,1.53125 -3.71875,2.625 -0.59375,0.480469 -1.265625,1.074219 -2.015625,1.78125 -0.742187,0.699219 -1.484375,1.421875 -2.234375,2.171875 -0.742188,0.742187 -1.402344,1.429687 -1.984375,2.0625 0.300781,0 0.675781,0 1.125,0 0.445313,0 0.878906,0.011719 1.296875,0.03125 0.039062,0 0.097656,0.011719 0.171875,0.03125 0.082031,0.023437 0.101563,0.089844 0.0625,0.203125 -0.023437,0.0625 -0.074219,0.101562 -0.15625,0.109375 C 9.066406,-8.378906 8.976562,-8.375 8.875,-8.375 c -0.511719,0 -0.980469,0.00781 -1.40625,0.015625 -0.429688,0.011719 -0.828125,0.027344 -1.203125,0.046875 -0.761719,0.855469 -1.492187,1.671875 -2.1875,2.453125 -0.6875,0.773437 -1.421875,1.585937 -2.203125,2.4375 -0.773438,0.855469 -1.683594,1.84375 -2.734375,2.96875 C -2.585938,1.378906 -4.382812,3.039062 -6.25,4.53125 c -1.875,1.488281 -3.832031,2.675781 -5.875,3.5625 -2.050781,0.882812 -4.21875,1.328125 -6.5,1.328125 -1.988281,0 -3.566406,-0.390625 -4.734375,-1.171875 -1.175781,-0.773438 -1.820313,-1.683594 -1.9375,-2.734375 -0.0625,-0.542969 -0.0039,-0.828125 0.171875,-0.859375 0.08594,-0.023438 0.140625,0.015625 0.171875,0.109375 0.02344,0.101563 0.04297,0.242187 0.0625,0.421875 0.148437,1.09375 0.796875,1.984375 1.953125,2.671875 1.148438,0.695313 2.574219,1.046875 4.28125,1.046875 1.625,0 3.164062,-0.277344 4.609375,-0.828125 1.4375,-0.542969 2.8125,-1.277344 4.125,-2.203125 1.3125,-0.917969 2.5625,-1.933594 3.75,-3.046875 1.179687,-1.117187 2.304687,-2.246094 3.375,-3.390625 0.53125,-0.5625 1.03125,-1.097656 1.5,-1.609375 0.46875,-0.519531 0.964844,-1.0625 1.484375,-1.625 C 0.71875,-4.367188 1.328125,-5.019531 2.015625,-5.75 2.703125,-6.488281 3.519531,-7.351562 4.46875,-8.34375 4.25,-8.363281 3.894531,-8.367188 3.40625,-8.359375 2.925781,-8.347656 2.578125,-8.34375 2.359375,-8.34375 c -0.167969,0 -0.25,-0.050781 -0.25,-0.15625 0,-0.070312 0.035156,-0.125 0.109375,-0.15625 0.070312,-0.03125 0.128906,-0.046875 0.171875,-0.046875 0.195313,-0.019531 0.554687,-0.03125 1.078125,-0.03125 0.53125,0 0.992188,-0.00781 1.390625,-0.03125 C 5.117188,-9.054688 5.503906,-9.46875 6.015625,-10 c 0.519531,-0.539062 1.117187,-1.140625 1.796875,-1.796875 0.675781,-0.65625 1.382812,-1.316406 2.125,-1.984375 0.75,-0.664062 1.5,-1.257812 2.25,-1.78125 1.289062,-0.96875 2.675781,-1.765625 4.15625,-2.390625 1.476562,-0.625 2.972656,-0.9375 4.484375,-0.9375 1.175781,0 2.148437,0.179687 2.921875,0.53125 0.78125,0.355469 1.171875,0.824219 1.171875,1.40625 0,0.21875 -0.08594,0.367187 -0.25,0.4375 -0.09375,0.02344 -0.203125,-0.03906 -0.328125,-0.1875 -0.117188,-0.144531 -0.226562,-0.257813 -0.328125,-0.34375 -0.3125,-0.300781 -0.746094,-0.597656 -1.296875,-0.890625 -0.542969,-0.300781 -1.230469,-0.453125 -2.0625,-0.453125 z m 0,0"
               id="path41407" />
          </g>
        </g>
      </g>
      <g
         fill="#f9de7f"
         fill-opacity="1"
         id="g41421"
         transform="matrix(0.4112473,0,0,0.4112473,62.957923,107.37317)">
        <g
           transform="translate(225.45407,210.64793)"
           id="g41419">
          <g
             id="g41417">
            <path
               d="M 3.09375,-5.546875 C 2.539062,-5.046875 2,-4.5 1.46875,-3.90625 0.945312,-3.3125 0.507812,-2.738281 0.15625,-2.1875 c -0.34375,0.542969 -0.515625,0.984375 -0.515625,1.328125 0,0.4375 0.25,0.65625 0.75,0.65625 0.332031,0 0.75,-0.09375 1.25,-0.28125 0.5,-0.195313 1.023437,-0.472656 1.578125,-0.828125 0.789062,-0.5 1.5625,-1.0625 2.3125,-1.6875 0.757812,-0.625 1.347656,-1.125 1.765625,-1.5 0.101563,-0.101562 0.207031,-0.1875 0.3125,-0.25 C 7.722656,-4.820312 7.8125,-4.828125 7.875,-4.765625 c 0.070312,0.074219 0.078125,0.152344 0.015625,0.234375 -0.054687,0.085938 -0.109375,0.164062 -0.171875,0.234375 -0.554688,0.5 -1.148438,1.011719 -1.78125,1.53125 C 5.3125,-2.253906 4.632812,-1.75 3.90625,-1.25 3.363281,-0.875 2.75,-0.519531 2.0625,-0.1875 1.382812,0.132812 0.726562,0.296875 0.09375,0.296875 c -0.394531,0 -0.769531,-0.101563 -1.125,-0.296875 -0.363281,-0.195312 -0.546875,-0.613281 -0.546875,-1.25 0,-0.4375 0.167969,-1.046875 0.5,-1.828125 0.324219,-0.789063 1.0117188,-1.691406 2.0625,-2.703125 0.75,-0.695312 1.5625,-1.34375 2.4375,-1.9375 0.875,-0.59375 1.71875,-1.070312 2.53125,-1.4375 0.820313,-0.375 1.5,-0.5625 2.03125,-0.5625 0.320313,0 0.566406,0.078125 0.734375,0.234375 0.164062,0.148437 0.25,0.339844 0.25,0.578125 0,0.355469 -0.179688,0.734375 -0.53125,1.140625 -0.34375,0.40625 -0.75,0.761719 -1.21875,1.0625 -0.523438,0.355469 -1.109375,0.65625 -1.765625,0.90625 -0.65625,0.25 -1.234375,0.375 -1.734375,0.375 -0.25,0 -0.460938,-0.039063 -0.625,-0.125 z M 3.3125,-5.78125 c 0.09375,0.042969 0.179688,0.0625 0.265625,0.0625 0.332031,0 0.804687,-0.128906 1.421875,-0.390625 0.625,-0.257813 1.242188,-0.644531 1.859375,-1.15625 C 7.316406,-7.628906 7.6875,-7.976562 7.96875,-8.3125 c 0.289062,-0.34375 0.4375,-0.613281 0.4375,-0.8125 0,-0.132812 -0.078125,-0.203125 -0.234375,-0.203125 -0.21875,0 -0.625,0.195313 -1.21875,0.578125 -0.585937,0.386719 -1.210937,0.855469 -1.875,1.40625 -0.667969,0.542969 -1.257813,1.0625 -1.765625,1.5625 z m 0,0"
               id="path41415" />
          </g>
        </g>
      </g>
      <g
         fill="#f9de7f"
         fill-opacity="1"
         id="g41429"
         transform="matrix(0.4112473,0,0,0.4112473,62.957923,107.37317)">
        <g
           transform="translate(232.28599,210.64793)"
           id="g41427">
          <g
             id="g41425">
            <path
               d="M 12.609375,-9.59375 C 11.671875,-8.738281 10.769531,-7.875 9.90625,-7 c -0.867188,0.875 -1.640625,1.683594 -2.328125,2.421875 -0.679687,0.730469 -1.210937,1.335937 -1.59375,1.8125 -0.398437,0.492187 -0.742187,0.929687 -1.03125,1.3125 -0.28125,0.375 -0.421875,0.664063 -0.421875,0.859375 0,0.199219 0.109375,0.296875 0.328125,0.296875 0.21875,0 0.503906,-0.097656 0.859375,-0.296875 0.363281,-0.195312 0.734375,-0.429688 1.109375,-0.703125 0.375,-0.269531 0.679687,-0.492187 0.921875,-0.671875 0.53125,-0.4375 1.082031,-0.898438 1.65625,-1.390625 0.582031,-0.5 1.09375,-0.929687 1.53125,-1.296875 0.08203,-0.050781 0.15625,-0.09375 0.21875,-0.125 0.07031,-0.03125 0.140625,-0.015625 0.203125,0.046875 0.113281,0.117187 0.08203,0.234375 -0.09375,0.359375 -0.304687,0.273438 -0.65625,0.585938 -1.0625,0.9375 -0.40625,0.34375 -0.804687,0.679688 -1.1875,1 -0.386719,0.3125 -0.699219,0.570312 -0.9375,0.765625 -0.523437,0.398437 -1.101563,0.8125 -1.734375,1.25 -0.636719,0.4375 -1.210938,0.65625 -1.71875,0.65625 -0.4375,0 -0.742188,-0.105469 -0.90625,-0.3125 -0.15625,-0.207031 -0.234375,-0.476563 -0.234375,-0.8125 0,-0.476563 0.207031,-1.066406 0.625,-1.765625 -0.21875,0.21875 -0.433594,0.414062 -0.640625,0.578125 -0.210938,0.15625 -0.382812,0.292969 -0.515625,0.40625 -0.5,0.417969 -1.089844,0.839844 -1.765625,1.265625 -0.679688,0.4257812 -1.2695312,0.640625 -1.78125,0.640625 -0.414062,0 -0.703125,-0.09375 -0.859375,-0.28125 -0.164063,-0.1875 -0.25,-0.421875 -0.25,-0.703125 0,-0.550781 0.21875,-1.179688 0.65625,-1.890625 0.4375,-0.71875 1.0273438,-1.476563 1.765625,-2.28125 C 1.15625,-5.378906 1.679688,-5.875 2.296875,-6.40625 2.910156,-6.945312 3.53125,-7.453125 4.15625,-7.921875 4.78125,-8.398438 5.3125,-8.757812 5.75,-9 c 0.238281,-0.15625 0.582031,-0.265625 1.03125,-0.328125 0.445312,-0.0625 0.78125,-0.082031 1,-0.0625 -0.960938,0.78125 -1.90625,1.59375 -2.84375,2.4375 -0.929688,0.84375 -1.75,1.636719 -2.46875,2.375 -0.710938,0.730469 -1.257812,1.335937 -1.640625,1.8125 -0.398437,0.492187 -0.7304688,0.929687 -1,1.3125 -0.28125,0.375 -0.421875,0.664063 -0.421875,0.859375 0,0.199219 0.101562,0.296875 0.296875,0.296875 0.21875,0 0.515625,-0.097656 0.890625,-0.296875 0.375,-0.195312 0.753906,-0.429688 1.140625,-0.703125 C 2.128906,-1.566406 2.457031,-1.8125 2.71875,-2.03125 3.007812,-2.25 3.367188,-2.550781 3.796875,-2.9375 4.222656,-3.320312 4.625,-3.703125 5,-4.078125 c 0.382812,-0.382813 0.664062,-0.664063 0.84375,-0.84375 0.4375,-0.457031 0.960938,-0.972656 1.578125,-1.546875 0.613281,-0.570312 1.226563,-1.113281 1.84375,-1.625 0.613281,-0.519531 1.140625,-0.910156 1.578125,-1.171875 0.164062,-0.101563 0.445312,-0.1875 0.84375,-0.25 0.394531,-0.070313 0.703125,-0.097656 0.921875,-0.078125 z m 0,0"
               id="path41423" />
          </g>
        </g>
      </g>
      <g
         fill="#f9de7f"
         fill-opacity="1"
         id="g41437"
         transform="matrix(0.4112473,0,0,0.4112473,62.957923,107.37317)">
        <g
           transform="translate(242.56671,210.64793)"
           id="g41435">
          <g
             id="g41433">
            <path
               d="m 5.328125,-1.078125 c -0.554687,0.367187 -1.074219,0.679687 -1.5625,0.9375 -0.480469,0.25 -0.902344,0.375 -1.265625,0.375 -0.773438,0 -1.15625,-0.394531 -1.15625,-1.1875 0,-0.675781 0.300781,-1.40625 0.90625,-2.1875 C 2.851562,-3.929688 3.671875,-4.78125 4.703125,-5.6875 5.117188,-6.050781 5.550781,-6.4375 6,-6.84375 6.445312,-7.25 6.828125,-7.609375 7.140625,-7.921875 7.460938,-8.242188 7.613281,-8.460938 7.59375,-8.578125 7.5625,-8.703125 7.488281,-8.785156 7.375,-8.828125 7.269531,-8.878906 7.097656,-8.957031 6.859375,-9.0625 6.578125,-9.21875 6.378906,-9.359375 6.265625,-9.484375 5.921875,-9.097656 5.539062,-8.695312 5.125,-8.28125 4.707031,-7.863281 4.28125,-7.4375 3.84375,-7 3.25,-6.445312 2.601562,-5.847656 1.90625,-5.203125 c -0.699219,0.648437 -1.277344,1.15625 -1.734375,1.53125 -0.0742188,0.0625 -0.1523438,0.105469 -0.234375,0.125 -0.09375,0.023437 -0.160156,0 -0.203125,-0.0625 -0.039063,-0.070313 -0.039063,-0.144531 0,-0.21875 C -0.222656,-3.898438 -0.164062,-3.957031 -0.09375,-4 c 0.519531,-0.46875 1.109375,-0.992188 1.765625,-1.578125 0.65625,-0.59375 1.269531,-1.164063 1.84375,-1.71875 0.539063,-0.5 1.019531,-0.960937 1.4375,-1.390625 0.414063,-0.425781 0.800781,-0.847656 1.15625,-1.265625 0,-0.238281 0.117187,-0.519531 0.359375,-0.84375 0.238281,-0.332031 0.546875,-0.640625 0.921875,-0.921875 0.300781,-0.21875 0.582031,-0.390625 0.84375,-0.515625 0.269531,-0.125 0.492187,-0.195313 0.671875,-0.21875 0.0625,-0.01953 0.171875,-0.03906 0.328125,-0.0625 0.164063,-0.01953 0.328125,-0.03125 0.484375,-0.03125 0.332031,0 0.5,0.04297 0.5,0.125 0,0.07422 -0.140625,0.210937 -0.421875,0.40625 -0.273437,0.199219 -0.574219,0.390625 -0.90625,0.578125 -0.324219,0.179688 -0.5625,0.3125 -0.71875,0.40625 C 7.828125,-10.8125 7.5,-10.59375 7.1875,-10.375 c -0.304688,0.21875 -0.453125,0.417969 -0.453125,0.59375 0,0.085938 0.109375,0.179688 0.328125,0.28125 0.21875,0.09375 0.378906,0.164062 0.484375,0.203125 0.613281,0.199219 0.921875,0.507813 0.921875,0.921875 0,0.4375 -0.167969,0.90625 -0.5,1.40625 C 7.644531,-6.476562 7.253906,-6 6.796875,-5.53125 c -0.460937,0.46875 -0.875,0.882812 -1.25,1.234375 -0.617187,0.5625 -1.152344,1.0625 -1.609375,1.5 -0.460938,0.4375 -0.839844,0.84375 -1.140625,1.21875 -0.355469,0.417969 -0.53125,0.746094 -0.53125,0.984375 0,0.21875 0.128906,0.328125 0.390625,0.328125 0.3125,0 0.734375,-0.15625 1.265625,-0.46875 C 4.460938,-1.054688 4.90625,-1.335938 5.25,-1.578125 5.820312,-1.992188 6.4375,-2.476562 7.09375,-3.03125 c 0.65625,-0.5625 1.203125,-1.019531 1.640625,-1.375 0.0625,-0.0625 0.132813,-0.113281 0.21875,-0.15625 0.09375,-0.039062 0.175781,-0.03125 0.25,0.03125 C 9.285156,-4.445312 9.28125,-4.351562 9.1875,-4.25 9.101562,-4.15625 9.019531,-4.070312 8.9375,-4 8.425781,-3.5625 7.847656,-3.070312 7.203125,-2.53125 6.554688,-2 5.929688,-1.515625 5.328125,-1.078125 Z m 0,0"
               id="path41431" />
          </g>
        </g>
      </g>
    </g>
  </g>
</svg>
