<?xml version="1.0" encoding="UTF-8" standalone="no"?>
<svg
   width="206"
   zoomAndPan="magnify"
   viewBox="0 0 154.5 108"
   height="144"
   preserveAspectRatio="xMidYMid"
   version="1.0"
   id="svg457"
   sodipodi:docname="logo.svg"
   inkscape:version="1.2.2 (732a01da63, 2022-12-09)"
   xmlns:inkscape="http://www.inkscape.org/namespaces/inkscape"
   xmlns:sodipodi="http://sodipodi.sourceforge.net/DTD/sodipodi-0.dtd"
   xmlns="http://www.w3.org/2000/svg"
   xmlns:svg="http://www.w3.org/2000/svg">
  <sodipodi:namedview
     id="namedview459"
     pagecolor="#ffffff"
     bordercolor="#000000"
     borderopacity="0.25"
     inkscape:showpageshadow="2"
     inkscape:pageopacity="0.0"
     inkscape:pagecheckerboard="0"
     inkscape:deskcolor="#d1d1d1"
     showgrid="false"
     inkscape:zoom="4.6895322"
     inkscape:cx="112.80443"
     inkscape:cy="34.331783"
     inkscape:window-width="1920"
     inkscape:window-height="1009"
     inkscape:window-x="1912"
     inkscape:window-y="-8"
     inkscape:window-maximized="1"
     inkscape:current-layer="svg457" />
  <defs
     id="defs295">
    <g
       id="g293" />
  </defs>
  <g
     id="g751"
     transform="translate(-0.479792,-131.2872)">
    <path
       fill="#000000"
       d="m 129.10937,225.60156 c -1.41406,0.22656 -2.83593,0.3711 -4.26562,0.42578 -0.48437,0.0156 -1.01562,0.043 -1.37109,0.3711 -0.41016,0.375 -0.50391,1.07422 -1.01563,1.28125 0.082,-0.48828 0.16797,-0.98828 0.41016,-1.41797 0.24219,-0.4336 0.66797,-0.79688 1.16406,-0.81641 0.94922,-0.043 1.89844,-0.082 2.84766,-0.125 0.75781,-0.0312 1.55078,-0.0547 2.23046,0.28125 z m 0,0"
       fill-opacity="1"
       fill-rule="nonzero"
       id="path297" />
    <path
       fill="#000000"
       d="m 98.65625,238.80859 c -16.914062,-0.0391 -33.828125,0 -50.742188,0.0352 -5.777343,0.0156 -11.550781,0.0273 -17.328124,0.0391 1.445312,-1.01172 3.335937,-1.04687 5.101562,-1.04687 18.546875,0.0273 37.089844,0.0508 55.636719,0.0781 2.476562,0.004 5.015625,0.0156 7.332031,0.89453 z m 0,0"
       fill-opacity="1"
       fill-rule="nonzero"
       id="path299" />
    <path
       fill="#000000"
       d="m 117.58594,236.92578 c 0.19531,-0.0586 0.48828,-0.0586 0.51953,0.14453 -0.18359,0.14063 -0.42188,0.21094 -0.65234,0.17969 -0.0742,-0.11328 -0.004,-0.29297 0.1289,-0.32813 z m 0,0"
       fill-opacity="1"
       fill-rule="nonzero"
       id="path301" />
    <path
       fill="#000000"
       d="m 119.55469,167.37891 c 3.58594,3.09765 5.71484,7.8164 5.66797,12.55468 -0.008,0.76953 -0.12891,1.64844 -0.75782,2.08985 -0.52343,0.36328 -1.21875,0.30468 -1.84765,0.21484 -4.29688,-0.62891 -8.46875,-2.12891 -12.1875,-4.37891 -0.38672,-0.23437 -0.4375,-0.76562 -0.4375,-1.22265 -0.008,-3.3086 0.33984,-6.6211 1.03906,-9.85547 0.10938,-0.51172 0.23828,-1.04688 0.58984,-1.44141 0.54688,-0.61718 1.47266,-0.71484 2.29297,-0.63672 2.10547,0.20704 4.03907,1.29297 5.64063,2.67579 m -7.89844,-1.29688 c 2.21094,-0.46484 4.53906,0.35156 6.36719,1.68359 1.82812,1.32813 3.25,3.13672 4.64453,4.91797 0.19141,0.24219 0.38281,0.48828 0.57031,0.73438 0.16016,-0.16797 0.043,-0.44141 -0.082,-0.63281 -1.97656,-3.07813 -4.58594,-5.96094 -8.04297,-7.14454 -1.16797,-0.39843 -2.66015,-0.50781 -3.45703,0.44141 z m 0,0"
       fill-opacity="1"
       fill-rule="nonzero"
       id="path303" />
    <path
       fill="#000000"
       d="m 34.273438,237.36719 c -0.160157,0 -0.320313,0.004 -0.476563,0.004 -0.07031,-0.23437 0.257813,-0.46875 0.457031,-0.32812 0.101563,0.0742 0.113282,0.24609 0.01563,0.32812 z m 0,0"
       fill-opacity="1"
       fill-rule="nonzero"
       id="path305" />
    <path
       fill="#000000"
       d="m 51.695312,178.70312 c -4.390624,1.28516 -8.933593,2.83985 -12.082031,6.16016 -2.019531,2.12891 -3.34375,4.91016 -3.722656,7.82031 -0.113281,0.87891 -0.136719,1.8125 0.25,2.60938 0.390625,0.79687 1.292969,1.40234 2.152344,1.18359 0.410156,-0.10547 0.769531,-0.3789 1.191406,-0.42969 0.417969,-0.0508 0.933594,0.32032 0.773437,0.71485 -0.08984,0.21484 -0.332031,0.3125 -0.550781,0.38281 -1.355469,0.41797 -2.964843,0.32813 -4.023437,-0.61719 -1.273438,-1.14453 -1.355469,-3.12109 -1.015625,-4.80078 0.761719,-3.75781 3.175781,-7.07812 6.300781,-9.29297 3.125,-2.21875 6.914062,-3.38672 10.726562,-3.73047 z m 0,0"
       fill-opacity="1"
       fill-rule="nonzero"
       id="path307" />
    <path
       fill="#000000"
       d="m 32.570312,181.25391 c 0.07031,0.1914 -0.01172,0.42968 -0.183593,0.53515 -0.175781,-0.23828 -0.15625,-0.60156 0.04297,-0.8164 0.113281,-0.0703 0.175781,0.14062 0.140624,0.26953 z m 0,0"
       fill-opacity="1"
       fill-rule="nonzero"
       id="path309" />
    <path
       fill="#000000"
       d="m 50.535156,198.45312 c -1.574218,0.52344 -3.191406,1.05469 -4.847656,0.97657 6.003906,-1.4375 11.496094,-4.94141 15.339844,-9.78516 3.746094,-4.72266 8.921875,-8.29297 14.667968,-10.11328 5.742188,-1.81641 12.027344,-1.875 17.804688,-0.16016 -1.523438,-0.17187 -3.042969,-0.34375 -4.5625,-0.51172 -1.429688,-0.16015 -2.859375,-0.32421 -4.292969,-0.33593 -5.332031,-0.0508 -10.535156,1.9414 -15.019531,4.82812 -2.90625,1.8711 -5.566406,4.125 -7.894531,6.6836 -2.109375,2.32421 -4.007813,4.94921 -6.703125,6.55468 -1.394532,0.82813 -2.949219,1.34766 -4.492188,1.86328 z m 0,0"
       fill-opacity="1"
       fill-rule="nonzero"
       id="path311" />
    <path
       fill="#000000"
       d="m 111.76172,222.82422 c -0.28125,-0.32422 -0.0742,-0.82031 0.11719,-1.20313 1.38281,-2.8125 1.15234,-6.35156 -0.57813,-8.96093 -1.73437,-2.60938 -4.90625,-4.1836 -8.02734,-3.98829 -0.16016,-0.33203 0.34375,-0.57031 0.71094,-0.57421 3.41015,-0.0312 6.76562,1.97265 8.35937,4.99218 1.59766,3.02344 1.36328,6.92578 -0.58203,9.73438 z m 0,0"
       fill-opacity="1"
       fill-rule="nonzero"
       id="path313" />
    <path
       fill="#000000"
       d="m 99.882812,173.96094 c -0.273437,0.28515 -0.664062,0.41797 -1.042968,0.51172 -1.855469,0.45703 -3.800782,0.14453 -5.691406,-0.13672 -6.03125,-0.89453 -12.113282,-1.44141 -18.207032,-1.63672 0.371094,-0.41016 0.9375,-0.57031 1.472656,-0.71485 8.371094,-2.2539 16.738282,-4.50781 25.109378,-6.75781 -0.21875,2.52735 -0.59766,5.04297 -1.12891,7.52344 -0.0937,0.43359 -0.20312,0.89062 -0.511718,1.21094 z m 0,0"
       fill-opacity="1"
       fill-rule="nonzero"
       id="path315" />
    <path
       fill="#000000"
       d="m 16.445312,223.81641 c 6.039063,-0.36329 12.089844,-0.44141 18.132813,-0.23829 0.457031,0.0156 0.910156,0.0352 1.363281,0.0508 -1.445312,0.94531 -2.40625,2.46093 -3.667968,3.64062 -2.316407,2.16797 -5.71875,3.10547 -8.816407,2.42969 -3.097656,-0.67578 -5.804687,-2.94531 -7.011719,-5.88281 z m 0,0"
       fill-opacity="1"
       fill-rule="nonzero"
       id="path317" />
    <path
       fill="#000000"
       d="M 96.9375,162.98828 C 89.691406,164.625 82.609375,167 75.839844,170.05859 c -2.160156,0.97657 -4.359375,2.03907 -6.726563,2.14844 -5.621093,0.26172 -11.230469,0.85547 -16.78125,1.77344 -1.074219,0.17578 -2.445312,0.23047 -2.960937,-0.73047 -0.230469,-0.42969 -0.199219,-0.95313 -0.125,-1.4375 0.5625,-3.61328 3.34375,-6.57813 6.585937,-8.25391 3.246094,-1.67968 6.925781,-2.26562 10.546875,-2.73047 10.410156,-1.32812 21.03125,-1.82812 31.367188,0.0234 0.828125,0.14844 1.671875,0.31641 2.398436,0.75 0.72266,0.4336 1.3125,1.17969 1.33203,2.02344 -1.05859,-1.21094 -2.968748,-0.99219 -4.53906,-0.63672 z m 0,0"
       fill-opacity="1"
       fill-rule="nonzero"
       id="path319" />
    <path
       fill="#000000"
       d="m 88.65625,198.19141 c -0.601562,-1.91797 -2.1875,-3.4961 -4.105469,-4.08594 -0.320312,-0.0977 -0.734375,-0.33985 -0.59375,-0.64063 3.101563,0.82032 5.488281,3.85547 5.511719,7.07032 0.01953,3.21093 -2.363281,6.29687 -5.484375,7.03906 -3.117187,0.73828 -6.65625,-0.98047 -7.960937,-3.91797 -1.304688,-2.93359 -0.1875,-6.75 2.519531,-8.47656 0.828125,-0.52344 1.695312,-1.02735 2.652343,-1.2461 1.492188,-0.33593 3.09375,0.0664 4.382813,0.89453 1.292969,0.82813 2.296875,2.04688 3.078125,3.36329 m -4.757812,3.88281 c -0.242188,-0.20703 -0.335938,-0.53516 -0.496094,-0.8086 -0.160156,-0.27734 -0.476563,-0.52734 -0.773438,-0.40625 -0.601562,0.23829 -0.07031,1.39454 -0.628906,1.72657 -0.496094,-1.20703 -0.308594,-2.66407 0.46875,-3.70313 0.421875,-0.5664 -0.03125,-1.47265 -0.714844,-1.63672 -0.683594,-0.16015 -1.402344,0.26953 -1.777344,0.86719 -0.371093,0.59766 -0.464843,1.32422 -0.5,2.02734 -0.05078,1.03907 0.03516,2.15235 0.660157,2.97657 0.625,0.82812 1.957031,1.17968 2.714843,0.46875 0.304688,-0.28516 0.589844,-0.73828 0.996094,-0.65235 -0.300781,1.28516 -1.546875,2.24219 -2.859375,2.33203 -1.3125,0.0898 -2.613281,-0.62109 -3.375,-1.69531 -0.761719,-1.07422 -1.011719,-2.46484 -0.8125,-3.76953 0.332031,-2.20703 1.992188,-4.1875 4.140625,-4.79297 2.144532,-0.60156 4.65625,0.26953 5.875,2.14063 1.128906,1.72265 1.085938,4.04297 0.234375,5.92187 -0.660156,1.45703 -1.847656,2.73828 -3.375,3.20313 -1.5,0.46093 -3.113281,0.0977 -4.636719,-0.26953 2.597657,1.46875 6.230469,0.73828 8.042969,-1.63672 1.808594,-2.37891 1.550781,-6.09766 -0.59375,-8.17969 -2.140625,-2.08203 -5.882812,-2.22266 -8.15625,-0.28906 -2.277343,1.92968 -2.746093,5.67187 -0.996093,8.09375 0.367187,0.50781 0.824218,0.96093 1.371093,1.26172 1.324219,0.72656 3.058594,0.42187 4.238281,-0.52344 1.179688,-0.94141 1.84375,-2.42188 2.054688,-3.91797 0.148438,-1.06641 0.05859,-2.24219 -0.617188,-3.08203 -0.296874,-0.36719 -0.691406,-0.64844 -1.113281,-0.85938 -1.472656,-0.74609 -3.617187,-0.46093 -4.3125,1.03516 1.0625,-1.15625 2.996094,-1.39063 4.300781,-0.51172 0.320313,0.21484 0.613282,0.50391 0.710938,0.87891 0.09375,0.375 -0.08203,0.83203 -0.449219,0.95312 -0.34375,0.10938 -0.921875,0.0742 -0.871093,0.4336 0.105468,0.33593 0.597656,0.0859 0.945312,0.0391 0.503906,-0.0742 0.921875,0.48047 0.910156,0.99219 -0.01563,0.50781 -0.316406,0.96093 -0.605468,1.38281 m -4.699219,-3.87891 c -0.824219,0.99219 -0.875,2.41406 -0.683594,3.69141 0.09375,0.64453 0.25,1.29687 0.601563,1.84375 0.355468,0.54687 0.941406,0.97656 1.589843,1.0039 0.105469,0.004 0.222657,-0.008 0.296875,-0.0859 0.07031,-0.0781 0.04687,-0.23438 -0.05469,-0.25391 -1.128907,-0.16797 -1.84375,-1.34766 -2.035157,-2.47266 -0.164062,-0.94921 -0.07031,-1.94531 0.265626,-2.84765 0.109374,-0.28906 0.230468,-0.65235 0.01953,-0.87891 z m 0,0"
       fill-opacity="1"
       fill-rule="nonzero"
       id="path321" />
    <path
       fill="#000000"
       d="m 21.777344,199.84375 c -0.0039,0.76953 -0.05078,1.53906 -0.210938,2.29297 -0.4375,2.04297 -1.75,3.91015 -3.597656,4.88672 -1.84375,0.97265 -4.203125,0.97656 -5.980469,-0.11328 -1.878906,-1.14844 -2.949219,-3.39844 -2.917969,-5.59766 0.023438,-1.54297 0.546876,-3.07422 1.476563,-4.30469 1.527344,-2.03125 4.246094,-3.16797 6.726563,-2.60937 2.480468,0.55859 4.503906,2.89843 4.503906,5.44531 m -4.53125,1.25781 c -0.125,0.45703 -0.273438,0.94922 -0.644532,1.2461 0.02734,-0.6836 -0.269531,-1.3711 -0.785156,-1.82032 -0.660156,0.3125 -0.15625,1.53125 -0.746094,1.96485 -0.632812,-0.80469 -0.34375,-1.96875 -0.02344,-2.94141 0.09766,-0.29687 0.214844,-0.62109 0.484375,-0.78125 0.300781,-0.18359 0.277344,-0.65234 0.06641,-0.93359 -0.523437,-0.69532 -1.710937,-0.46485 -2.242187,0.22656 -0.527344,0.69141 -0.578125,1.625 -0.585938,2.49609 -0.0078,0.83594 0.01172,1.71485 0.421875,2.44141 0.410156,0.72656 1.339844,1.23047 2.097656,0.88281 0.53125,-0.24219 0.890626,-0.83984 1.46875,-0.90234 0.238282,-0.0273 0.394532,-0.25391 0.511719,-0.46094 0.550781,-1.00391 0.808594,-2.19141 0.570313,-3.3125 -0.234375,-1.12109 -1,-2.14844 -2.066406,-2.55859 -1.066407,-0.41016 -2.402344,-0.11328 -3.097657,0.79297 1.0625,-0.6836 2.519531,-0.6875 3.585938,-0.008 0.277343,0.17578 0.535156,0.40625 0.648437,0.71094 0.109375,0.30859 0.03125,0.70313 -0.25,0.87109 -0.207031,0.125 -0.46875,0.10547 -0.703125,0.17579 -0.234375,0.0664 -0.460937,0.32812 -0.332031,0.53906 0.328125,-0.0312 0.667969,-0.0625 0.988281,0.0234 0.320313,0.0898 0.625,0.3164 0.703125,0.64062 0.05859,0.23047 -0.0039,0.47656 -0.07031,0.70703 m -6.257813,3.61328 c 0.820313,0.83985 2.101563,1.17578 3.242188,0.90625 1.140625,-0.26953 2.117187,-1.11328 2.609375,-2.17968 -0.644532,0.79296 -1.539063,1.375 -2.523438,1.64453 -1.054687,0.28906 -2.355468,0.13281 -2.96875,-0.77735 -1.089844,-1.61718 -1.261718,-3.80468 -0.464844,-5.58593 0.800782,-1.78125 2.539063,-3.09766 4.460938,-3.41407 0.652344,-0.10937 1.332031,-0.10547 1.957031,0.11719 0.644531,0.23047 1.195313,0.68359 1.636719,1.20703 1.691406,2 1.84375,5.14844 0.351562,7.30078 -1.488281,2.15235 -4.484374,3.11328 -6.945312,2.22657 1.851562,1.23437 4.503906,0.86328 6.175781,-0.60157 1.675781,-1.46875 2.40625,-3.83203 2.195313,-6.05078 -0.0625,-0.67969 -0.207032,-1.35937 -0.5,-1.98047 -1.082032,-2.28906 -4.164063,-3.22656 -6.496094,-2.24609 -2.328125,0.98047 -3.785156,3.53516 -3.839844,6.06641 -0.027344,1.21484 0.265625,2.5 1.109375,3.36718 M 12.75,203.74219 c -0.3125,-1.01563 -0.628906,-2.05469 -0.621094,-3.1211 0.0039,-0.95312 0.277344,-1.90234 0.777344,-2.71093 0.0078,-0.10938 -0.132812,-0.17969 -0.234375,-0.14063 -0.101563,0.0391 -0.167969,0.13672 -0.21875,0.23047 -0.988281,1.76562 -0.867187,4.09375 0.296875,5.74219 m 0.320312,0.47656 c -0.371093,-0.125 -0.742187,-0.25391 -1.113281,-0.38281 0.25,0.67578 1.15625,1.01562 1.789063,0.66797 -0.179688,-0.16797 -0.410156,-0.28516 -0.65625,-0.32813 z m 0,0"
       fill-opacity="1"
       fill-rule="nonzero"
       id="path323" />
    <path
       fill="#000000"
       d="m 50.691406,158.96875 c -2.722656,2.26953 -4.515625,5.4375 -6.246094,8.53125 -2.484374,4.4375 -4.964843,8.87109 -7.445312,13.30469 0.570312,-1.73047 1.742188,-3.25782 3.269531,-4.25391 -0.832031,1.30469 -1.664062,2.61328 -2.492187,3.91797 0.570312,-0.54688 1.515625,-0.65234 2.191406,-0.23828 -6.683594,1.25781 -12.054688,7.58203 -12.226562,14.39453 -0.171876,6.80859 4.875,13.39844 11.488281,14.99219 0.359375,-1.77344 -0.402344,-3.55469 -0.648438,-5.34766 -0.464843,-3.36328 0.90625,-6.67578 2.25,-9.79297 2.792969,-6.48047 6.144531,-13.53906 12.625,-16.32031 -6.226562,4.35937 -10.59375,11.29297 -11.839843,18.79687 5.203124,-10.15234 14.640624,-18.04687 25.542968,-21.35937 -7.523437,0.12891 -15.035156,1.08594 -22.355468,2.84766 1.660156,-6.04688 3.621093,-12.55079 8.65625,-16.26954 2.71875,-2.00781 6.058593,-2.96875 9.355468,-3.70312 11.492188,-2.5625 23.488282,-2.83984 35.085938,-0.8125 2.601566,0.45703 5.476566,1.22656 6.824216,3.50391 0.86719,1.46875 0.90235,3.27343 0.82422,4.97656 -0.22656,4.88281 -1.20703,9.73437 -2.89844,14.32031 1.125,1.48047 2.65625,2.64453 4.38282,3.32813 -0.25391,-0.73438 0.0234,-1.61719 0.64453,-2.07813 -1.67188,0.35547 -3.51953,-0.25 -4.65625,-1.53516 1.51172,-1.32812 3.46875,-2.13281 5.47656,-2.2539 -0.54297,-3.46875 -0.51562,-7.02735 0.0781,-10.48438 0.3125,-1.84765 0.84375,-3.76172 2.17578,-5.07812 2.8164,-2.78125 7.67187,-1.51953 10.83203,0.86719 6.49218,4.90234 9.4414,13.08593 12.0625,20.80078 1.11328,3.27343 2.22265,6.54297 3.33593,9.8164 2.10157,-2.0039 5.6211,-1.80859 8.07032,-0.25 2.44922,1.55469 4.02343,4.16016 5.29297,6.77344 2.1289,4.37891 3.64453,9.05469 4.49218,13.85156 0.95313,5.40625 0.67969,11.82813 -3.62109,15.22657 5.51953,-8.29688 2.70312,-19.52344 -1.67188,-28.48047 -1.14062,-2.34375 -2.44531,-4.71485 -4.53125,-6.27344 -2.08593,-1.55469 -5.16015,-2.07031 -7.26562,-0.54297 -0.80859,0.58203 -1.73047,-0.57422 -2.04688,-1.51562 -3.5,-10.3711 -6.0039,-22.1211 -14.72656,-28.71094 -2.8125,-2.1211 -7.22265,-3.35156 -9.54687,-0.70703 -0.76172,0.86328 -1.13281,1.99609 -1.42578,3.11328 -0.99219,3.76172 -1.29297,7.70703 -0.88282,11.57812 1.39844,0.31641 2.6836,1.10938 3.60157,2.21485 -1.92969,-1.50782 -4.67969,-1.88282 -6.9375,-0.94532 1.38281,0.3711 2.76562,0.7461 4.14843,1.11719 -0.67187,-0.0156 -1.33593,0.34766 -1.68359,0.92188 1.35156,-0.3125 2.70313,-0.625 4.05859,-0.9336 -1.3125,0.88672 -2.62109,1.77735 -3.93359,2.66407 9.19531,1.42968 18.17578,4.20312 26.57812,8.20703 -5.10156,-1.73047 -10.19921,-3.46094 -15.30078,-5.19532 -1.18359,-0.39843 -2.77343,-0.66796 -3.42968,0.39844 1.66406,0.59766 3.33203,1.19531 5,1.79688 -1.25391,0.29297 -2.60938,0.58203 -3.79297,0.082 -1.1875,-0.5 -1.94922,-2.15235 -1.10547,-3.125 -2.10156,-0.41797 -4.19922,-0.83203 -6.30078,-1.25 5.4414,3.39062 9.19531,8.94531 11.96094,14.73437 2.76171,5.78907 4.69531,11.94922 7.46093,17.73828 0.66406,1.39063 1.67969,2.95704 3.21875,2.94922 1.86719,-0.004 2.79688,-2.24218 3.14063,-4.07812 0.98047,-5.23047 1.14453,-10.61719 0.48437,-15.89453 1.23047,5.28515 1.25,10.84765 0.0586,16.14062 -0.45704,2.02735 -1.69141,4.45313 -3.75782,4.26172 -0.86328,-0.0781 -1.60547,-0.63672 -2.24609,-1.22656 -1.97266,-1.82031 -3.45703,-4.16797 -4.25,-6.73438 -0.125,2.75391 -0.14453,5.58594 0.82422,8.16407 0.97266,2.58203 3.13672,4.8789 5.86328,5.24218 4.00391,0.53125 7.42187,-3.19531 8.63672,-7.05859 1.21484,-3.85938 1.01953,-8.03906 2.08984,-11.94531 0.67188,-2.4375 3.01563,-5.17969 5.22656,-3.96094 1.02344,0.55859 1.48047,1.76172 1.79297,2.88281 1.32422,4.7461 1.44141,9.82422 0.33203,14.625 -1.32421,-1.21875 -1.17968,-3.29687 -1.5664,-5.05859 -0.38672,-1.75781 -2.35938,-3.58203 -3.76953,-2.46485 -0.6875,0.55079 -0.8125,1.53516 -0.84766,2.41407 -0.19141,4.67968 0.66406,9.39843 2.47656,13.71484 0.83985,-0.16797 1.54688,-0.86328 1.73438,-1.69922 0.18359,1.33203 0.33203,2.82031 -0.45703,3.90625 -0.79297,1.08985 -2.90625,1.10547 -3.19141,-0.21094 -0.79297,-3.64843 -1.58203,-7.29296 -2.375,-10.9375 0.11328,3.40625 0.65234,6.79688 1.60156,10.07032 0.32422,1.10547 0.77735,2.30468 1.79297,2.84375 1.01953,0.53515 2.64063,-0.20703 2.42969,-1.33985 0.12891,1.84766 0.23437,3.82032 -0.6875,5.42969 -0.91797,1.60547 -3.28516,2.50781 -4.67188,1.28125 -0.55468,-0.48828 -0.84765,-1.21094 -1.10156,-1.91016 -1.33203,-3.66015 -2.19531,-7.49218 -2.5625,-11.37109 -0.12109,5.16797 0.92969,10.35938 3.05078,15.07422 -3.20312,-3.90625 -4.85547,-9.05078 -4.53515,-14.09375 -0.53516,3.02344 -1.10157,6.11328 -2.63672,8.76562 -1.53906,2.65625 -4.27735,4.82813 -7.33985,4.81641 -5.87109,-0.0234 -11.74218,-0.0469 -17.61328,-0.0703 3.57813,-1.70703 7.76563,-1.03906 11.72657,-0.88672 3.96093,0.14844 8.51953,-0.59766 10.625,-3.96094 1.84765,-2.94531 1.55859,-7.5 4.67187,-9.03906 4.01172,-1.98047 6.28516,-6.94922 5.16016,-11.28125 1.08593,6.21875 -5.07032,12.5625 -11.30469,11.64844 1.08203,0.22656 2.16406,0.45312 3.24609,0.67968 -0.49609,3.66016 -1.40234,7.91016 -4.74609,9.46485 -1.35547,0.6289 -2.89844,0.68359 -4.39453,0.72656 -3.39844,0.0977 -6.79688,0.19141 -10.19531,0.28906 3.76953,-5.23437 8.58593,-11.02343 15.02734,-10.875 -3.33594,-0.39453 -4.05078,-4.83203 -4.30859,-8.1914 -0.76563,-10.0586 -5.59766,-20.02735 -13.89453,-25.74219 -8.29688,-5.71094 -20.117192,-6.45703 -28.39063,-0.71094 5.523438,-4.05469 12.777344,-5.65625 19.49219,-4.3125 6.71484,1.34375 12.79297,5.61719 16.33984,11.48828 -2.63281,-4.67187 -5.71875,-9.24609 -10.08203,-12.35547 -6.92578,-4.9375 -16.773438,-5.35546 -24.089844,-1.02343 -10.082031,5.97265 -13.828125,18.88281 -13.902344,30.61328 2.617188,0.0625 5.230469,0.125 7.84375,0.1875 -0.53125,-0.92578 0.492188,-2.07422 1.546876,-2.23828 1.054687,-0.16016 2.113281,0.23437 3.179687,0.24609 1.90625,0.0195 3.609375,-1.18359 4.941406,-2.55078 4.550781,-4.67188 5.683594,-13.375 0.460938,-17.27734 -2.71875,-2.03516 -6.695313,-2.19922 -9.574219,-0.39844 3.191406,-2.83985 8.617188,-2.16406 11.511719,0.97656 2.894531,3.13672 3.335937,8.07422 1.679687,12.01172 -1.65625,3.9375 -5.117187,6.91797 -8.984375,8.71875 1.753907,0.36719 3.507813,0.73828 5.265625,1.10937 -3.273437,-0.21093 -6.503906,-1.01562 -9.492187,-2.37109 1.003906,0.61719 2.007812,1.23438 3.015625,1.85156 -7.523438,0.26172 -15.050782,0.52344 -22.574219,0.78907 8.066406,0.0156 16.132813,0.0312 24.199219,0.0469 3.269531,0.008 7.574218,0.90234 7.851562,4.16406 0.464844,5.51172 5.183594,10.28125 10.648434,11.07813 5.46485,0.79687 11.19922,-2.26172 13.85547,-7.11328 2.65235,-4.85157 2.21875,-11.15625 -0.82812,-15.76953 -3.03516,-4.59375 -8.9336,-7.47657 -14.21875,-5.95704 6.89844,-0.21484 13.8164,4.52735 15.57422,11.21485 1.75781,6.68359 -2.32813,14.53515 -8.96875,16.42187 -6.64063,1.88282 -14.511722,-3.15625 -15.113285,-10.04297 -0.289063,-3.33593 0.929687,-6.61718 2.429687,-9.61328 1.667969,-3.33593 3.710938,-6.48437 6.082028,-9.37109 1.6875,-2.05859 3.67969,-4.06641 6.25,-4.75 3.6875,-0.98047 7.64063,1.10937 9.98438,4.125 2.34375,3.01172 3.42187,6.79687 4.44922,10.47656 -2.3086,-6.95312 -8.9375,-12.25 -16.21485,-12.95703 8.1836,1.77734 15.1875,8.53125 16.85547,16.75391 1.66797,8.21875 -2.35547,17.39453 -9.72656,21.375 -7.37109,3.97656 -17.511719,2.10937 -22.6875,-4.48047 -2.25,-2.86328 -3.542969,-6.37891 -4.328125,-9.9336 0.210937,5.69532 3.179687,11.22266 7.804687,14.53907 -5.292968,-2.92969 -9.058593,-8.46875 -9.84375,-14.47266 0.125,5.72656 3.40625,11.28125 8.355469,14.15234 -19.359375,-0.1914 -38.71875,-0.20312 -58.078125,-0.0391 3.617188,-2.89062 6.480469,-6.72265 8.226563,-11.01562 -3.003907,4.59375 -6.214844,9.3789 -11.070313,11.92578 -5.117187,2.67969 -11.6875,2.32031 -16.484375,-0.90235 C 10.597656,233.07422 7.777344,227.12109 8.3125,221.35937 8,221.08594 7.457031,221.14062 7.203125,221.47266 c 0.105469,4.67968 1.730469,9.30859 4.570313,13.02343 -3.742188,-3.21484 -5.828126,-8.26562 -5.457032,-13.1914 -1.964844,0.3125 -4.332031,-0.0508 -5.3125,-1.78907 -0.9765622,-1.73828 1.113282,-4.47656 2.753906,-3.34375 -1.292968,-6.1875 0.070313,-12.88671 3.675782,-18.07421 3.601562,-5.1875 9.398437,-8.79297 15.640625,-9.73047 1.785156,-0.26563 3.738281,-0.37891 5.113281,-1.5586 1.371094,-1.17968 1.433594,-3.92187 -0.300781,-4.43359 -0.824219,-0.24219 -1.699219,0.10937 -2.5625,0.14062 -0.859375,0.0273 -1.910157,-0.58984 -1.714844,-1.42968 1.679687,-1.56641 3.976563,-2.44922 6.269531,-2.40625 4.476563,-23.10547 24.136719,-42.47657 47.269532,-46.57813 C 100.28125,128 125.38281,139.43359 137.5,159.59766 c 5.85156,9.73437 8.79687,21.40234 7.12109,32.63671 -1.19531,-1.125 -3.10547,-0.53515 -4.6875,-0.11718 -1.58593,0.42187 -3.8164,0.22265 -4.15625,-1.38282 -2.22656,-10.4375 -5.22265,-21.42187 -13.08984,-28.61718 -6.86328,-6.27344 -16.41406,-8.66016 -25.65625,-9.64844 -11.675781,-1.25391 -23.550781,-0.62891 -35.035156,1.83984 -4.023438,0.86328 -8.136719,2.02344 -11.304688,4.66016 m 30.976563,22.58984 c 6.136719,-2.88281 13.3125,-1.71875 19.976561,-0.5 -2.726561,-1.85156 -5.968749,-2.77343 -9.183592,-3.48828 -5.660157,-1.25781 -11.4375,-1.96875 -17.230469,-2.12109 -1.640625,-0.043 -3.289063,-0.0391 -4.902344,0.24609 -2.285156,0.41016 -4.429687,1.37891 -6.476563,2.46875 -7.867187,4.19141 -14.6875,10.34375 -19.667968,17.7461 -0.109375,0.16015 -0.21875,0.33593 -0.21875,0.53125 0.0039,0.21484 0.140625,0.39843 0.265625,0.57421 1.882812,2.64063 1.546875,6.62891 -0.746094,8.91797 0.636719,-1.42578 1.109375,-2.92578 1.410156,-4.46093 0.175781,-0.89844 0.285157,-1.85547 -0.04297,-2.71094 -0.332031,-0.85156 -1.234374,-1.54688 -2.125,-1.35156 1.265626,0.57812 1.898438,2.07812 1.871094,3.47265 -0.02734,1.39453 -0.585937,2.71094 -1.136718,3.99219 -0.417969,0.96875 -1.078126,2.10156 -2.132813,2.0625 -0.113281,0.66406 -0.226563,1.32422 -0.34375,1.98437 8.316406,0.81641 16.933594,-2.2539 22.867187,-8.14843 3.125,-3.10938 5.484376,-6.88672 8.128907,-10.41797 2.640625,-3.52735 5.703125,-6.92188 9.6875,-8.79688 m -41.183594,31.22266 c 5.238281,0.15625 10.5,-0.38672 15.59375,-1.60938 -1.65625,1.14063 -3.730469,1.42969 -5.726563,1.67969 -3.820312,0.47266 -7.683593,0.90625 -11.511718,0.50781 -3.832032,-0.39843 -7.671875,-1.69531 -10.515625,-4.30078 -2.839844,-2.60156 -4.523438,-6.64062 -3.695313,-10.41015 0.542969,-2.46094 -1.492187,-4.89453 -3.875,-5.70703 -2.378906,-0.8086 -4.984375,-0.41407 -7.464844,-0.008 4.703126,-1.23437 9.410157,-2.46484 14.113282,-3.69531 -6.011719,-0.87891 -12.289063,1.57422 -16.515625,5.94531 -4.230469,4.3711 -6.460938,10.48047 -6.613281,16.56641 -0.039063,1.54687 0.050781,3.09375 0.136718,4.64062 0.742188,0.0352 1.484375,0.0703 2.226563,0.10547 -0.160157,-1.60937 1.582031,-2.71093 3.121093,-3.21093 1.539063,-0.5 3.359376,-1.01172 3.945313,-2.51954 0.488281,-1.25 2.328125,-1.38671 3.441406,-0.64453 1.113281,0.7461 1.726563,2.01953 2.460938,3.14063 0.734375,1.12109 1.804687,2.21875 3.144531,2.23047 10.175781,0.0781 20.351562,0.0898 30.523438,0.0352 1.15625,-1.53906 2.3125,-3.07422 3.46875,-4.61328 0.1875,-0.25 0.382812,-0.51172 0.414062,-0.82422 5.46875,-1.3789 9.671875,-5.73828 13.039062,-10.27343 3.367188,-4.53516 6.292969,-9.51563 10.636719,-13.125 3.648438,-3.02735 8.128907,-4.92579 12.726563,-6.08204 -3.773438,-0.89062 -7.820313,-0.14843 -11.28125,1.60547 -3.457032,1.75391 -6.367188,4.46485 -8.78125,7.50391 -2.734375,3.44141 -4.894532,7.33594 -7.835938,10.60156 -5.4375,6.04688 -13.523437,9.61328 -21.644531,9.55078 -0.976563,-0.008 -2.015625,-0.0508 -2.863281,0.4375 -0.847656,0.48828 -1.328125,1.75 -0.667969,2.47266 M 140.68359,191.28516 c 0.59766,0.0508 1.19532,0.10546 1.78907,0.15625 1.52734,-10.6836 -1.49219,-21.73047 -7.19141,-30.88282 -8.18359,-13.14843 -21.97656,-22.65234 -37.15625,-25.60937 -15.179688,-2.95703 -31.523438,0.68359 -44.023438,9.79687 -12.503906,9.11719 -20.984374,23.58203 -22.839843,38.96094 2.019531,-1.47656 2.605469,-4.17187 3.21875,-6.60156 4.507812,-17.85156 18.636719,-32.95703 36.128906,-38.6211 17.492187,-5.66796 37.769535,-1.70703 51.859375,10.125 12.30859,10.33594 19.71484,26.65625 18.21484,42.67579 m -28.5039,33.64062 c 3.05469,-3.29687 3.88281,-8.52734 1.85547,-12.54297 -2.03125,-4.01562 -6.84375,-6.45312 -11.2461,-5.5625 -1.38672,0.28125 -2.71875,0.86328 -3.82031,1.75 -1.539062,1.24219 -2.578125,3.03125 -3.152344,4.92578 -1.160156,3.80469 -0.414062,8.23047 2.230469,11.20313 2.644535,2.96875 7.199215,4.19531 10.843755,2.60937 1.25,-0.54687 2.36328,-1.38281 3.28906,-2.38281 m -10.33594,-44.82031 c 1.36328,-4.125 2.14844,-8.4375 2.33203,-12.78125 0.0508,-1.14453 0.0508,-2.32422 -0.36328,-3.39453 -0.5625,-1.45703 -1.84766,-2.54297 -3.26953,-3.1875 -1.421876,-0.64063 -2.984376,-0.89063 -4.531251,-1.09766 -11.609375,-1.57031 -23.484375,-1.125 -34.945313,1.30859 -3.039062,0.64844 -6.195312,1.50782 -8.445312,3.66016 -1.089844,1.04297 -1.90625,2.34375 -2.648438,3.66406 -1.5625,2.79297 -2.828125,5.75782 -3.765625,8.82032 11.457031,-2.47657 23.273438,-3.26172 34.953125,-2.32032 5.984375,0.48047 11.988282,1.42969 17.570313,3.64844 0.785156,-0.80078 1.171875,-1.90234 1.496091,-2.98047 1.20703,-4.03515 1.82422,-8.24609 1.83594,-12.46094 1.01953,1.03516 0.90234,2.70313 0.71875,4.14454 -0.51953,4.03906 -1.08984,8.21484 -3.230469,11.67578 0.765629,0.43359 1.527349,0.86718 2.292969,1.30078 m -37.492188,40.55078 c -14.058593,0.74609 -28.144531,0.96484 -42.222656,0.64844 -3.039062,-0.0664 -6.101562,-0.16016 -9.09375,0.38672 -0.292968,0.0508 -0.601562,0.12109 -0.804687,0.33984 -0.289063,0.32031 -0.234375,0.81641 -0.136719,1.24219 1.148438,4.98828 5.453125,9.05078 10.460938,10.07812 5.007812,1.02344 10.46875,-0.95312 13.804687,-4.83203 1.113281,-1.29297 2.121094,-2.85937 3.746094,-3.37109 9.40625,-2.95703 19.453125,-2.82032 29.308593,-2.94532 6.933594,-0.0859 13.863282,-0.3125 20.785157,-0.68359 0.628906,-0.0352 1.382812,-0.14844 1.640625,-0.72656 -12.867188,0.45312 -25.738282,0.90625 -38.605469,1.35937 -4.121094,0.14453 -8.453125,0.35157 -11.957031,2.53125 0.519531,-0.66406 1.035156,-1.33203 1.554687,-1.99609 -1.085937,0.69531 -2.171875,1.39062 -3.253906,2.08594 0.1875,-0.71094 0.609375,-1.35547 1.179687,-1.81641 -0.539062,-0.30078 -1.121093,0.30859 -1.457031,0.83203 -2.542969,3.99219 -6.207031,7.53906 -10.800781,8.66406 -3.449219,0.84766 -7.238281,0.21094 -10.226562,-1.71875 -2.988282,-1.92968 -5.128907,-5.12109 -5.78125,-8.62109 17.292968,-0.70703 34.726562,1 51.859374,-1.45703 m -8.988281,-0.38281 c -0.164062,-0.70313 -0.789062,-1.22266 -1.472656,-1.45703 -0.679687,-0.23438 -1.414063,-0.23829 -2.132813,-0.23438 -14.421874,0.043 -28.839843,0.0859 -43.257812,0.12891 0.113281,1.0625 1.140625,1.83203 2.1875,2.03515 1.046875,0.20703 2.125,-0.0156 3.179688,-0.17187 2.476562,-0.36719 4.992187,-0.36328 7.496093,-0.35938 11.332031,0.0195 22.667969,0.0391 34,0.0586 M 27.898438,188.71875 c -1.523438,3.10156 -2.65625,6.46094 -2.753907,9.91797 -0.09766,3.45703 0.921875,7.03125 3.253907,9.58203 2.589843,2.82422 6.496093,4.11328 10.308593,4.41016 0.203125,0.0156 0.433594,0.0156 0.558594,-0.13672 0.46875,-0.57422 0.449219,-1.46094 0.03125,-2.07422 -0.417969,-0.60938 -1.167969,-0.94141 -1.910156,-0.94531 -4.34375,-0.0195 -8.019531,-3.69141 -9.371094,-7.82813 -1.351563,-4.13672 -0.851563,-8.63672 -0.117187,-12.92578 m 38.671874,26.75391 c -0.125,-0.26954 -0.140624,-0.58985 -0.03516,-0.86329 -1.257812,0.125 -2.5625,-0.35937 -3.433594,-1.27343 -0.398437,-0.42188 -0.71875,-0.96094 -0.703124,-1.53907 0.02344,-0.92968 0.898437,-1.63281 1.796874,-1.87109 0.867188,-0.22656 1.886719,-0.10156 2.503907,0.54688 0.75,0.79296 0.679687,2.04687 0.417969,3.10937 -0.121094,0.47656 -0.265626,0.98828 -0.101563,1.45313 0.160156,0.46484 0.796875,0.78515 1.160156,0.45312 0.207031,-0.19141 0.238281,-0.5 0.261719,-0.78125 0.429688,-5.66797 1.824219,-11.26172 4.105469,-16.46875 -3.878907,4.95313 -8.164063,10.03516 -14.074219,12.18359 1.371094,1.53907 2.742188,3.08204 4.113281,4.6211 0.132813,0.14844 0.269531,0.30078 0.445313,0.38672 0.167968,0.082 0.355468,0.10547 0.542968,0.11718 1,0.0859 2.007813,0.0586 3,-0.0742 m 24.941407,4.69531 c -0.04297,-0.76172 -0.695313,-1.37891 -1.421875,-1.6211 -0.722656,-0.24609 -1.503906,-0.19531 -2.265625,-0.14843 -8.707031,0.51953 -17.441407,-0.008 -26.15625,0.3164 -1.132813,0.043 -2.515625,0.27344 -2.90625,1.33985 1.644531,-0.0273 3.285156,-0.0508 4.929687,-0.0781 0.335938,-0.004 0.6875,-0.008 0.992188,0.13672 0.222656,0.10938 0.410156,0.28906 0.636718,0.39453 0.277344,0.1211 0.589844,0.1211 0.894532,0.11328 8.429687,-0.15234 16.863281,-0.30078 25.296875,-0.45312 M 12.148434,213.1641 c -0.132813,0.14453 -0.265626,0.29297 -0.328126,0.47656 -0.05859,0.1836 -0.04297,0.37891 -0.02344,0.57032 0.04687,0.5 0.09375,1 0.136719,1.5 0.351562,-0.22657 0.796875,-0.23047 1.210937,-0.22657 2.382813,0.0273 4.765625,0.0547 7.144531,0.0781 0.183594,0.004 0.148438,-0.28516 0.05078,-0.4375 -1.121094,-1.75391 -2.269532,-3.54297 -3.882813,-4.85938 -0.226562,-0.1875 -0.496093,-0.37109 -0.78125,-0.32421 -0.203125,0.0273 -0.367187,0.16796 -0.519531,0.30078 -1.058594,0.91406 -2.0625,1.89062 -3.007812,2.92187 m -4.039063,4.30469 c 0.652344,-0.8125 1.835937,-0.87891 2.875,-0.875 13.507813,0.0117 27.019531,0.0234 40.53125,0.0352 0.699219,0.004 1.496094,-0.0391 1.953125,-0.57422 -14.390625,-0.0352 -28.78125,-0.0312 -43.171875,0.0156 0.367187,-0.10156 0.734375,-0.20312 1.101563,-0.30469 0.164062,-1.0625 -1.367188,-1.75 -2.277344,-1.17578 -0.90625,0.57422 -1.15625,1.8125 -1.011719,2.87891 m 27.460937,7.34766 c 0.585938,-0.66797 1.171876,-1.33204 1.757813,-2 -5.382813,0.082 -10.765625,0.16015 -16.148437,0.24218 -2.472657,0.0352 -4.976563,0.0703 -7.382813,-0.49218 1.089844,0.55468 2,1.46093 2.5625,2.54687 1.429687,2.76953 4.277344,4.71875 7.351563,5.20313 3.074218,0.48828 6.316406,-0.44922 8.761718,-2.38282 1.152344,-0.90625 2.128906,-2.01562 3.097656,-3.11718 m 19.96875,-7.02344 c 0.210938,0.36719 0.425782,0.74219 0.746094,1.01953 0.324219,0.27734 0.773438,0.4375 1.175782,0.30469 0.308593,-0.10157 0.542968,-0.35938 0.734374,-0.6211 1.644532,-2.19922 1.523438,-5.54687 -0.28125,-7.62109 -0.789062,0.85547 -1.527343,1.75781 -2.203124,2.70312 -0.453126,0.62891 -0.890626,1.32032 -0.914063,2.09375 -0.01953,0.75782 0.367187,1.46094 0.742187,2.1211 m -48.441406,0.21484 c -0.101562,-0.21875 -0.34375,-0.48047 -0.535156,-0.32812 0.140625,-0.38672 -0.398438,-0.64844 -0.808594,-0.69532 -1.328125,-0.14062 -2.671875,-0.10156 -3.988281,0.1211 -0.164063,0.0273 -0.34375,0.0664 -0.453125,0.1914 -0.101562,0.11719 -0.121094,0.28125 -0.136719,0.4336 -0.078125,0.71484 -0.105469,1.55469 0.441407,2.01953 0.339843,0.28516 0.816406,0.33984 1.261718,0.37891 1.761719,0.15234 3.527344,0.25 5.296875,0.29296 -0.347656,-0.80859 -0.707031,-1.61328 -1.078125,-2.41406 M 114.75391,156.04687 c 4.39843,2.125 8.22265,5.27735 11.72656,8.6836 -6.80859,-8.22266 -17.40234,-13.16016 -28.066408,-13.08203 5.578128,0.95703 11.242188,1.9375 16.339848,4.39843 m -88.28516,34.52735 c -0.5625,-0.13281 -1.148438,-0.0156 -1.714844,0.10156 -1.707031,0.35547 -3.417968,0.70703 -5.125,1.0625 -0.09766,-0.008 -0.128906,0.15234 -0.05859,0.21875 0.07422,0.0664 0.183594,0.0664 0.28125,0.0664 1.070313,0.004 2.113282,0.4375 2.96875,1.08203 0.855469,0.64453 1.542969,1.49219 2.136719,2.38672 0.05859,-1.73438 0.585938,-3.45313 1.511719,-4.91797 m 120.710936,12.70703 c -0.10938,-0.28125 -0.53516,-0.17578 -0.77344,0.008 -1.32422,0.98828 -1.96875,2.63672 -2.37891,4.23828 -0.64453,2.51563 -0.85547,5.14063 -0.625,7.73047 0.0156,0.1875 0.20313,0.44141 0.32813,0.30078 0.0273,-1.23437 0.0547,-2.46875 0.082,-3.70312 0.0117,-0.53906 0.0234,-1.08203 0.125,-1.61328 0.14062,-0.71875 0.44141,-1.39453 0.6875,-2.08594 0.625,-1.76172 1.01172,-3.81641 2.55469,-4.875 M 30.265625,181.73828 c 0.527344,-0.24609 1.132813,-0.59766 1.175781,-1.17969 0.03125,-0.41797 -0.265625,-0.80078 -0.632812,-0.99218 -0.367188,-0.19532 -0.796875,-0.22657 -1.210938,-0.23438 -1.070312,-0.0195 -2.144531,0.11719 -3.179687,0.40625 1.191406,0.53516 2.378906,1.07031 3.566406,1.60156 -0.625,0.19141 -1.304687,0.42578 -1.648437,0.98047 0.679687,-0.008 1.316406,-0.29687 1.929687,-0.58203 m 117.894535,26.61328 c -0.15625,-0.19922 -0.32813,-0.39844 -0.5625,-0.5 -0.41407,-0.17969 -0.89844,-0.008 -1.28516,0.23047 -1.53516,0.92969 -2.36328,2.88672 -1.96875,4.63672 0.19531,0.0273 0.27734,-0.23438 0.30078,-0.42969 0.125,-1.10547 0.74609,-2.14453 1.66016,-2.77734 0.39453,-0.27344 0.88672,-0.47656 1.34375,-0.33594 0.85156,0.26172 1.01953,1.47656 1.79297,1.91797 -0.21485,-0.99609 -0.65625,-1.94141 -1.28125,-2.74219 m -82.632816,5.08203 c 0.25,-0.082 0.488281,-0.22656 0.636718,-0.4414 0.234376,-0.34375 0.203126,-0.8125 0.04297,-1.19532 -0.195312,-0.46484 -0.585937,-0.85546 -1.066406,-1.0039 -0.484375,-0.14844 -1.046875,-0.0312 -1.402344,0.32422 -0.46875,0.48047 -0.464843,1.32031 -0.03906,1.83593 0.425781,0.51954 1.191406,0.69532 1.828125,0.48047 m 60.589843,15.99219 c 0.40625,-0.73828 0.12109,-1.70312 0.5039,-2.45312 -0.0742,-0.12891 -0.29296,-0.0742 -0.36718,0.0547 -0.0742,0.13282 -0.0547,0.29297 -0.0469,0.44532 0.0508,0.89843 -0.46094,1.75781 -1.14062,2.34765 -0.67969,0.58985 -1.51953,0.95703 -2.34375,1.31641 -0.53516,0.23437 -1.07032,0.46875 -1.60547,0.70312 -0.57422,0.2461 -1.15235,0.5 -1.64844,0.88282 0.0234,0.1875 0.29297,0.1875 0.46875,0.1289 1.87109,-0.58594 3.65234,-1.45312 5.27344,-2.55469 0.34765,-0.23828 0.70312,-0.5 0.90625,-0.87109 m -1.58594,-2.09375 c 0.0156,-0.17969 -0.12109,-0.4375 -0.26172,-0.32812 -0.0352,0.92968 -0.64453,1.74218 -1.34375,2.35937 -0.69922,0.61328 -1.50781,1.09375 -2.16406,1.75781 0.0508,0.14844 0.27734,0.0977 0.41406,0.0156 0.75781,-0.44922 1.52344,-0.90235 2.15625,-1.51563 0.62891,-0.61328 1.125,-1.41015 1.19922,-2.28906 z m 0,0"
       fill-opacity="1"
       fill-rule="nonzero"
       id="path325" />
  </g>
</svg>
