<?xml version="1.0" encoding="UTF-8" standalone="no"?>
<svg
   width="349"
   zoomAndPan="magnify"
   viewBox="0 0 261.75 76.5"
   height="102"
   preserveAspectRatio="xMidYMid"
   version="1.0"
   id="svg41439"
   sodipodi:docname="logo2.svg"
   inkscape:version="1.2.2 (732a01da63, 2022-12-09)"
   xmlns:inkscape="http://www.inkscape.org/namespaces/inkscape"
   xmlns:sodipodi="http://sodipodi.sourceforge.net/DTD/sodipodi-0.dtd"
   xmlns="http://www.w3.org/2000/svg"
   xmlns:svg="http://www.w3.org/2000/svg">
  <sodipodi:namedview
     id="namedview41441"
     pagecolor="#ffffff"
     bordercolor="#000000"
     borderopacity="0.25"
     inkscape:showpageshadow="2"
     inkscape:pageopacity="0.0"
     inkscape:pagecheckerboard="0"
     inkscape:deskcolor="#d1d1d1"
     showgrid="false"
     inkscape:zoom="2.4805306"
     inkscape:cx="184.23478"
     inkscape:cy="81.43419"
     inkscape:window-width="1920"
     inkscape:window-height="1009"
     inkscape:window-x="1912"
     inkscape:window-y="-8"
     inkscape:window-maximized="1"
     inkscape:current-layer="svg41439" />
  <defs
     id="defs41275">
    <g
       id="g41270" />
    <clipPath
       id="badd009e40">
      <path
         d="M 45.347656,156 H 139 v 66 H 45.347656 Z m 0,0"
         clip-rule="nonzero"
         id="path41272" />
    </clipPath>
  </defs>
  <g
     id="g41641"
     transform="matrix(1.1657404,0,0,1.1657404,-53.548761,-182.0053)">
    <path
       fill="#000000"
       d="m 123.08984,213.44531 c -0.85156,0.13672 -1.70703,0.21875 -2.57031,0.25391 -0.28906,0.0117 -0.60937,0.0273 -0.82422,0.22265 -0.24609,0.22657 -0.30468,0.64844 -0.61328,0.77344 0.0508,-0.29297 0.10547,-0.59375 0.25,-0.85547 0.14453,-0.26172 0.40235,-0.47656 0.69922,-0.49218 0.57031,-0.0234 1.14453,-0.0469 1.71484,-0.0742 0.45704,-0.0195 0.9336,-0.0352 1.34375,0.17187 z m 0,0"
       fill-opacity="1"
       fill-rule="nonzero"
       id="path41277" />
    <path
       fill="#000000"
       d="m 104.75391,221.39453 c -10.187504,-0.0234 -20.371098,0 -30.554691,0.0234 -3.480469,0.008 -6.957031,0.0156 -10.4375,0.0234 0.871093,-0.60938 2.011719,-0.63282 3.074219,-0.62891 11.167968,0.0117 22.332031,0.0273 33.500002,0.043 1.49219,0.004 3.01953,0.0117 4.41797,0.53906 z m 0,0"
       fill-opacity="1"
       fill-rule="nonzero"
       id="path41279" />
    <path
       fill="#000000"
       d="m 116.15234,220.26172 c 0.11719,-0.0352 0.29297,-0.0352 0.3125,0.0859 -0.10937,0.0859 -0.2539,0.1289 -0.39453,0.10937 -0.043,-0.0703 -0.004,-0.17578 0.0781,-0.19922 z m 0,0"
       fill-opacity="1"
       fill-rule="nonzero"
       id="path41281" />
    <path
       fill="#000000"
       d="m 117.33594,178.38672 c 2.16015,1.86328 3.4414,4.70312 3.41406,7.55859 -0.008,0.46094 -0.0781,0.99219 -0.45703,1.25781 -0.3125,0.21875 -0.73438,0.1836 -1.11328,0.12891 -2.58594,-0.37891 -5.09766,-1.28125 -7.33594,-2.63672 -0.23437,-0.14062 -0.26562,-0.46094 -0.26562,-0.73437 -0.004,-1.9961 0.20312,-3.98828 0.625,-5.9375 0.0664,-0.3086 0.14453,-0.62891 0.35546,-0.86719 0.32813,-0.37109 0.88672,-0.42969 1.37891,-0.38281 1.26953,0.125 2.43359,0.77734 3.39844,1.61328 m -4.75781,-0.78125 c 1.33203,-0.28125 2.73437,0.21094 3.83593,1.01172 1.10157,0.80078 1.95703,1.88672 2.79688,2.96093 0.11328,0.14844 0.23047,0.29297 0.34375,0.44141 0.0977,-0.10156 0.0234,-0.26562 -0.0508,-0.38281 -1.1875,-1.85156 -2.76172,-3.58594 -4.83985,-4.30078 -0.70703,-0.23828 -1.60547,-0.30469 -2.08593,0.26953 z m 0,0"
       fill-opacity="1"
       fill-rule="nonzero"
       id="path41283" />
    <path
       fill="#000000"
       d="m 65.984375,220.52734 c -0.09766,0 -0.191406,0.004 -0.289063,0.004 -0.03906,-0.14453 0.15625,-0.28516 0.277344,-0.19922 0.0625,0.043 0.06641,0.14844 0.0078,0.19922 z m 0,0"
       fill-opacity="1"
       fill-rule="nonzero"
       id="path41285" />
    <path
       fill="#000000"
       d="m 76.476562,185.20312 c -2.648437,0.77344 -5.378906,1.71094 -7.277343,3.71094 -1.21875,1.28125 -2.011719,2.95313 -2.242188,4.70703 -0.06641,0.53125 -0.08203,1.08985 0.152344,1.57032 0.234375,0.48046 0.777344,0.84375 1.292969,0.71484 0.25,-0.0664 0.464844,-0.23047 0.71875,-0.26172 0.253906,-0.0273 0.5625,0.19531 0.464844,0.42969 -0.05078,0.13281 -0.199219,0.1914 -0.332032,0.23437 -0.816406,0.25 -1.785156,0.19922 -2.421875,-0.375 -0.765625,-0.6875 -0.816406,-1.875 -0.613281,-2.88672 0.460938,-2.26562 1.914062,-4.26171 3.796875,-5.59765 1.882813,-1.33594 4.164063,-2.03906 6.460937,-2.2461 z m 0,0"
       fill-opacity="1"
       fill-rule="nonzero"
       id="path41287" />
    <path
       fill="#000000"
       d="m 64.957031,186.73828 c 0.04297,0.11719 -0.0039,0.25781 -0.109375,0.32422 -0.105468,-0.14453 -0.09375,-0.36328 0.02734,-0.49219 0.06641,-0.043 0.105469,0.0859 0.08203,0.16016 z m 0,0"
       fill-opacity="1"
       fill-rule="nonzero"
       id="path41289" />
    <path
       fill="#000000"
       d="m 75.777344,197.09375 c -0.949219,0.31641 -1.921875,0.63672 -2.921875,0.58984 3.617187,-0.86328 6.925781,-2.97656 9.238281,-5.89062 2.253906,-2.84766 5.375,-4.9961 8.832031,-6.08985 3.457031,-1.09375 7.242188,-1.1289 10.722659,-0.0977 -0.91797,-0.10547 -1.832034,-0.20703 -2.750002,-0.3086 -0.859376,-0.0977 -1.71875,-0.19531 -2.582032,-0.20312 -3.210937,-0.0312 -6.34375,1.16797 -9.046875,2.91016 -1.75,1.125 -3.351562,2.48046 -4.753906,4.02343 -1.269531,1.39844 -2.410156,2.98047 -4.035156,3.94532 -0.839844,0.5 -1.777344,0.8125 -2.703125,1.12109 z m 0,0"
       fill-opacity="1"
       fill-rule="nonzero"
       id="path41291" />
    <path
       fill="#000000"
       d="m 112.64453,211.76953 c -0.16797,-0.19141 -0.043,-0.49219 0.0703,-0.72266 0.83204,-1.69531 0.69532,-3.82421 -0.34765,-5.39453 -1.04688,-1.57031 -2.95703,-2.52343 -4.83594,-2.40625 -0.0937,-0.19531 0.21094,-0.33984 0.42969,-0.34375 2.05469,-0.0156 4.07422,1.1875 5.03515,3.00782 0.96094,1.82031 0.82032,4.16796 -0.35156,5.85937 z m 0,0"
       fill-opacity="1"
       fill-rule="nonzero"
       id="path41293" />
    <path
       fill="#000000"
       d="m 105.49219,182.34766 c -0.16406,0.17187 -0.39844,0.2539 -0.62891,0.30859 -1.11719,0.27344 -2.28906,0.0859 -3.42578,-0.082 -3.632812,-0.53906 -7.296875,-0.86719 -10.964844,-0.98438 0.222656,-0.25 0.5625,-0.34765 0.886719,-0.43359 5.039063,-1.35547 10.078125,-2.71094 15.121095,-4.07031 -0.13281,1.52343 -0.36328,3.03906 -0.68359,4.53125 -0.0547,0.26172 -0.1211,0.53515 -0.30469,0.73047 z m 0,0"
       fill-opacity="1"
       fill-rule="nonzero"
       id="path41295" />
    <path
       fill="#000000"
       d="m 55.25,212.36719 c 3.632812,-0.21875 7.277344,-0.26563 10.917969,-0.14063 0.273437,0.008 0.546875,0.0195 0.820312,0.0273 -0.871093,0.57031 -1.449219,1.48437 -2.207031,2.19531 -1.398438,1.30469 -3.445312,1.86719 -5.3125,1.46094 -1.863281,-0.40625 -3.492188,-1.77344 -4.21875,-3.54297 z m 0,0"
       fill-opacity="1"
       fill-rule="nonzero"
       id="path41297" />
    <path
       fill="#000000"
       d="m 103.71484,175.73828 c -4.363278,0.98828 -8.624996,2.41797 -12.703121,4.25781 -1.300781,0.58985 -2.625,1.23047 -4.050781,1.29688 -3.382813,0.15625 -6.761719,0.51172 -10.105469,1.0664 -0.644531,0.10547 -1.46875,0.14063 -1.78125,-0.4375 C 74.9375,181.66016 74.953125,181.34375 75,181.05469 c 0.339844,-2.17578 2.011719,-3.96094 3.964844,-4.97266 1.953125,-1.01172 4.171875,-1.36328 6.351562,-1.64062 6.269532,-0.80079 12.664063,-1.10157 18.886724,0.0117 0.5,0.0898 1.00781,0.19141 1.44531,0.45313 0.43359,0.25781 0.78906,0.71094 0.80078,1.21875 -0.63672,-0.73047 -1.78906,-0.59766 -2.73438,-0.38672 z m 0,0"
       fill-opacity="1"
       fill-rule="nonzero"
       id="path41299" />
    <path
       fill="#000000"
       d="m 98.730469,196.9375 c -0.363281,-1.15234 -1.316407,-2.10547 -2.472657,-2.46094 -0.191406,-0.0586 -0.441406,-0.20312 -0.355468,-0.38672 1.867187,0.4961 3.304687,2.32422 3.316406,4.25782 0.01172,1.93359 -1.421875,3.79296 -3.300781,4.23828 -1.878907,0.44531 -4.007813,-0.58985 -4.792969,-2.35547 -0.789062,-1.76953 -0.113281,-4.06641 1.515625,-5.10547 0.5,-0.31641 1.019531,-0.62109 1.597656,-0.75 0.898438,-0.20313 1.863281,0.0391 2.640625,0.53906 0.777344,0.4961 1.378906,1.23047 1.851563,2.02344 m -2.863281,2.33594 c -0.148438,-0.1211 -0.203126,-0.32032 -0.300782,-0.48438 -0.09375,-0.16797 -0.285156,-0.3164 -0.464844,-0.24609 -0.363281,0.14453 -0.04297,0.83984 -0.378906,1.03906 -0.296875,-0.72266 -0.1875,-1.60156 0.28125,-2.23047 0.253906,-0.33594 -0.01563,-0.88281 -0.429687,-0.98047 -0.410157,-0.10156 -0.84375,0.16016 -1.070313,0.51953 -0.222656,0.35938 -0.28125,0.79688 -0.300781,1.22266 -0.03125,0.625 0.01953,1.29297 0.398437,1.79297 0.375,0.49609 1.179688,0.70703 1.632813,0.28125 0.183594,-0.17188 0.355469,-0.44531 0.601563,-0.39453 -0.179688,0.77344 -0.929688,1.35156 -1.722657,1.40234 -0.789062,0.0547 -1.574219,-0.37109 -2.03125,-1.01953 -0.460937,-0.64453 -0.609375,-1.48437 -0.492187,-2.26953 0.203125,-1.32813 1.203125,-2.51953 2.496094,-2.88281 1.292968,-0.36719 2.800781,0.16015 3.535156,1.28515 0.679687,1.03907 0.65625,2.4375 0.144531,3.56641 -0.398437,0.87891 -1.113281,1.64844 -2.035156,1.92969 -0.902344,0.27734 -1.871094,0.0586 -2.792969,-0.16016 1.566406,0.88281 3.753906,0.44141 4.84375,-0.98828 1.089844,-1.42969 0.933594,-3.67188 -0.355469,-4.92578 -1.289062,-1.25391 -3.542969,-1.33985 -4.914062,-0.17578 -1.371094,1.16406 -1.652344,3.41797 -0.597657,4.875 0.222657,0.30859 0.496094,0.58203 0.828126,0.76172 0.796874,0.4375 1.839843,0.2539 2.550781,-0.31641 0.707031,-0.56641 1.109375,-1.45703 1.234375,-2.35938 0.08984,-0.64062 0.03906,-1.35156 -0.371094,-1.85546 -0.179688,-0.22266 -0.414062,-0.39063 -0.667969,-0.51954 -0.890625,-0.44531 -2.179687,-0.27734 -2.597656,0.625 0.640625,-0.69531 1.804687,-0.83593 2.589844,-0.30859 0.191406,0.12891 0.371093,0.30469 0.425781,0.53125 0.05859,0.22656 -0.04687,0.5 -0.269531,0.57031 -0.207031,0.0703 -0.554688,0.0469 -0.523438,0.26172 0.0625,0.20313 0.359375,0.0547 0.570313,0.0234 0.304687,-0.043 0.554687,0.28906 0.546875,0.59766 -0.0078,0.30859 -0.191407,0.58203 -0.363281,0.83203 m -2.832032,-2.33203 c -0.496094,0.59765 -0.527344,1.45312 -0.410156,2.22265 0.05859,0.38672 0.148438,0.78125 0.363281,1.10938 0.210938,0.32812 0.566407,0.58984 0.957031,0.60156 0.0625,0.004 0.132813,-0.004 0.175782,-0.0508 0.04297,-0.043 0.03125,-0.14063 -0.03125,-0.14844 -0.679688,-0.10547 -1.109375,-0.8125 -1.226563,-1.49219 -0.09766,-0.57031 -0.04297,-1.16797 0.160157,-1.71484 0.06641,-0.17578 0.140624,-0.39453 0.01172,-0.52734 z m 0,0"
       fill-opacity="1"
       fill-rule="nonzero"
       id="path41301" />
    <path
       fill="#000000"
       d="m 58.457031,197.93359 c 0,0.46094 -0.02734,0.92578 -0.125,1.37891 -0.265625,1.23047 -1.054687,2.35547 -2.164062,2.94141 -1.113281,0.58593 -2.53125,0.58984 -3.605469,-0.0664 -1.128906,-0.69141 -1.773438,-2.04688 -1.753906,-3.37109 0.01172,-0.92969 0.328125,-1.85157 0.886718,-2.58985 0.921876,-1.22656 2.558594,-1.90625 4.050782,-1.57031 1.492187,0.33594 2.714844,1.74219 2.710937,3.27734 m -2.726562,0.75782 c -0.07422,0.27343 -0.164063,0.57031 -0.386719,0.75 0.01563,-0.41407 -0.164062,-0.82813 -0.472656,-1.09766 -0.398438,0.19141 -0.09375,0.92187 -0.449219,1.18359 -0.382813,-0.48437 -0.207031,-1.18359 -0.01563,-1.76953 0.05859,-0.17969 0.128906,-0.375 0.292969,-0.47265 0.179687,-0.10938 0.167969,-0.39454 0.03906,-0.5625 -0.316406,-0.41797 -1.03125,-0.27735 -1.347656,0.13671 -0.320313,0.41797 -0.351563,0.98047 -0.355469,1.50391 -0.0078,0.50391 0.0078,1.03125 0.253906,1.46875 0.246094,0.44141 0.804688,0.74219 1.261719,0.53516 0.320313,-0.14844 0.539063,-0.50782 0.886719,-0.54688 0.140625,-0.0156 0.238281,-0.15234 0.308594,-0.27734 0.328125,-0.60156 0.484375,-1.32031 0.34375,-1.99219 -0.140625,-0.67578 -0.605469,-1.29297 -1.246094,-1.54297 -0.640625,-0.24609 -1.445312,-0.0664 -1.867188,0.47656 0.640626,-0.41015 1.519532,-0.41015 2.160157,-0.004 0.167969,0.10547 0.324219,0.24609 0.390625,0.42969 0.06641,0.18359 0.01953,0.42187 -0.148438,0.52343 -0.125,0.0781 -0.285156,0.0625 -0.425781,0.10547 -0.140625,0.043 -0.273437,0.19922 -0.199219,0.32422 0.199219,-0.0195 0.402344,-0.0352 0.597656,0.0156 0.191407,0.0547 0.375,0.1914 0.421876,0.38671 0.03516,0.14063 -0.0039,0.28516 -0.04297,0.42579 m -3.765625,2.17578 c 0.492187,0.5039 1.261718,0.70703 1.949218,0.54297 0.6875,-0.16016 1.273438,-0.66797 1.570313,-1.3086 -0.386719,0.47266 -0.925781,0.82422 -1.515625,0.98828 -0.636719,0.17578 -1.421875,0.0781 -1.789062,-0.46875 -0.65625,-0.97265 -0.761719,-2.29297 -0.28125,-3.36328 0.484374,-1.07031 1.527343,-1.86719 2.6875,-2.05859 0.390624,-0.0625 0.800781,-0.0625 1.175781,0.0742 0.390625,0.13672 0.722656,0.41015 0.988281,0.72656 1.015625,1.20312 1.109375,3.09766 0.210938,4.39453 -0.894532,1.29688 -2.699219,1.875 -4.183594,1.34375 1.117187,0.74219 2.714844,0.51953 3.722656,-0.36328 1.003906,-0.88672 1.445312,-2.30859 1.320312,-3.64453 -0.03906,-0.41016 -0.125,-0.82031 -0.300781,-1.19141 -0.652343,-1.3789 -2.507812,-1.94531 -3.910156,-1.35547 -1.40625,0.59375 -2.28125,2.12891 -2.316406,3.65625 -0.01563,0.73047 0.160156,1.50391 0.671875,2.02735 m 1.058594,-0.58594 c -0.1875,-0.61328 -0.378907,-1.23828 -0.375,-1.87891 0.0039,-0.57422 0.167968,-1.14843 0.46875,-1.63281 0.0039,-0.0664 -0.08203,-0.10937 -0.140626,-0.0859 -0.0625,0.0234 -0.101562,0.082 -0.132812,0.14063 -0.59375,1.0625 -0.519531,2.46094 0.179688,3.45703 m 0.191406,0.28906 c -0.222656,-0.0781 -0.445313,-0.15625 -0.667969,-0.23437 0.148437,0.41015 0.695313,0.61328 1.074219,0.40234 -0.105469,-0.10156 -0.246094,-0.17187 -0.390625,-0.19531 z m 0,0"
       fill-opacity="1"
       fill-rule="nonzero"
       id="path41303" />
    <g
       clip-path="url(#badd009e40)"
       id="g41307">
      <path
         fill="#000000"
         d="m 75.871094,173.32031 c -1.640625,1.36328 -2.71875,3.27344 -3.761719,5.13672 -1.496094,2.67188 -2.988281,5.34375 -4.484375,8.01172 0.34375,-1.04297 1.050781,-1.96094 1.96875,-2.5625 -0.5,0.78906 -1,1.57422 -1.5,2.35937 0.34375,-0.32812 0.914062,-0.39062 1.320312,-0.14062 -4.023437,0.75781 -7.261718,4.5625 -7.363281,8.66406 -0.101562,4.10156 2.9375,8.07031 6.917969,9.02735 0.21875,-1.06641 -0.242188,-2.14063 -0.390625,-3.21875 -0.28125,-2.02344 0.546875,-4.01954 1.355469,-5.89454 1.683594,-3.90625 3.699218,-8.15625 7.601562,-9.83203 -3.75,2.62891 -6.378906,6.80469 -7.128906,11.32422 3.132812,-6.11719 8.816406,-10.86719 15.378906,-12.86328 -4.53125,0.0742 -9.050781,0.65234 -13.460937,1.71094 1,-3.63672 2.179687,-7.55469 5.214843,-9.79688 1.636719,-1.20703 3.644532,-1.78515 5.628907,-2.22656 6.921875,-1.54297 14.144531,-1.71094 21.128911,-0.48828 1.5664,0.27344 3.29687,0.73828 4.10937,2.10937 0.52344,0.88282 0.54688,1.96875 0.49609,2.9961 -0.13671,2.9414 -0.72656,5.85937 -1.74218,8.62109 0.67578,0.89063 1.59765,1.59375 2.63672,2.00781 -0.15235,-0.44531 0.0156,-0.97656 0.39062,-1.2539 -1.00781,0.21484 -2.12109,-0.15235 -2.80469,-0.92578 0.91016,-0.79688 2.08985,-1.28516 3.29688,-1.35547 -0.32813,-2.08985 -0.3086,-4.23047 0.0469,-6.3125 0.1875,-1.11328 0.50782,-2.26563 1.3086,-3.0586 1.69531,-1.67578 4.62109,-0.91406 6.52343,0.51954 3.91016,2.95703 5.6875,7.88281 7.26563,12.52734 0.66797,1.96875 1.33984,3.94141 2.00781,5.91016 1.26563,-1.20313 3.38672,-1.08594 4.85938,-0.14844 1.47265,0.9375 2.42187,2.5039 3.1875,4.07812 1.28125,2.63672 2.19531,5.45313 2.70312,8.33985 0.57813,3.2539 0.41016,7.125 -2.17969,9.17187 3.32422,-4.99609 1.62891,-11.76172 -1.0039,-17.15234 -0.69141,-1.41016 -1.47266,-2.83985 -2.73047,-3.77735 -1.25391,-0.9375 -3.10547,-1.24609 -4.375,-0.32812 -0.48828,0.35156 -1.04297,-0.34375 -1.23438,-0.91406 -2.10546,-6.24219 -3.61328,-13.31641 -8.86718,-17.28516 -1.69141,-1.27734 -4.34766,-2.01953 -5.75,-0.42578 -0.45703,0.51953 -0.67969,1.20312 -0.85547,1.87109 -0.59766,2.26953 -0.78125,4.64453 -0.53125,6.97266 0.83984,0.19141 1.61719,0.66797 2.16797,1.33594 -1.16016,-0.91016 -2.81641,-1.13282 -4.17969,-0.57032 0.83594,0.22657 1.66797,0.44922 2.5,0.67188 -0.40234,-0.008 -0.80469,0.21094 -1.01563,0.55859 0.81641,-0.1914 1.62891,-0.3789 2.44532,-0.5664 -0.78907,0.53515 -1.57813,1.07031 -2.36719,1.60937 5.53516,0.85938 10.94531,2.52735 16.00391,4.9375 -3.07032,-1.03906 -6.14454,-2.08203 -9.21485,-3.125 -0.71094,-0.24219 -1.67187,-0.40234 -2.0664,0.23828 1.0039,0.35938 2.00781,0.71875 3.01171,1.08203 -0.7539,0.17579 -1.57031,0.35157 -2.28515,0.0508 -0.71094,-0.30469 -1.17188,-1.29688 -0.66406,-1.88282 -1.26563,-0.25 -2.52735,-0.5039 -3.79297,-0.7539 3.27343,2.04297 5.53515,5.38672 7.19922,8.875 1.66796,3.48437 2.83203,7.1914 4.49609,10.67968 0.39844,0.83594 1.00781,1.78125 1.9375,1.77735 1.125,-0.004 1.68359,-1.35156 1.89062,-2.45703 0.58985,-3.15235 0.6875,-6.39453 0.29297,-9.57422 0.73828,3.18359 0.75391,6.53515 0.0352,9.72265 -0.27734,1.22266 -1.01953,2.67969 -2.26172,2.56641 -0.52344,-0.0469 -0.96875,-0.38281 -1.35547,-0.73828 -1.1875,-1.09766 -2.07812,-2.51172 -2.55859,-4.05469 -0.0742,1.65625 -0.0859,3.36328 0.49609,4.91406 0.58594,1.55469 1.89063,2.9375 3.53125,3.15625 2.41016,0.32032 4.46875,-1.92578 5.20313,-4.25 0.73046,-2.32421 0.60937,-4.83984 1.25781,-7.1914 0.40234,-1.46875 1.8125,-3.11719 3.14453,-2.38672 0.61719,0.33594 0.89453,1.0625 1.08203,1.73828 0.79688,2.85547 0.86719,5.91406 0.19922,8.80469 -0.79688,-0.73438 -0.71094,-1.98438 -0.94531,-3.04688 -0.23047,-1.05859 -1.42188,-2.15625 -2.26953,-1.48437 -0.41407,0.33203 -0.48829,0.92578 -0.51172,1.45703 -0.11328,2.81641 0.40234,5.65625 1.49218,8.25781 0.50782,-0.10156 0.9336,-0.52344 1.04688,-1.02734 0.10937,0.80469 0.19922,1.69922 -0.27734,2.35547 -0.47657,0.65625 -1.75,0.66406 -1.92188,-0.12891 -0.47656,-2.19531 -0.95312,-4.39062 -1.42969,-6.58594 0.0703,2.05078 0.39453,4.09375 0.96485,6.0625 0.19531,0.66797 0.46875,1.39063 1.08203,1.71485 0.61328,0.32422 1.58594,-0.125 1.46094,-0.8086 0.0781,1.11328 0.14062,2.30078 -0.41407,3.26953 -0.55468,0.96875 -1.97656,1.51172 -2.8125,0.77344 -0.33593,-0.29687 -0.51172,-0.73047 -0.66406,-1.14844 -0.80078,-2.20703 -1.32031,-4.51562 -1.54297,-6.85156 -0.0742,3.11328 0.5586,6.24219 1.83594,9.07813 -1.92578,-2.35157 -2.92188,-5.44922 -2.73047,-8.48438 -0.32422,1.82031 -0.66015,3.67969 -1.58984,5.27735 -0.92578,1.59765 -2.57422,2.90625 -4.41797,2.89843 -3.53516,-0.0117 -7.07031,-0.0273 -10.60547,-0.0391 2.15625,-1.03125 4.67578,-0.625 7.0625,-0.53516 2.38281,0.0898 5.12891,-0.35937 6.39844,-2.38671 1.11328,-1.77344 0.9375,-4.51563 2.8125,-5.44141 2.41406,-1.19141 3.78515,-4.18359 3.10547,-6.79297 0.65625,3.74219 -3.05079,7.5625 -6.80469,7.01172 0.64844,0.13672 1.30078,0.27344 1.95312,0.41016 -0.29687,2.20312 -0.84375,4.76171 -2.85546,5.69921 -0.82032,0.37891 -1.7461,0.41407 -2.64844,0.4375 -2.04688,0.0586 -4.09375,0.11719 -6.14063,0.17579 2.26953,-3.15235 5.17188,-6.63672 9.05078,-6.54688 -2.01171,-0.24219 -2.4414,-2.91406 -2.59375,-4.93359 -0.46093,-6.0586 -3.37109,-12.0625 -8.36718,-15.5 -4.9961,-3.44141 -12.11328,-3.89063 -17.09766,-0.42969 3.328125,-2.44141 7.69531,-3.40625 11.73828,-2.59766 4.04297,0.8086 7.70313,3.38282 9.83985,6.91797 -1.58594,-2.8125 -3.44532,-5.57031 -6.07032,-7.4414 C 107.14844,186.5 101.21875,186.25 96.8125,188.85937 c -6.070312,3.59375 -8.328125,11.36719 -8.371094,18.4336 1.574219,0.0352 3.148438,0.0742 4.722656,0.11328 -0.320312,-0.55859 0.296876,-1.25 0.933594,-1.34766 0.632813,-0.0977 1.269532,0.14063 1.914063,0.14453 1.148437,0.0117 2.175781,-0.71093 2.976562,-1.53515 2.738279,-2.8125 3.421879,-8.05469 0.277344,-10.40235 -1.640625,-1.22265 -4.03125,-1.32421 -5.765625,-0.23828 1.921875,-1.71093 5.1875,-1.30468 6.92969,0.58594 1.74609,1.89063 2.00781,4.86328 1.01172,7.23438 -0.9961,2.37109 -3.078129,4.16406 -5.41016,5.25 1.058594,0.22265 2.113281,0.44531 3.171875,0.66796 -1.96875,-0.125 -3.917969,-0.61328 -5.714844,-1.42968 0.605469,0.37109 1.210938,0.74218 1.8125,1.11718 -4.527343,0.15625 -9.058593,0.31641 -13.589843,0.47266 4.855468,0.0117 9.714843,0.0195 14.570312,0.0312 1.96875,0.004 4.5625,0.53906 4.72656,2.50781 0.28125,3.31641 3.1211,6.19141 6.41407,6.66797 3.28906,0.48047 6.74609,-1.35937 8.34375,-4.28125 1.59765,-2.92187 1.33593,-6.71875 -0.5,-9.49609 -1.82422,-2.76563 -5.37891,-4.5 -8.5586,-3.58985 4.15235,-0.1289 8.31641,2.72657 9.375,6.75391 1.0586,4.02734 -1.40234,8.75391 -5.40234,9.88672 -3.9961,1.13672 -8.73828,-1.89844 -9.09766,-6.04297 -0.17578,-2.01172 0.5586,-3.98828 1.46094,-5.78906 1.00781,-2.01172 2.23828,-3.90625 3.66406,-5.64453 1.01563,-1.23828 2.21485,-2.44532 3.76563,-2.85938 2.21875,-0.58984 4.59765,0.66797 6.00781,2.48438 1.41406,1.8125 2.0625,4.08984 2.67969,6.30859 -1.38672,-4.1875 -5.37891,-7.37891 -9.76172,-7.80469 4.92578,1.07032 9.14453,5.14063 10.14844,10.08985 1.0039,4.94922 -1.41797,10.47656 -5.85547,12.87109 -4.44141,2.39453 -10.54297,1.26953 -13.66407,-2.69922 -1.355465,-1.72265 -2.132809,-3.83984 -2.605465,-5.98047 0.125,3.42969 1.914063,6.75782 4.699215,8.75391 -3.18359,-1.76172 -5.453121,-5.09766 -5.925778,-8.71484 0.07422,3.44921 2.050782,6.79296 5.031248,8.52343 -11.656248,-0.11328 -23.316404,-0.12109 -34.972654,-0.0234 2.179688,-1.74219 3.902344,-4.04688 4.953125,-6.63282 -1.808593,2.76563 -3.742187,5.64844 -6.664062,7.17969 -3.082031,1.61328 -7.039063,1.39844 -9.925781,-0.54297 -2.890626,-1.9414 -4.589844,-5.52344 -4.265626,-8.99219 -0.191406,-0.16796 -0.515624,-0.13281 -0.667968,0.0664 0.0625,2.81641 1.042968,5.60547 2.75,7.84375 -2.25,-1.9375 -3.507813,-4.98047 -3.285156,-7.94531 -1.183594,0.1875 -2.609376,-0.0312 -3.199219,-1.07813 -0.585938,-1.04297 0.671875,-2.69531 1.660156,-2.01172 -0.777344,-3.72656 0.04297,-7.75781 2.210937,-10.88281 2.171876,-3.125 5.660157,-5.29687 9.417969,-5.85937 1.078125,-0.16016 2.253907,-0.23047 3.078125,-0.94141 0.828125,-0.70703 0.867188,-2.35937 -0.179687,-2.66797 -0.496094,-0.14844 -1.023438,0.0664 -1.539063,0.0859 -0.519531,0.0156 -1.152344,-0.35547 -1.035156,-0.85938 1.011719,-0.94531 2.394531,-1.47656 3.777344,-1.45312 2.695312,-13.91406 14.53125,-25.57813 28.460937,-28.04688 13.929689,-2.46875 29.046879,4.41797 36.343749,16.5586 3.51953,5.85937 5.29688,12.88672 4.28516,19.65234 -0.71875,-0.67969 -1.86719,-0.32422 -2.82422,-0.0703 -0.95313,0.25391 -2.29688,0.13281 -2.5,-0.83203 -1.33984,-6.28516 -3.14453,-12.90235 -7.88281,-17.23438 -4.13282,-3.77734 -9.88282,-5.21484 -15.44922,-5.80859 -7.031252,-0.75391 -14.183596,-0.37891 -21.097659,1.10547 -2.421875,0.52344 -4.898437,1.22265 -6.804687,2.80859 m 18.652344,13.60156 c 3.691406,-1.73437 8.015622,-1.03515 12.027342,-0.30078 -1.64062,-1.11328 -3.59375,-1.66797 -5.53125,-2.10156 -3.406249,-0.75781 -6.886718,-1.18359 -10.374999,-1.27734 -0.984375,-0.0234 -1.980469,-0.0234 -2.949219,0.15234 -1.375,0.24219 -2.667968,0.82813 -3.898437,1.48438 -4.738281,2.52343 -8.847656,6.22656 -11.84375,10.68359 -0.06641,0.0977 -0.132813,0.20312 -0.132813,0.32031 0,0.12891 0.08203,0.24219 0.160157,0.34766 1.132812,1.58984 0.929687,3.99219 -0.449219,5.37109 0.382812,-0.85937 0.667969,-1.76172 0.847656,-2.6875 0.105469,-0.54297 0.171875,-1.11719 -0.02734,-1.63281 -0.199218,-0.51172 -0.742187,-0.93359 -1.277343,-0.8125 0.761719,0.34766 1.144531,1.25 1.128906,2.08984 -0.01953,0.83985 -0.355469,1.63282 -0.6875,2.40235 -0.25,0.58593 -0.648437,1.26562 -1.285156,1.24609 -0.06641,0.39844 -0.136719,0.79297 -0.203125,1.19141 5.007812,0.49218 10.195312,-1.35547 13.765625,-4.90625 1.882812,-1.8711 3.304687,-4.14844 4.894531,-6.27344 1.589844,-2.125 3.433594,-4.16797 5.835938,-5.29688 M 69.72266,205.7226 c 3.15625,0.0937 6.324219,-0.23047 9.390625,-0.96875 -0.996093,0.6875 -2.246093,0.85937 -3.449219,1.01171 -2.300781,0.28516 -4.625,0.54688 -6.929687,0.30469 -2.308594,-0.23828 -4.621094,-1.01953 -6.332031,-2.58594 -1.710938,-1.57031 -2.722656,-4.0039 -2.226563,-6.26953 0.328125,-1.48437 -0.898437,-2.94922 -2.332031,-3.4375 -1.433594,-0.48828 -3,-0.25 -4.496094,-0.008 2.832032,-0.73828 5.667969,-1.48047 8.5,-2.22266 -3.621094,-0.53125 -7.402344,0.94922 -9.945312,3.58204 -2.546875,2.6289 -3.890625,6.30859 -3.984375,9.97265 -0.02344,0.9336 0.03125,1.86328 0.08594,2.79297 0.445313,0.0234 0.890625,0.043 1.339844,0.0664 -0.09766,-0.97266 0.949219,-1.63282 1.878906,-1.9336 0.925782,-0.30468 2.023438,-0.60937 2.375,-1.51953 0.292969,-0.7539 1.402344,-0.83203 2.070313,-0.38672 0.671875,0.44922 1.042969,1.21485 1.484375,1.89063 0.441406,0.67578 1.085937,1.33594 1.890625,1.34375 6.128906,0.0469 12.253906,0.0547 18.382812,0.0195 0.695313,-0.92578 1.390625,-1.85156 2.085938,-2.77734 0.113281,-0.14844 0.230469,-0.3086 0.25,-0.4961 3.296875,-0.82812 5.824219,-3.45312 7.851562,-6.18359 2.027344,-2.73047 3.789063,-5.73047 6.40625,-7.90235 2.195313,-1.82812 4.894531,-2.96875 7.664062,-3.66406 -2.273437,-0.53906 -4.710937,-0.0898 -6.792968,0.96875 -2.082031,1.05469 -3.835937,2.6875 -5.289063,4.51563 -1.648437,2.07031 -2.945312,4.41797 -4.71875,6.38281 -3.273437,3.64062 -8.140624,5.78906 -13.03125,5.75391 -0.589843,-0.004 -1.214843,-0.0312 -1.726562,0.26171 -0.507812,0.29688 -0.800781,1.05469 -0.402344,1.48829 M 130.0586,192.78096 c 0.35938,0.0312 0.71875,0.0625 1.07813,0.0898 0.91797,-6.42968 -0.89844,-13.08203 -4.33203,-18.59375 -4.92578,-7.91797 -13.23047,-13.64062 -22.3711,-15.42187 -9.140624,-1.77735 -18.984374,0.41015 -26.511718,5.90234 -7.527344,5.48828 -12.632813,14.19531 -13.753906,23.45703 1.21875,-0.88672 1.570312,-2.51172 1.941406,-3.97265 2.714844,-10.75 11.222656,-19.84766 21.753906,-23.25782 10.535157,-3.41015 22.746102,-1.02734 31.226562,6.09766 7.41407,6.22266 11.8711,16.05078 10.96875,25.69922 m -17.16406,20.25391 c 1.83985,-1.98438 2.33985,-5.13282 1.11719,-7.55079 -1.22266,-2.41796 -4.12109,-3.88671 -6.77344,-3.35156 -0.83203,0.17188 -1.63281,0.52344 -2.29687,1.05469 -0.92969,0.74609 -1.55469,1.82422 -1.89844,2.96484 -0.69922,2.29297 -0.25,4.95703 1.33984,6.7461 1.59375,1.78906 4.33985,2.52734 6.53125,1.57031 0.75391,-0.32422 1.42188,-0.82813 1.98047,-1.43359 m -6.22265,-26.98829 c 0.82031,-2.48437 1.29296,-5.08203 1.40625,-7.69531 0.0273,-0.6914 0.0273,-1.40234 -0.22266,-2.04297 -0.33594,-0.8789 -1.10938,-1.53125 -1.96875,-1.91797 -0.85547,-0.39062 -1.79688,-0.53906 -2.72656,-0.66406 -6.992194,-0.94531 -14.144538,-0.67578 -21.042975,0.78906 -1.832032,0.38672 -3.730469,0.90625 -5.085938,2.20313 -0.65625,0.62891 -1.148438,1.41016 -1.59375,2.20312 -0.941406,1.6836 -1.703125,3.46875 -2.265625,5.3125 6.894531,-1.49218 14.011719,-1.96484 21.042969,-1.39453 3.605468,0.28907 7.222659,0.85938 10.582039,2.19532 0.47265,-0.48047 0.70703,-1.14454 0.89843,-1.79297 0.72657,-2.42969 1.10157,-4.96875 1.10547,-7.50391 0.61719,0.625 0.54688,1.62891 0.4336,2.49609 -0.3125,2.42969 -0.65235,4.94532 -1.94141,7.03125 0.45703,0.26172 0.91797,0.51954 1.37891,0.78125 m -22.578133,24.41797 c -8.464844,0.44922 -16.945312,0.58203 -25.421875,0.39063 -1.832031,-0.0391 -3.675781,-0.0937 -5.476563,0.23047 -0.175781,0.0352 -0.363281,0.0742 -0.484374,0.20703 -0.175782,0.1914 -0.140626,0.49219 -0.08203,0.74609 0.691406,3.00391 3.28125,5.45313 6.296875,6.07031 3.015625,0.61719 6.304688,-0.57421 8.3125,-2.91015 0.671875,-0.77735 1.277344,-1.72266 2.257813,-2.02735 5.664062,-1.78125 11.714844,-1.69921 17.648437,-1.77343 4.171875,-0.0547 8.347657,-0.19141 12.515625,-0.41407 0.378905,-0.0195 0.832035,-0.0898 0.988285,-0.4375 -7.750003,0.27344 -15.500003,0.54688 -23.250003,0.82032 -2.480469,0.0859 -5.085938,0.21093 -7.195313,1.52343 0.3125,-0.40234 0.621094,-0.80078 0.933594,-1.20312 -0.652344,0.41797 -1.304688,0.83594 -1.960938,1.25781 0.113281,-0.42969 0.367188,-0.8164 0.714844,-1.09375 -0.328125,-0.18359 -0.675781,0.1875 -0.878906,0.5 -1.53125,2.40625 -3.738281,4.53906 -6.503907,5.21875 -2.078124,0.50781 -4.359374,0.125 -6.160156,-1.03515 -1.796875,-1.16407 -3.085937,-3.08594 -3.480468,-5.19141 10.414062,-0.42578 20.910156,0.60156 31.226562,-0.87891 m -5.410156,-0.23047 c -0.09766,-0.42187 -0.476563,-0.73437 -0.886719,-0.8789 -0.410156,-0.14063 -0.851563,-0.14063 -1.285156,-0.14063 -8.683594,0.0273 -17.363281,0.0547 -26.046875,0.0781 0.06641,0.64062 0.6875,1.10547 1.316406,1.22656 0.632812,0.125 1.28125,-0.0117 1.914062,-0.10547 1.492188,-0.21875 3.007813,-0.21875 4.515626,-0.21484 6.824218,0.0117 13.648437,0.0234 20.472656,0.0352 m -16.539063,-19 c -0.917969,1.86719 -1.597656,3.89063 -1.65625,5.97266 -0.0625,2.08203 0.554688,4.23438 1.957031,5.76953 1.558594,1.69922 3.910157,2.47656 6.210938,2.65625 0.117188,0.008 0.257812,0.008 0.335938,-0.0859 0.28125,-0.34375 0.269531,-0.8789 0.01562,-1.24609 -0.25,-0.36719 -0.703124,-0.57031 -1.148437,-0.57031 -2.617187,-0.0117 -4.828125,-2.22266 -5.644531,-4.71485 -0.8125,-2.48828 -0.511719,-5.19921 -0.07031,-7.78125 m 23.289063,16.10938 c -0.07813,-0.16016 -0.08594,-0.35547 -0.02344,-0.51953 -0.757812,0.0742 -1.542968,-0.21485 -2.066406,-0.76953 -0.242188,-0.25 -0.433594,-0.57422 -0.425781,-0.92578 0.01563,-0.5586 0.542969,-0.98047 1.082031,-1.125 0.523438,-0.13672 1.136719,-0.0625 1.507812,0.32812 0.453126,0.47656 0.410157,1.23438 0.253907,1.87109 -0.07422,0.28907 -0.160157,0.59766 -0.0625,0.87891 0.09766,0.27734 0.480469,0.47266 0.699219,0.26953 0.125,-0.11328 0.144531,-0.30078 0.15625,-0.46875 0.257812,-3.41406 1.101562,-6.78125 2.472656,-9.91797 -2.335938,2.98438 -4.917969,6.04297 -8.476563,7.33594 0.828125,0.92969 1.652344,1.85547 2.480469,2.78516 0.07813,0.0898 0.160156,0.17968 0.269531,0.23437 0.09766,0.0469 0.210938,0.0586 0.324219,0.0703 0.601562,0.0508 1.207031,0.0352 1.808594,-0.0469 m 15.01563,2.82812 c -0.0234,-0.46093 -0.41797,-0.83203 -0.855474,-0.97656 -0.433594,-0.14844 -0.90625,-0.11719 -1.363281,-0.0898 -5.242188,0.3125 -10.503907,-0.004 -15.75,0.1914 -0.683594,0.0273 -1.515625,0.16407 -1.75,0.80469 0.988281,-0.0156 1.976562,-0.0312 2.964843,-0.0469 0.203126,-0.004 0.414063,-0.004 0.597657,0.082 0.136719,0.0664 0.25,0.17578 0.386719,0.23828 0.164062,0.0742 0.355468,0.0742 0.535156,0.0703 5.078125,-0.0937 10.15625,-0.18359 15.23438,-0.27344 m -47.789068,-4.21875 c -0.07813,0.0859 -0.160156,0.17579 -0.195312,0.28907 -0.03516,0.10937 -0.02734,0.22656 -0.01563,0.33984 0.02734,0.30469 0.05469,0.60547 0.08203,0.90625 0.210938,-0.13672 0.480469,-0.14062 0.730469,-0.13672 1.433593,0.0156 2.867187,0.0312 4.300781,0.0469 0.109375,0 0.08984,-0.17188 0.03125,-0.26172 -0.675781,-1.0586 -1.367188,-2.13672 -2.339844,-2.92969 -0.132812,-0.10937 -0.296875,-0.22266 -0.46875,-0.19531 -0.121094,0.0195 -0.222656,0.10156 -0.3125,0.18359 -0.636718,0.55078 -1.242187,1.13672 -1.8125,1.75781 m -2.429687,2.59375 c 0.390625,-0.48828 1.105469,-0.52734 1.726562,-0.52734 8.136719,0.008 16.273438,0.0156 24.40625,0.0234 0.425781,0 0.90625,-0.0273 1.179688,-0.34766 -8.667969,-0.0234 -17.332031,-0.0195 -25.996094,0.008 0.21875,-0.0625 0.441406,-0.12109 0.664063,-0.18359 0.09766,-0.64062 -0.824219,-1.05078 -1.371094,-0.70703 -0.546875,0.34375 -0.699219,1.08984 -0.609375,1.73437 m 16.535156,4.42188 c 0.351563,-0.40234 0.703125,-0.80078 1.058594,-1.20313 -3.242188,0.0508 -6.484375,0.0977 -9.726563,0.14454 -1.488281,0.0234 -2.996094,0.043 -4.445312,-0.29688 0.65625,0.33594 1.203125,0.87891 1.542968,1.53516 0.863282,1.66797 2.578126,2.84375 4.429688,3.13281 1.851562,0.29297 3.800781,-0.26953 5.273438,-1.43359 0.695312,-0.54688 1.28125,-1.21485 1.867187,-1.87891 m 12.023437,-4.22656 c 0.125,0.21875 0.257813,0.44531 0.449219,0.61328 0.195313,0.16797 0.464844,0.26172 0.707031,0.18359 0.1875,-0.0625 0.328126,-0.21484 0.445313,-0.375 0.988281,-1.32422 0.914063,-3.33984 -0.171875,-4.58594 -0.476562,0.51172 -0.917969,1.05469 -1.328125,1.625 -0.269531,0.37891 -0.535156,0.79688 -0.546875,1.26172 -0.01172,0.45703 0.21875,0.87891 0.445312,1.27735 m -29.167968,0.1289 c -0.0625,-0.13281 -0.210938,-0.28906 -0.324219,-0.19531 0.08594,-0.23437 -0.242187,-0.39453 -0.488281,-0.42187 -0.796875,-0.0859 -1.605469,-0.0586 -2.398438,0.0742 -0.101562,0.0156 -0.207031,0.0391 -0.273437,0.11719 -0.0625,0.0664 -0.07422,0.16797 -0.08203,0.25781 -0.04688,0.42969 -0.06641,0.9375 0.265624,1.21485 0.203126,0.17578 0.492188,0.20703 0.757813,0.23047 1.0625,0.0898 2.125,0.14843 3.191406,0.17578 -0.210937,-0.48828 -0.425781,-0.97266 -0.648437,-1.45313 M 114.44531,171.5625 c 2.64844,1.27734 4.95313,3.17578 7.0625,5.22656 -4.10156,-4.95312 -10.48047,-7.92578 -16.90234,-7.8789 3.35937,0.57812 6.76953,1.16796 9.83984,2.65234 m -53.160154,20.78906 c -0.339844,-0.0781 -0.691406,-0.008 -1.035156,0.0625 -1.027344,0.21094 -2.054688,0.42578 -3.085938,0.63672 -0.05859,-0.004 -0.07422,0.0937 -0.03125,0.13281 0.03906,0.0391 0.105469,0.043 0.164063,0.043 0.648437,0 1.273437,0.26172 1.789063,0.64844 0.515624,0.39062 0.929687,0.89844 1.289062,1.4375 0.03516,-1.04297 0.351562,-2.07813 0.910156,-2.96094 m 72.683594,7.65235 c -0.0625,-0.17188 -0.32031,-0.10547 -0.46484,0.004 -0.79688,0.59375 -1.1836,1.58594 -1.42969,2.55078 -0.39063,1.51563 -0.51563,3.09766 -0.37891,4.65625 0.0117,0.11328 0.1211,0.26563 0.19922,0.17969 0.0156,-0.74219 0.0312,-1.48437 0.0469,-2.23047 0.008,-0.32422 0.0156,-0.64844 0.0781,-0.96875 0.082,-0.43359 0.26563,-0.83984 0.41016,-1.25781 0.3789,-1.0625 0.61328,-2.29688 1.53906,-2.93359 M 63.570312,187.03125 c 0.316407,-0.14844 0.683594,-0.35938 0.707032,-0.71094 0.01953,-0.25 -0.160156,-0.48437 -0.378906,-0.59765 -0.222657,-0.11719 -0.480469,-0.13672 -0.730469,-0.14063 -0.644531,-0.0117 -1.292969,0.0703 -1.914063,0.24609 0.714844,0.32032 1.429688,0.64063 2.148438,0.96485 -0.378906,0.11328 -0.785156,0.2539 -0.992188,0.58984 0.40625,-0.008 0.789063,-0.17969 1.160156,-0.35156 m 70.992188,16.02344 c -0.0937,-0.1211 -0.19922,-0.23828 -0.33984,-0.30078 -0.25,-0.10938 -0.54297,-0.004 -0.77344,0.14062 -0.92188,0.55859 -1.42578,1.73828 -1.1875,2.79297 0.11719,0.0156 0.16797,-0.14453 0.17969,-0.26172 0.0781,-0.66406 0.45312,-1.28906 1.0039,-1.67187 0.23438,-0.16407 0.53516,-0.28516 0.8086,-0.19922 0.51171,0.15625 0.61328,0.88672 1.07812,1.15234 -0.12891,-0.59766 -0.39453,-1.16797 -0.76953,-1.65234 m -49.757812,3.0625 c 0.148437,-0.0508 0.292968,-0.13672 0.382812,-0.26953 0.140625,-0.20313 0.121094,-0.48829 0.02344,-0.71875 -0.117188,-0.27735 -0.351563,-0.51172 -0.640626,-0.60157 -0.289062,-0.0898 -0.628906,-0.0195 -0.84375,0.19532 -0.28125,0.28906 -0.28125,0.79296 -0.02344,1.10546 0.257813,0.3125 0.71875,0.41797 1.101563,0.28907 m 36.484373,9.6289 c 0.24219,-0.44531 0.0703,-1.02734 0.30469,-1.47656 -0.0469,-0.0781 -0.17969,-0.0469 -0.22266,0.0312 -0.0469,0.082 -0.0312,0.17969 -0.0273,0.26953 0.0273,0.54297 -0.27734,1.0586 -0.6875,1.41406 -0.41016,0.35547 -0.91406,0.57422 -1.41016,0.79297 -0.32421,0.14063 -0.64843,0.28125 -0.96875,0.42188 -0.34765,0.14844 -0.69531,0.30078 -0.99218,0.53125 0.0156,0.11328 0.17578,0.11328 0.28125,0.0781 1.125,-0.35547 2.19922,-0.875 3.17578,-1.53906 0.21094,-0.14062 0.42187,-0.30078 0.54687,-0.52344 m -0.95703,-1.26172 c 0.0117,-0.10937 -0.0703,-0.26171 -0.15625,-0.19921 -0.0234,0.5625 -0.39062,1.05078 -0.80859,1.42187 -0.42188,0.37109 -0.91016,0.66016 -1.30469,1.05859 0.0312,0.0898 0.16797,0.0586 0.25,0.0117 0.45703,-0.26953 0.91797,-0.54297 1.29688,-0.91406 0.38281,-0.36719 0.67968,-0.85156 0.72265,-1.37891 z m 0,0"
         fill-opacity="1"
         fill-rule="nonzero"
         id="path41305" />
    </g>
    <g
       fill="#000000"
       fill-opacity="1"
       id="g41315">
      <g
         transform="translate(139.81624,198.21064)"
         id="g41313">
        <g
           id="g41311">
          <path
             d="M 0.140625,-37.390625 H 7.71875 l 0.859375,26.96875 h 0.28125 l 0.84375,-26.96875 h 7.265625 l 0.84375,26.96875 h 0.3125 l 0.8125,-26.96875 h 7.59375 L 22.546875,0 H 14.21875 l -0.75,-23.921875 h -0.25 L 12.453125,0 H 4.15625 Z m 0,0"
             id="path41309" />
        </g>
      </g>
    </g>
    <g
       fill="#000000"
       fill-opacity="1"
       id="g41323">
      <g
         transform="translate(168.18069,198.21064)"
         id="g41321">
        <g
           id="g41319">
          <path
             d="m 0.71875,0 v -37.390625 h 12.421875 v 5.171875 h -4.75 v 11.703125 h 3.765625 v 3.90625 H 8.390625 V -5.03125 H 13.21875 V 0 Z m 0,0"
             id="path41317" />
        </g>
      </g>
    </g>
    <g
       fill="#000000"
       fill-opacity="1"
       id="g41331">
      <g
         transform="translate(183.34522,198.21064)"
         id="g41329">
        <g
           id="g41327">
          <path
             d="m 0.71875,0 v -37.390625 h 8.140625 c 2.78125,0 4.878906,0.636719 6.296875,1.90625 1.425781,1.273437 2.140625,3.15625 2.140625,5.65625 V -7.59375 c 0,2.5 -0.710937,4.390625 -2.125,5.671875 C 13.765625,-0.640625 11.664062,0 8.875,0 Z M 8.0625,-6.015625 H 8.75 c 0.34375,0 0.570312,-0.101563 0.6875,-0.3125 0.125,-0.21875 0.1875,-0.628906 0.1875,-1.234375 v -22.21875 c 0,-0.625 -0.0625,-1.046875 -0.1875,-1.265625 C 9.320312,-31.265625 9.09375,-31.375 8.75,-31.375 H 8.0625 Z m 0,0"
             id="path41325" />
        </g>
      </g>
    </g>
    <g
       fill="#000000"
       fill-opacity="1"
       id="g41339">
      <g
         transform="translate(202.93722,198.21064)"
         id="g41337">
        <g
           id="g41335">
          <path
             d="m 0.71875,0 v -37.390625 h 8.140625 c 2.78125,0 4.878906,0.636719 6.296875,1.90625 1.425781,1.273437 2.140625,3.15625 2.140625,5.65625 V -7.59375 c 0,2.5 -0.710937,4.390625 -2.125,5.671875 C 13.765625,-0.640625 11.664062,0 8.875,0 Z M 8.0625,-6.015625 H 8.75 c 0.34375,0 0.570312,-0.101563 0.6875,-0.3125 0.125,-0.21875 0.1875,-0.628906 0.1875,-1.234375 v -22.21875 c 0,-0.625 -0.0625,-1.046875 -0.1875,-1.265625 C 9.320312,-31.265625 9.09375,-31.375 8.75,-31.375 H 8.0625 Z m 0,0"
             id="path41333" />
        </g>
      </g>
    </g>
    <g
       fill="#000000"
       fill-opacity="1"
       id="g41347">
      <g
         transform="translate(222.52922,198.21064)"
         id="g41345">
        <g
           id="g41343">
          <path
             d="M 0.71875,0 V -37.390625 H 8.296875 V 0 Z m 0,0"
             id="path41341" />
        </g>
      </g>
    </g>
    <g
       fill="#000000"
       fill-opacity="1"
       id="g41355">
      <g
         transform="translate(233.23876,198.21064)"
         id="g41353">
        <g
           id="g41351">
          <path
             d="m 0.71875,0 v -37.390625 h 7.921875 l 0.65625,5.21875 1.734375,18.3125 h 0.375 L 10.3125,-37.390625 H 16.875 V 0 H 8.96875 L 8.296875,-5.140625 6.359375,-24.78125 5.96875,-24.796875 7.234375,0 Z m 0,0"
             id="path41349" />
        </g>
      </g>
    </g>
    <g
       fill="#000000"
       fill-opacity="1"
       id="g41363">
      <g
         transform="translate(252.52825,198.21064)"
         id="g41361">
        <g
           id="g41359">
          <path
             d="m 9.15625,0.546875 c -5.71875,0 -8.578125,-2.617187 -8.578125,-7.859375 v -22.734375 c 0,-5.25 2.859375,-7.875 8.578125,-7.875 5.601562,0 8.425781,2.257813 8.46875,6.765625 v 10.09375 l -7.703125,-0.03125 v -10.546875 c 0,-0.539063 -0.257813,-0.8125 -0.765625,-0.8125 -0.53125,0 -0.796875,0.273437 -0.796875,0.8125 v 26.6875 c 0,0.53125 0.265625,0.796875 0.796875,0.796875 0.34375,0 0.617188,-0.070312 0.828125,-0.21875 V -16 h -0.71875 v -3.828125 H 17.65625 V -1.3125 c -2.125,1.2421875 -4.960938,1.859375 -8.5,1.859375 z m 0,0"
             id="path41357" />
        </g>
      </g>
    </g>
    <path
       stroke-linecap="butt"
       fill="none"
       stroke-linejoin="miter"
       d="m 196.35541,192.41796 c 0,0.28516 -0.11328,0.51954 -0.34375,0.70704 -0.23047,0.1875 -0.51172,0.28125 -0.84375,0.28125 -0.67188,0 -1.45313,-0.0977 -2.33985,-0.29688 -0.88671,-0.19922 -1.68359,-0.375 -2.3828,-0.53125 -0.59375,-0.125 -1.22266,-0.27734 -1.89063,-0.45703 -0.66797,-0.17578 -1.38672,-0.31641 -2.15234,-0.42188 -1.59765,0.60938 -3.23438,1.42969 -4.91406,2.46094 -1.67579,1.02734 -3.30078,2.21875 -4.875,3.57422 -1.11719,0.96484 -2.17578,1.98828 -3.16796,3.07422 -0.9961,1.08593 -1.8711,2.16015 -2.63282,3.22265 -0.75391,1.05859 -1.34375,2.07031 -1.76952,3.03906 -0.4297,0.96484 -0.64454,1.80469 -0.64454,2.52734 0,0.76563 0.25782,1.38281 0.76953,1.85156 0.51953,0.47266 1.32813,0.69532 2.42187,0.67579 1.09375,-0.043 2.2461,-0.28907 3.45704,-0.73829 1.21874,-0.44921 2.33203,-1.0039 3.33593,-1.66015 0.76953,-0.50391 1.5,-1.01172 2.19141,-1.52344 0.68749,-0.51562 1.35156,-1.04687 1.98827,-1.59765 0.0859,-0.0625 0.19141,-0.14453 0.32032,-0.23828 0.13281,-0.10157 0.23438,-0.1211 0.29688,-0.0586 0.0898,0.0898 0.10155,0.1875 0.0312,0.28906 -0.0625,0.0977 -0.14843,0.1875 -0.25391,0.27344 -0.63671,0.52344 -1.33593,1.08594 -2.09374,1.69141 -0.75391,0.60547 -1.51563,1.13672 -2.27735,1.59765 -1.07422,0.67578 -2.20312,1.25391 -3.38672,1.72266 -1.17968,0.46875 -2.40624,0.72656 -3.67968,0.76953 -1.07031,0.0234 -2.01562,-0.19141 -2.83984,-0.64063 -0.82422,-0.44921 -1.35547,-1.14453 -1.59375,-2.08593 -0.15234,0.0664 -0.32031,0.10547 -0.50781,0.1289 -0.18751,0.0195 -0.36719,0.0312 -0.54297,0.0312 -1.6836,0 -2.99609,-0.51171 -3.9375,-1.53906 -0.94141,-1.03125 -1.41406,-2.51171 -1.41406,-4.43359 0,-1.3789 0.27734,-2.73828 0.83594,-4.07422 0.5625,-1.33593 1.32421,-2.57031 2.28515,-3.69921 0.96094,-1.12891 2.02344,-2.08594 3.18359,-2.87109 1.77344,-1.17969 3.67578,-2.04297 5.70312,-2.58985 2.02344,-0.55078 4.21094,-0.82421 6.55078,-0.82421 1.20313,0 2.36328,0.0781 3.48047,0.23046 1.11718,0.15235 2.21484,0.35547 3.28906,0.61719 1.00391,-0.30469 2.02734,-0.52734 3.0625,-0.66406 1.04297,-0.14453 2.03515,-0.20703 2.97656,-0.18359 1.23047,0.043 2.2539,0.26953 3.07031,0.6875 0.82422,0.41796 1.23437,0.97656 1.23437,1.67578 z m -0.35938,0 c 0,-0.63671 -0.39062,-1.11718 -1.17187,-1.4414 -0.77344,-0.33203 -1.69922,-0.49609 -2.77343,-0.49609 -0.67969,0 -1.42969,0.0547 -2.25391,0.16796 -0.82031,0.10547 -1.63281,0.30079 -2.4375,0.58204 0.54297,0.13671 1.10156,0.28515 1.66797,0.44921 0.57031,0.16407 1.08593,0.3086 1.54687,0.44141 0.69922,0.17969 1.46484,0.375 2.29297,0.59375 0.83594,0.21875 1.58203,0.32812 2.23828,0.32812 0.59375,0 0.89062,-0.20703 0.89062,-0.625 z m -11.30077,-0.95312 c -1.64063,-0.19922 -3.45703,-0.29687 -5.45312,-0.29687 -2.17188,0 -4.20313,0.21484 -6.09375,0.64062 -1.89453,0.42969 -3.75,1.22266 -5.5664,2.38281 -1.25001,0.78516 -2.35157,1.71484 -3.30469,2.79297 -0.95312,1.07422 -1.69531,2.21093 -2.23828,3.41406 -0.53515,1.20312 -0.80078,2.41797 -0.80078,3.64843 0,1.88282 0.4375,3.28907 1.3164,4.21875 0.875,0.92969 2.04688,1.39453 3.51172,1.39453 0.15625,0 0.32031,-0.008 0.49609,-0.0312 0.17578,-0.0195 0.33985,-0.0547 0.48829,-0.0977 -0.0625,-0.98828 0.0898,-2.01172 0.45703,-3.07031 0.375,-1.0625 0.89843,-2.11719 1.56641,-3.16797 0.66796,-1.05078 1.42968,-2.05469 2.28515,-3.00781 0.85546,-0.94922 1.71875,-1.80078 2.58984,-2.55078 1.625,-1.37891 3.36719,-2.59766 5.23047,-3.65625 1.85937,-1.0625 3.69921,-1.93359 5.51562,-2.61328 z m 8.50781,9.52734 c 0.36718,0 0.63671,0.0898 0.80078,0.26562 0.16406,0.17188 0.25,0.36719 0.25,0.58594 0,0.39453 -0.17969,0.83203 -0.53125,1.3125 -0.34766,0.48437 -0.75781,0.96484 -1.22656,1.44531 -0.46876,0.48047 -0.90235,0.89844 -1.30078,1.25 -0.52344,0.48047 -1.00391,0.9375 -1.44141,1.36328 -0.4375,0.42969 -0.83594,0.82813 -1.1875,1.19531 -0.41797,0.4375 -0.71875,0.78516 -0.90625,1.04297 -0.17969,0.25 -0.27344,0.46094 -0.27344,0.63281 0,0.21875 0.12109,0.32813 0.36328,0.32813 0.26172,0 0.64453,-0.125 1.14453,-0.375 0.50391,-0.25 1.03125,-0.57422 1.58204,-0.97266 0.5664,-0.41015 1.18359,-0.89453 1.85155,-1.44921 0.66798,-0.5625 1.22266,-1.01954 1.66016,-1.3711 0.0625,-0.0664 0.13672,-0.11719 0.22266,-0.16015 0.0937,-0.0508 0.16797,-0.0391 0.23437,0.0312 0.0899,0.0859 0.0899,0.17968 0,0.28125 -0.0859,0.0937 -0.17188,0.17578 -0.25781,0.23828 -0.50781,0.4414 -1.08594,0.92968 -1.73047,1.46875 -0.64062,0.53515 -1.26953,1.01953 -1.88671,1.46093 -0.58595,0.41407 -1.16016,0.75 -1.72266,1 -0.55469,0.25391 -1.03125,0.37891 -1.42969,0.37891 -0.78906,0 -1.18359,-0.39453 -1.18359,-1.1875 0,-0.52344 0.24219,-1.125 0.72656,-1.80469 0.41407,-0.5664 0.81641,-1.05468 1.21094,-1.46093 0.39843,-0.40625 0.93359,-0.91407 1.61328,-1.53125 0.24219,-0.23828 0.54688,-0.51172 0.91406,-0.81641 0.375,-0.30469 0.74609,-0.62109 1.11719,-0.94531 0.37109,-0.33203 0.68359,-0.62891 0.9375,-0.89063 0.2539,-0.26953 0.38281,-0.47656 0.38281,-0.625 0,-0.13671 -0.0781,-0.20312 -0.23047,-0.20312 -0.28516,0 -0.75391,0.16797 -1.41406,0.5 -0.65625,0.32422 -1.39844,0.75391 -2.21875,1.28125 -0.82031,0.52344 -1.60937,1.0664 -2.36718,1.6289 -0.75391,0.55469 -1.3711,1.0625 -1.85157,1.52344 -0.54687,0.50391 -1.02343,0.97266 -1.42968,1.41016 -0.40626,0.4375 -0.82032,0.90625 -1.25,1.39453 -0.42579,0.49218 -0.92579,1.10937 -1.49219,1.85546 -0.13281,0 -0.23828,-0.0781 -0.3125,-0.23437 -0.0742,-0.14844 -0.11328,-0.32422 -0.11328,-0.51953 0,-0.24219 0.20313,-0.69141 0.60937,-1.34766 0.40234,-0.66015 0.95313,-1.42968 1.65235,-2.32031 0.70312,-0.88672 1.48046,-1.77734 2.33593,-2.66797 0.83203,-0.89843 1.74219,-1.82421 2.72656,-2.77734 0.98438,-0.95703 1.97266,-1.87109 2.96485,-2.74218 1,-0.875 1.94531,-1.66407 2.83203,-2.36328 0.88671,-0.70703 1.66015,-1.26563 2.32031,-1.67578 0.23827,-0.15625 0.53906,-0.32422 0.89453,-0.5 0.36719,-0.17578 0.6875,-0.30469 0.97265,-0.39063 0.33203,-0.10937 0.65625,-0.17187 0.96876,-0.19531 0.3164,-0.0234 0.68358,-0.0391 1.10155,-0.0391 0.0899,0 0.0899,0.0234 0,0.0742 -0.48437,0.10547 -0.96484,0.3086 -1.44531,0.60938 -0.48047,0.29297 -0.875,0.55859 -1.17968,0.80078 -0.7461,0.54688 -1.6211,1.23047 -2.61329,2.05469 -0.99609,0.8164 -2.03124,1.71093 -3.10546,2.67578 -1.07422,0.96484 -2.11719,1.9375 -3.125,2.92187 -1.00781,0.98047 -1.89062,1.90234 -2.65625,2.75781 -0.0429,0.043 -0.0586,0.0742 -0.0469,0.0937 0.0117,0.0234 0.0273,0.0234 0.0469,0 0.41797,-0.34765 0.95313,-0.76172 1.61328,-1.24219 0.65625,-0.48046 1.35547,-0.95703 2.10156,-1.42578 0.74219,-0.47656 1.44922,-0.86718 2.11719,-1.17187 0.66797,-0.30469 1.21875,-0.45703 1.66016,-0.45703 z m 13.03905,0.26562 c -0.9414,0.84766 -1.85156,1.70313 -2.72656,2.5586 -0.8789,0.85546 -1.65625,1.63671 -2.33594,2.34765 -0.67578,0.71094 -1.21484,1.29688 -1.60937,1.75781 -0.41407,0.48047 -0.74609,0.90235 -1.00391,1.26563 -0.24999,0.35937 -0.375,0.64843 -0.375,0.86718 0,0.19922 0.10938,0.29688 0.32813,0.29688 0.21875,0 0.50781,-0.10547 0.86328,-0.3125 0.36719,-0.21094 0.74609,-0.44922 1.14062,-0.72266 0.39454,-0.27343 0.73438,-0.51953 1.01954,-0.73828 0.52343,-0.41797 1.0625,-0.87109 1.61718,-1.36328 0.5625,-0.49219 1.04297,-0.91406 1.4375,-1.26562 0.0625,-0.043 0.14063,-0.0859 0.22266,-0.12891 0.0937,-0.043 0.17187,-0.0234 0.23437,0.0625 0.0899,0.0859 0.0391,0.21875 -0.16016,0.39453 -0.48046,0.46094 -1.00781,0.92969 -1.58202,1.41016 -0.56641,0.48047 -1.0586,0.89062 -1.47266,1.21875 -0.32812,0.26172 -0.70313,0.55078 -1.13281,0.85937 -0.42579,0.30469 -0.85547,0.56641 -1.28125,0.78516 -0.42969,0.21875 -0.80469,0.32812 -1.13281,0.32812 -0.76953,0 -1.15235,-0.37109 -1.15235,-1.12109 0,-0.24219 0.0703,-0.53516 0.21485,-0.88281 0.14453,-0.35156 0.39062,-0.73828 0.73828,-1.15235 -0.94141,0.85547 -1.88281,1.59375 -2.82422,2.21875 -0.9414,0.625 -1.67578,0.9375 -2.20312,0.9375 -0.74609,0 -1.11719,-0.35937 -1.11719,-1.08203 -0.0195,-0.59375 0.21485,-1.32422 0.70703,-2.1875 0.49218,-0.86718 1.11329,-1.67187 1.85937,-2.41406 0.7461,-0.76562 1.58985,-1.47265 2.54297,-2.11718 0.95313,-0.64844 1.88672,-1.16797 2.80859,-1.55469 0.91797,-0.39844 1.68359,-0.59375 2.30079,-0.59375 0.30468,0 0.55468,0.0469 0.7539,0.14453 0.19531,0.0937 0.29688,0.28516 0.29688,0.57422 0,0.17187 -0.0664,0.39844 -0.20313,0.67578 -0.125,0.27344 -0.3789,0.59375 -0.75,0.96094 -0.0234,0.0273 -0.0273,0.0469 -0.0195,0.0586 0.0117,0.008 0.0273,0.004 0.0508,-0.0195 0.50781,-0.50781 1.01172,-0.93359 1.51562,-1.28125 0.5,-0.35156 0.88281,-0.57031 1.14453,-0.65625 0.17578,-0.0664 0.34766,-0.10156 0.50781,-0.11328 0.16406,-0.0117 0.33594,-0.0156 0.51173,-0.0156 z m -3.48047,0.51953 c 0,-0.23828 -0.13281,-0.35937 -0.39453,-0.35937 -0.46094,0 -1.24218,0.39062 -2.34765,1.17187 -1.10937,0.77344 -2.4375,1.90625 -3.9961,3.39063 -0.81249,0.8125 -1.51952,1.60547 -2.12499,2.375 -0.59766,0.76171 -0.89844,1.33203 -0.89844,1.69921 0,0.0899 0.0156,0.16797 0.0508,0.23047 0.0313,0.0664 0.125,0.0977 0.27734,0.0977 0.28516,0 0.7461,-0.19531 1.38282,-0.58594 0.63281,-0.39453 1.37109,-0.9414 2.21093,-1.64453 0.84375,-0.69922 1.69532,-1.48828 2.55078,-2.36328 0.39453,-0.39844 0.85157,-0.85156 1.36329,-1.36328 0.51171,-0.51562 0.96093,-1.01562 1.34765,-1.50781 0.38672,-0.5 0.57812,-0.87891 0.57812,-1.14063 z m 13.79297,-0.72265 c -0.94141,0.85547 -1.84376,1.72265 -2.71094,2.60156 -0.86719,0.87109 -1.63672,1.67578 -2.31641,2.41406 -0.67968,0.73047 -1.21875,1.33594 -1.61327,1.82031 -0.39063,0.48047 -0.73048,0.91406 -1.01954,1.29688 -0.28124,0.3789 -0.42187,0.66797 -0.42187,0.86718 0,0.19922 0.10938,0.29688 0.32812,0.29688 0.21875,0 0.50782,-0.0977 0.86719,-0.29688 0.36328,-0.19921 0.73047,-0.43359 1.10547,-0.70703 0.375,-0.27343 0.67969,-0.49609 0.92187,-0.67187 0.52344,-0.4375 1.07422,-0.90234 1.65234,-1.39453 0.58204,-0.49219 1.09376,-0.92578 1.53126,-1.30078 0.0859,-0.043 0.16015,-0.082 0.22265,-0.11328 0.0703,-0.0312 0.13672,-0.0156 0.20312,0.0508 0.11328,0.10937 0.0781,0.23046 -0.0976,0.35937 -0.30469,0.26172 -0.66016,0.57031 -1.0664,0.92187 -0.40626,0.34766 -0.80078,0.6836 -1.1875,1.00391 -0.37891,0.3125 -0.68751,0.57031 -0.92969,0.76953 -0.52735,0.39453 -1.11328,0.8125 -1.7461,1.25 -0.6328,0.4375 -1.19921,0.65625 -1.70312,0.65625 -0.4375,0 -0.73828,-0.10156 -0.90625,-0.3125 -0.16406,-0.20703 -0.24609,-0.47656 -0.24609,-0.80859 0,-0.48047 0.20703,-1.07031 0.625,-1.77344 -0.21875,0.21875 -0.4336,0.41406 -0.64063,0.57813 -0.21093,0.16796 -0.3789,0.30078 -0.50781,0.41015 -0.50781,0.41797 -1.10156,0.83984 -1.78125,1.26563 -0.67578,0.42968 -1.26953,0.64062 -1.76953,0.64062 -0.41797,0 -0.70703,-0.0937 -0.86719,-0.27734 -0.16406,-0.1875 -0.25,-0.42578 -0.25,-0.70703 0,-0.55079 0.21875,-1.1836 0.66016,-1.89453 0.4375,-0.71094 1.02734,-1.46875 1.76953,-2.27735 0.4414,-0.45703 0.96485,-0.95703 1.57422,-1.49218 0.61328,-0.53907 1.23437,-1.04297 1.85937,-1.51563 0.625,-0.46875 1.15625,-0.82422 1.59766,-1.0664 0.23828,-0.15235 0.58593,-0.26172 1.03515,-0.32813 0.44922,-0.0703 0.78126,-0.0898 1,-0.0625 -0.96093,0.78516 -1.91015,1.60156 -2.84765,2.44531 -0.92969,0.83985 -1.75,1.62891 -2.46094,2.36719 -0.71093,0.73047 -1.26562,1.33593 -1.66015,1.82031 -0.39063,0.48047 -0.72266,0.91406 -0.99219,1.29687 -0.28125,0.37891 -0.41797,0.66797 -0.41797,0.86719 0,0.19922 0.0977,0.29688 0.29688,0.29688 0.21874,0 0.51171,-0.0977 0.88281,-0.29688 0.37109,-0.19922 0.75781,-0.43359 1.15234,-0.70703 0.39453,-0.27344 0.72656,-0.51562 0.98828,-0.73828 0.28125,-0.21875 0.63672,-0.51563 1.06641,-0.89844 0.42578,-0.38281 0.83203,-0.76953 1.21093,-1.15234 0.38281,-0.38672 0.66407,-0.66406 0.83985,-0.83594 0.4414,-0.45703 0.96484,-0.97265 1.57422,-1.53906 0.61328,-0.57031 1.23046,-1.11328 1.84374,-1.62891 0.61329,-0.51562 1.14063,-0.90624 1.57813,-1.16796 0.17187,-0.11328 0.45703,-0.20313 0.85156,-0.26563 0.39453,-0.0664 0.70312,-0.0859 0.92188,-0.0664 z m 18.3242,-8.80468 c -1.52734,0 -2.88281,0.32812 -4.05858,0.98828 -1.16798,0.65625 -2.41016,1.53515 -3.71875,2.6289 -0.59375,0.48047 -1.26172,1.07422 -2.00782,1.77344 -0.74219,0.69922 -1.48827,1.42578 -2.23437,2.17187 -0.74609,0.74219 -1.41406,1.42969 -2.00781,2.0625 0.3125,0 0.6914,0 1.14062,0 0.44922,0 0.87891,0.0117 1.28907,0.0312 0.0508,0 0.11328,0.0117 0.18749,0.0391 0.0742,0.0234 0.0898,0.0859 0.0469,0.19531 -0.0195,0.0625 -0.0703,0.10156 -0.15235,0.11719 -0.0742,0.0117 -0.16406,0.0195 -0.27343,0.0195 -0.5,0 -0.96875,0.004 -1.39454,0.0156 -0.42968,0.008 -0.82812,0.0234 -1.20312,0.0469 -0.76562,0.85156 -1.49219,1.66406 -2.17968,2.44531 -0.69141,0.77734 -1.42578,1.58984 -2.20704,2.44531 -0.77344,0.85547 -1.6875,1.84375 -2.73437,2.96094 -1.73438,1.83984 -3.53516,3.49999 -5.40624,4.98828 -1.8711,1.49218 -3.82813,2.67968 -5.87891,3.5664 -2.04688,0.89062 -4.21093,1.33203 -6.48828,1.33203 -1.99218,0 -3.57421,-0.39063 -4.74609,-1.17187 -1.17187,-0.77344 -1.8125,-1.6875 -1.92578,-2.74219 -0.0625,-0.54297 -0.008,-0.82813 0.16797,-0.84766 0.0859,-0.0234 0.14063,0.0156 0.16015,0.10938 0.0234,0.0977 0.0429,0.23437 0.0664,0.41015 0.15625,1.09766 0.8086,1.98828 1.95703,2.67969 1.14844,0.6875 2.57813,1.03516 4.28125,1.03516 1.625,0 3.16015,-0.27735 4.60546,-0.82813 1.44141,-0.54297 2.82032,-1.27734 4.13672,-2.19531 1.31641,-0.92187 2.5625,-1.9375 3.7461,-3.05469 1.17968,-1.12109 2.30859,-2.24609 3.3828,-3.38671 0.52344,-0.56641 1.01954,-1.10547 1.49219,-1.6211 0.46875,-0.51562 0.96875,-1.05859 1.49218,-1.62499 0.52735,-0.57422 1.13673,-1.22657 1.82813,-1.95703 0.6875,-0.73438 1.50391,-1.58985 2.44531,-2.57422 -0.21875,-0.0234 -0.57031,-0.0274 -1.05078,-0.0156 -0.48046,0.008 -0.83203,0.0156 -1.05078,0.0156 -0.17578,0 -0.26562,-0.0586 -0.26562,-0.16797 0,-0.0664 0.0391,-0.11328 0.11328,-0.14453 0.082,-0.0352 0.14062,-0.0508 0.18359,-0.0508 0.19922,-0.0273 0.55859,-0.0391 1.08594,-0.0391 0.52344,0 0.98047,-0.0117 1.37891,-0.0312 0.26171,-0.28515 0.64843,-0.6914 1.16015,-1.22656 0.51953,-0.53906 1.11719,-1.13672 1.79688,-1.78906 0.67968,-0.65625 1.39062,-1.32031 2.1328,-1.98828 0.7461,-0.66797 1.49219,-1.26953 2.23829,-1.79687 1.28906,-0.96094 2.67187,-1.75391 4.14843,-2.375 1.48047,-0.625 2.97656,-0.9375 4.48828,-0.9375 1.18359,0 2.16016,0.17578 2.93749,0.52734 0.77735,0.34766 1.16798,0.81641 1.16798,1.40625 0,0.21875 -0.0859,0.36328 -0.26172,0.43359 -0.0859,0.0195 -0.19141,-0.0391 -0.31251,-0.17968 -0.12109,-0.14063 -0.23437,-0.26172 -0.34765,-0.35157 -0.30469,-0.30468 -0.73047,-0.60546 -1.28125,-0.89843 -0.54687,-0.29688 -1.23437,-0.44922 -2.07031,-0.44922 z m 5.61719,0 c -1.52734,0 -2.88281,0.32812 -4.05859,0.98828 -1.17188,0.65625 -2.41016,1.53515 -3.71875,2.6289 -0.59375,0.48047 -1.26172,1.07422 -2.00781,1.77344 -0.74219,0.69922 -1.48828,1.42578 -2.23828,2.17187 -0.74219,0.74219 -1.41016,1.42969 -2.00391,2.0625 0.3125,0 0.69141,0 1.14063,0 0.44922,0 0.87891,0.0117 1.28906,0.0312 0.0508,0 0.10937,0.0117 0.1875,0.0391 0.0742,0.0234 0.0898,0.0859 0.0469,0.19531 -0.0234,0.0625 -0.0742,0.10156 -0.15234,0.11719 -0.0742,0.0117 -0.16797,0.0195 -0.27344,0.0195 -0.50391,0 -0.96875,0.004 -1.39453,0.0156 -0.42969,0.008 -0.82813,0.0234 -1.20312,0.0469 -0.76563,0.85156 -1.49219,1.66406 -2.1836,2.44531 -0.6875,0.77734 -1.42187,1.58984 -2.20312,2.44531 -0.77734,0.85547 -1.6875,1.84375 -2.73437,2.96094 -1.73438,1.83984 -3.53516,3.49999 -5.40625,4.98828 -1.87109,1.49218 -3.83203,2.67968 -5.87891,3.5664 -2.04687,0.89062 -4.21093,1.33203 -6.48827,1.33203 -1.99219,0 -3.57422,-0.39063 -4.7461,-1.17187 -1.17187,-0.77344 -1.81249,-1.6875 -1.92578,-2.74219 -0.0625,-0.54297 -0.008,-0.82813 0.16798,-0.84766 0.0859,-0.0234 0.14062,0.0156 0.16015,0.10938 0.0234,0.0977 0.0429,0.23437 0.0664,0.41015 0.15234,1.09766 0.80468,1.98828 1.95703,2.67969 1.14843,0.6875 2.57421,1.03516 4.28124,1.03516 1.625,0 3.16016,-0.27735 4.60156,-0.82813 1.44532,-0.54297 2.82422,-1.27734 4.14062,-2.19531 1.31251,-0.92187 2.56251,-1.9375 3.7461,-3.05469 1.17969,-1.12109 2.30859,-2.24609 3.38281,-3.38671 0.52344,-0.56641 1.01953,-1.10547 1.49219,-1.6211 0.46874,-0.51562 0.96874,-1.05859 1.49218,-1.62499 0.52735,-0.57422 1.13672,-1.22657 1.82813,-1.95703 0.68749,-0.73438 1.5039,-1.58985 2.44531,-2.57422 -0.21876,-0.0234 -0.57032,-0.0274 -1.05078,-0.0156 -0.48047,0.008 -0.83203,0.0156 -1.05078,0.0156 -0.17578,0 -0.26563,-0.0586 -0.26563,-0.16797 0,-0.0664 0.0391,-0.11328 0.11328,-0.14453 0.082,-0.0352 0.14062,-0.0508 0.1836,-0.0508 0.19921,-0.0273 0.55859,-0.0391 1.08202,-0.0391 0.52735,0 0.98438,-0.0117 1.38282,-0.0312 0.26172,-0.28515 0.64844,-0.6914 1.16015,-1.22656 0.51954,-0.53906 1.11719,-1.13672 1.79688,-1.78906 0.67969,-0.65625 1.39063,-1.32031 2.13281,-1.98828 0.74218,-0.66797 1.48828,-1.26953 2.23828,-1.79687 1.28906,-0.96094 2.67188,-1.75391 4.14453,-2.375 1.48438,-0.625 2.98047,-0.9375 4.49219,-0.9375 1.18359,0 2.16015,0.17578 2.9375,0.52734 0.77733,0.34766 1.16796,0.81641 1.16796,1.40625 0,0.21875 -0.0859,0.36328 -0.26172,0.43359 -0.0859,0.0195 -0.19141,-0.0391 -0.3164,-0.17968 -0.11719,-0.14063 -0.23048,-0.26172 -0.34376,-0.35157 -0.30468,-0.30468 -0.73046,-0.60546 -1.28124,-0.89843 -0.54688,-0.29688 -1.23438,-0.44922 -2.07031,-0.44922 z m -11.95312,12.84765 c -0.54688,0.5039 -1.08203,1.05078 -1.61328,1.64453 -0.52344,0.58984 -0.96093,1.15625 -1.3164,1.70703 -0.34766,0.54687 -0.51954,0.99609 -0.51954,1.34765 0,0.4336 0.25,0.65234 0.75391,0.65234 0.33203,0 0.7461,-0.0976 1.25,-0.28906 0.50391,-0.19922 1.02734,-0.47265 1.57421,-0.82812 0.78907,-0.5 1.56251,-1.06641 2.31641,-1.69141 0.75391,-0.625 1.33985,-1.12109 1.75391,-1.49218 0.11328,-0.11328 0.22265,-0.19922 0.33202,-0.26563 0.10938,-0.0625 0.19923,-0.0625 0.26173,0 0.0664,0.0664 0.0703,0.14453 0.0156,0.23438 -0.0508,0.0859 -0.10937,0.16015 -0.17578,0.22265 -0.55078,0.50781 -1.14453,1.01953 -1.77735,1.53516 -0.6328,0.51172 -1.31249,1.01953 -2.03906,1.52343 -0.54687,0.3711 -1.15625,0.72657 -1.83593,1.0586 -0.67969,0.32422 -1.33594,0.48828 -1.97266,0.48828 -0.39062,0 -0.76953,-0.0977 -1.13281,-0.29688 -0.36328,-0.19922 -0.54297,-0.61718 -0.54297,-1.25 0,-0.4414 0.16406,-1.05078 0.4961,-1.83984 0.32812,-0.78515 1.01562,-1.68359 2.07031,-2.6914 0.74219,-0.70313 1.55077,-1.34766 2.42969,-1.9336 0.87499,-0.59375 1.72265,-1.07421 2.54296,-1.44531 0.82031,-0.37109 1.49609,-0.55859 2.01953,-0.55859 0.33203,0 0.57813,0.0742 0.73828,0.23047 0.16406,0.14843 0.25,0.34375 0.25,0.58593 0,0.35157 -0.17969,0.73438 -0.53125,1.14063 -0.34765,0.39844 -0.75,0.7539 -1.21093,1.05859 -0.52344,0.35156 -1.11328,0.65235 -1.77344,0.90625 -0.65625,0.25 -1.23828,0.375 -1.73828,0.375 -0.24219,0 -0.44922,-0.043 -0.625,-0.1289 z m 0.23047,-0.23047 c 0.0859,0.043 0.17187,0.0625 0.25781,0.0625 0.33203,0 0.8086,-0.12891 1.42578,-0.39453 0.625,-0.26172 1.2461,-0.64063 1.86328,-1.14453 0.45704,-0.375 0.82813,-0.73047 1.11328,-1.06641 0.28907,-0.34375 0.4336,-0.61328 0.4336,-0.8125 0,-0.125 -0.0781,-0.1914 -0.23438,-0.1914 -0.21875,0 -0.625,0.1914 -1.21875,0.57812 -0.58593,0.37891 -1.21484,0.84375 -1.88281,1.39453 -0.66797,0.54687 -1.2539,1.07031 -1.75781,1.57422 z m 16.1289,-3.8125 c -0.94141,0.85547 -1.84766,1.72265 -2.71094,2.60156 -0.86718,0.87109 -1.64062,1.67578 -2.32031,2.41406 -0.67578,0.73047 -1.21484,1.33594 -1.60937,1.82031 -0.39063,0.48047 -0.73047,0.91406 -1.01953,1.29688 -0.28516,0.3789 -0.42579,0.66797 -0.42579,0.86718 0,0.19922 0.10938,0.29688 0.32813,0.29688 0.21875,0 0.50781,-0.0977 0.86719,-0.29688 0.36328,-0.19921 0.73437,-0.43359 1.10546,-0.70703 0.375,-0.27343 0.6836,-0.49609 0.92188,-0.67187 0.52734,-0.4375 1.07813,-0.90234 1.65234,-1.39453 0.58594,-0.49219 1.09375,-0.92578 1.53516,-1.30078 0.082,-0.043 0.16015,-0.082 0.22266,-0.11328 0.0703,-0.0312 0.13671,-0.0156 0.19921,0.0508 0.11328,0.10937 0.082,0.23046 -0.0937,0.35937 -0.30469,0.26172 -0.66016,0.57031 -1.06641,0.92187 -0.40624,0.34766 -0.80468,0.6836 -1.1875,1.00391 -0.3789,0.3125 -0.6914,0.57031 -0.92968,0.76953 -0.53125,0.39453 -1.11328,0.8125 -1.75,1.25 -0.62891,0.4375 -1.19531,0.65625 -1.69922,0.65625 -0.4375,0 -0.74219,-0.10156 -0.90625,-0.3125 -0.16796,-0.20703 -0.25,-0.47656 -0.25,-0.80859 0,-0.48047 0.21094,-1.07031 0.625,-1.77344 -0.21875,0.21875 -0.42968,0.41406 -0.64062,0.57813 -0.20703,0.16796 -0.375,0.30078 -0.50391,0.41015 -0.50781,0.41797 -1.10156,0.83984 -1.78125,1.26563 -0.67969,0.42968 -1.26953,0.64062 -1.77344,0.64062 -0.41406,0 -0.70312,-0.0937 -0.86328,-0.27734 -0.16796,-0.1875 -0.24999,-0.42578 -0.24999,-0.70703 0,-0.55079 0.21874,-1.1836 0.65625,-1.89453 0.4414,-0.71094 1.03125,-1.46875 1.77343,-2.27735 0.4375,-0.45703 0.96094,-0.95703 1.57032,-1.49218 0.61718,-0.53907 1.23828,-1.04297 1.86328,-1.51563 0.62499,-0.46875 1.15625,-0.82422 1.59375,-1.0664 0.24218,-0.15235 0.58593,-0.26172 1.03515,-0.32813 0.44922,-0.0703 0.78515,-0.0898 1.00391,-0.0625 -0.96485,0.78516 -1.91406,1.60156 -2.84766,2.44531 -0.92968,0.83985 -1.75,1.62891 -2.46094,2.36719 -0.71094,0.73047 -1.26562,1.33593 -1.66015,1.82031 -0.39062,0.48047 -0.72266,0.91406 -0.9961,1.29687 -0.27734,0.37891 -0.41797,0.66797 -0.41797,0.86719 0,0.19922 0.10157,0.29688 0.29688,0.29688 0.21875,0 0.51563,-0.0977 0.88281,-0.29688 0.37501,-0.19922 0.75782,-0.43359 1.15625,-0.70703 0.39453,-0.27344 0.72266,-0.51562 0.98438,-0.73828 0.28515,-0.21875 0.64062,-0.51563 1.0664,-0.89844 0.42969,-0.38281 0.83204,-0.76953 1.21094,-1.15234 0.38672,-0.38672 0.66797,-0.66406 0.84375,-0.83594 0.4375,-0.45703 0.96094,-0.97265 1.57031,-1.53906 0.61719,-0.57031 1.23047,-1.11328 1.84375,-1.62891 0.61719,-0.51562 1.14453,-0.90624 1.58203,-1.16796 0.17188,-0.11328 0.45312,-0.20313 0.85156,-0.26563 0.39453,-0.0664 0.70313,-0.0859 0.92188,-0.0664 z m 2.98827,8.51171 c -0.55077,0.36719 -1.0664,0.67969 -1.54687,0.9375 -0.48047,0.25 -0.91015,0.375 -1.28125,0.375 -0.76562,0 -1.14843,-0.39453 -1.14843,-1.18359 0,-0.67969 0.30078,-1.41406 0.89844,-2.19922 0.60546,-0.79297 1.42186,-1.63672 2.45312,-2.53515 0.41796,-0.36719 0.84765,-0.75391 1.29297,-1.16016 0.44922,-0.40625 0.83203,-0.76953 1.14452,-1.08594 0.32032,-0.32031 0.47266,-0.53125 0.44922,-0.64062 -0.0195,-0.13281 -0.0859,-0.22266 -0.19921,-0.26563 -0.10548,-0.043 -0.28126,-0.11718 -0.52344,-0.22265 -0.28125,-0.15625 -0.48047,-0.30078 -0.58985,-0.43359 -0.34765,0.39453 -0.73046,0.80078 -1.14843,1.21874 -0.41797,0.41797 -0.84375,0.84375 -1.28516,1.28516 -0.58594,0.54297 -1.23437,1.14062 -1.9375,1.78515 -0.70312,0.64844 -1.28124,1.15625 -1.74218,1.52735 -0.0625,0.0664 -0.13672,0.11328 -0.22266,0.13281 -0.0937,0.0234 -0.16016,0 -0.20312,-0.0703 -0.0429,-0.0625 -0.0429,-0.13282 0,-0.20704 0.0429,-0.082 0.10156,-0.14453 0.16797,-0.1875 0.52734,-0.45703 1.11718,-0.98046 1.77343,-1.57031 0.66016,-0.59375 1.26953,-1.16406 1.83594,-1.70703 0.55078,-0.50781 1.03125,-0.97265 1.44531,-1.39843 0.41797,-0.42579 0.80078,-0.84766 1.15234,-1.26563 0,-0.24219 0.1211,-0.52344 0.36329,-0.85156 0.23828,-0.32813 0.54687,-0.63672 0.92186,-0.92188 0.30469,-0.21875 0.58985,-0.38671 0.85157,-0.5039 0.26172,-0.1211 0.48047,-0.19531 0.65625,-0.21485 0.0625,-0.0234 0.17968,-0.043 0.34375,-0.0664 0.16797,-0.0273 0.32422,-0.0391 0.47266,-0.0391 0.33203,0 0.5,0.0469 0.5,0.13672 0,0.0625 -0.14063,0.19531 -0.41797,0.39063 -0.27344,0.19921 -0.57422,0.39062 -0.89844,0.57812 -0.32812,0.18359 -0.5664,0.32031 -0.72266,0.41016 -0.35156,0.21875 -0.67968,0.4375 -0.98437,0.65625 -0.30468,0.21875 -0.45703,0.41406 -0.45703,0.58593 0,0.0899 0.10937,0.1875 0.32813,0.28907 0.21874,0.0976 0.38281,0.16406 0.48827,0.20703 0.61328,0.19922 0.92188,0.50781 0.92188,0.92578 0,0.42968 -0.16407,0.89453 -0.49609,1.39453 -0.32813,0.49218 -0.71875,0.97265 -1.17969,1.4414 -0.46094,0.47266 -0.875,0.87891 -1.25,1.22657 -0.60937,0.57421 -1.14453,1.07812 -1.60547,1.51562 -0.46093,0.44141 -0.84375,0.84375 -1.15234,1.21094 -0.34766,0.41796 -0.52344,0.74609 -0.52344,0.98828 0,0.21875 0.13281,0.32812 0.39453,0.32812 0.30469,0 0.72266,-0.15625 1.25781,-0.47265 0.53907,-0.32032 0.98438,-0.60157 1.33204,-0.84375 0.57031,-0.41016 1.1875,-0.89453 1.84375,-1.44922 0.65624,-0.5625 1.20703,-1.01953 1.64452,-1.3711 0.0625,-0.0664 0.13672,-0.11718 0.22266,-0.16015 0.0937,-0.0508 0.16797,-0.0391 0.23437,0.0312 0.0859,0.0859 0.082,0.17969 -0.008,0.28125 -0.0859,0.0937 -0.17188,0.17578 -0.25782,0.23828 -0.50391,0.44141 -1.07812,0.92969 -1.72265,1.46875 -0.64844,0.53516 -1.27734,1.01953 -1.88672,1.46094 z m 0,0"
       stroke="#000000"
       stroke-width="1.80693"
       stroke-opacity="1"
       stroke-miterlimit="4"
       id="path41365" />
    <g
       fill="#f9de7f"
       fill-opacity="1"
       id="g41373">
      <g
         transform="translate(159.76259,210.64793)"
         id="g41371">
        <g
           id="g41369">
          <path
             d="m 36.59375,-18.234375 c 0,0.292969 -0.121094,0.53125 -0.359375,0.71875 -0.230469,0.179687 -0.507813,0.265625 -0.828125,0.265625 -0.679688,0 -1.460938,-0.09375 -2.34375,-0.28125 -0.886719,-0.195312 -1.683594,-0.375 -2.390625,-0.53125 -0.585937,-0.132812 -1.214844,-0.285156 -1.890625,-0.453125 -0.667969,-0.175781 -1.382812,-0.320313 -2.140625,-0.4375 -1.605469,0.617187 -3.246094,1.4375 -4.921875,2.46875 -1.667969,1.03125 -3.292969,2.226563 -4.875,3.578125 -1.117188,0.960938 -2.171875,1.980469 -3.171875,3.0625 -0.992187,1.085938 -1.867187,2.15625 -2.625,3.21875 -0.75,1.0625 -1.339844,2.078125 -1.765625,3.046875 -0.429688,0.960937 -0.640625,1.804687 -0.640625,2.53125 0,0.761719 0.253906,1.375 0.765625,1.84375 0.519531,0.476563 1.328125,0.707031 2.421875,0.6875 1.09375,-0.054687 2.242187,-0.304687 3.453125,-0.75 1.21875,-0.449219 2.332031,-1 3.34375,-1.65625 0.757812,-0.5 1.484375,-1.003906 2.171875,-1.515625 0.695313,-0.519531 1.363281,-1.054688 2,-1.609375 0.08203,-0.0625 0.1875,-0.140625 0.3125,-0.234375 0.132813,-0.101562 0.238281,-0.117188 0.3125,-0.046875 0.08203,0.085937 0.09375,0.179687 0.03125,0.28125 -0.0625,0.09375 -0.152344,0.183594 -0.265625,0.265625 -0.636719,0.53125 -1.335938,1.101562 -2.09375,1.703125 -0.75,0.59375 -1.511719,1.121094 -2.28125,1.578125 C 17.738281,0.1875 16.609375,0.765625 15.421875,1.234375 14.242188,1.703125 13.023438,1.957031 11.765625,2 10.691406,2.019531 9.742188,1.804688 8.921875,1.359375 8.097656,0.910156 7.566406,0.21875 7.328125,-0.71875 7.171875,-0.65625 7,-0.613281 6.8125,-0.59375 6.625,-0.570312 6.441406,-0.5625 6.265625,-0.5625 c -1.679687,0 -2.992187,-0.507812 -3.9375,-1.53125 -0.9375,-1.03125 -1.40625,-2.507812 -1.40625,-4.4375 0,-1.382812 0.273437,-2.742188 0.828125,-4.078125 0.5625,-1.332031 1.320312,-2.5625 2.28125,-3.6875 0.96875,-1.132813 2.03125,-2.09375 3.1875,-2.875 1.78125,-1.1875 3.679688,-2.050781 5.703125,-2.59375 2.03125,-0.550781 4.210937,-0.828125 6.546875,-0.828125 1.207031,0 2.367188,0.07813 3.484375,0.234375 1.125,0.148437 2.222656,0.355469 3.296875,0.625 1,-0.3125 2.019531,-0.535156 3.0625,-0.671875 1.039062,-0.144531 2.03125,-0.207031 2.96875,-0.1875 1.226562,0.04297 2.253906,0.273438 3.078125,0.6875 0.820313,0.417969 1.234375,0.976562 1.234375,1.671875 z m -0.359375,0 c 0,-0.632813 -0.390625,-1.113281 -1.171875,-1.4375 -0.78125,-0.332031 -1.710938,-0.5 -2.78125,-0.5 -0.679688,0 -1.429688,0.05859 -2.25,0.171875 -0.824219,0.105469 -1.636719,0.304688 -2.4375,0.59375 0.539062,0.125 1.097656,0.273438 1.671875,0.4375 0.570313,0.167969 1.085937,0.3125 1.546875,0.4375 0.695312,0.179688 1.460938,0.375 2.296875,0.59375 0.832031,0.21875 1.578125,0.328125 2.234375,0.328125 0.59375,0 0.890625,-0.207031 0.890625,-0.625 z m -11.3125,-0.953125 c -1.636719,-0.1875 -3.453125,-0.28125 -5.453125,-0.28125 -2.167969,0 -4.199219,0.214844 -6.09375,0.640625 -1.886719,0.417969 -3.742188,1.210937 -5.5625,2.375 -1.25,0.792969 -2.351562,1.726563 -3.296875,2.796875 -0.949219,1.074219 -1.695313,2.214844 -2.234375,3.421875 -0.53125,1.199219 -0.796875,2.40625 -0.796875,3.625 0,1.886719 0.4375,3.296875 1.3125,4.234375 0.875,0.929688 2.046875,1.390625 3.515625,1.390625 0.144531,0 0.304688,-0.007813 0.484375,-0.03125 0.175781,-0.019531 0.34375,-0.050781 0.5,-0.09375 C 7.222656,-2.097656 7.375,-3.125 7.75,-4.1875 8.125,-5.25 8.644531,-6.304688 9.3125,-7.359375 c 0.664062,-1.050781 1.425781,-2.050781 2.28125,-3 0.851562,-0.957031 1.71875,-1.804687 2.59375,-2.546875 1.625,-1.382812 3.363281,-2.601562 5.21875,-3.65625 1.863281,-1.0625 3.703125,-1.9375 5.515625,-2.625 z m 0,0"
             id="path41367" />
        </g>
      </g>
    </g>
    <g
       fill="#f9de7f"
       fill-opacity="1"
       id="g41381">
      <g
         transform="translate(182.65607,210.64793)"
         id="g41379">
        <g
           id="g41377">
          <path
             d="m 10.546875,-9.65625 c 0.363281,0 0.628906,0.089844 0.796875,0.265625 0.164062,0.179687 0.25,0.375 0.25,0.59375 0,0.386719 -0.179688,0.824219 -0.53125,1.3125 -0.34375,0.480469 -0.757812,0.960937 -1.234375,1.4375 -0.46875,0.480469 -0.898437,0.898437 -1.28125,1.25 -0.53125,0.480469 -1.015625,0.933594 -1.453125,1.359375 -0.4375,0.429688 -0.835938,0.828125 -1.1875,1.203125 -0.417969,0.4375 -0.71875,0.78125 -0.90625,1.03125 -0.179688,0.25 -0.265625,0.464844 -0.265625,0.640625 0,0.21875 0.117187,0.328125 0.359375,0.328125 0.257812,0 0.640625,-0.125 1.140625,-0.375 0.507813,-0.25 1.035156,-0.570313 1.578125,-0.96875 0.570312,-0.414063 1.191406,-0.898437 1.859375,-1.453125 0.664063,-0.5625 1.21875,-1.019531 1.65625,-1.375 0.0625,-0.0625 0.132813,-0.113281 0.21875,-0.15625 0.09375,-0.039062 0.175781,-0.03125 0.25,0.03125 0.08203,0.085938 0.07813,0.179688 -0.01563,0.28125 -0.08594,0.09375 -0.167969,0.179688 -0.25,0.25 -0.511719,0.4375 -1.089844,0.929688 -1.734375,1.46875 -0.648437,0.53125 -1.273437,1.015625 -1.875,1.453125 -0.59375,0.417969 -1.171875,0.75 -1.734375,1 -0.554688,0.25 -1.027344,0.375 -1.421875,0.375 -0.792969,0 -1.1875,-0.3945312 -1.1875,-1.1875 0,-0.519531 0.238281,-1.117187 0.71875,-1.796875 C 4.710938,-3.257812 5.117188,-3.75 5.515625,-4.15625 5.910156,-4.5625 6.445312,-5.070312 7.125,-5.6875 7.363281,-5.925781 7.671875,-6.195312 8.046875,-6.5 c 0.375,-0.3125 0.742187,-0.628906 1.109375,-0.953125 0.375,-0.332031 0.6875,-0.628906 0.9375,-0.890625 0.257812,-0.257812 0.390625,-0.46875 0.390625,-0.625 0,-0.125 -0.07813,-0.1875 -0.234375,-0.1875 -0.292969,0 -0.765625,0.167969 -1.421875,0.5 -0.65625,0.324219 -1.398437,0.746094 -2.21875,1.265625 -0.8125,0.523437 -1.601563,1.0625 -2.359375,1.625 -0.75,0.5625 -1.371094,1.074219 -1.859375,1.53125 -0.542969,0.5 -1.015625,0.96875 -1.421875,1.40625 -0.40625,0.4375 -0.824219,0.90625 -1.25,1.40625 -0.425781,0.492187 -0.925781,1.105469 -1.5,1.84375 -0.125,0 -0.222656,-0.078125 -0.296875,-0.234375 -0.082031,-0.1484375 -0.125,-0.316406 -0.125,-0.515625 0,-0.238281 0.203125,-0.6875 0.609375,-1.34375 0.40625,-0.65625 0.960938,-1.425781 1.65625,-2.3125 0.695312,-0.894531 1.472656,-1.789063 2.328125,-2.6875 C 3.222656,-7.566406 4.132812,-8.488281 5.125,-9.4375 c 0.988281,-0.957031 1.976562,-1.875 2.96875,-2.75 1,-0.875 1.941406,-1.660156 2.828125,-2.359375 0.882813,-0.695313 1.65625,-1.253906 2.3125,-1.671875 0.238281,-0.15625 0.539063,-0.320312 0.90625,-0.5 0.363281,-0.175781 0.6875,-0.304688 0.96875,-0.390625 0.320313,-0.113281 0.640625,-0.179687 0.953125,-0.203125 0.320312,-0.01953 0.691406,-0.03125 1.109375,-0.03125 0.09375,0 0.09375,0.02344 0,0.0625 -0.480469,0.117188 -0.960937,0.324219 -1.4375,0.625 -0.480469,0.292969 -0.875,0.558594 -1.1875,0.796875 -0.742187,0.542969 -1.609375,1.226563 -2.609375,2.046875 -1,0.824219 -2.039062,1.71875 -3.109375,2.6875 -1.074219,0.960938 -2.117187,1.933594 -3.125,2.921875 -1,0.980469 -1.886719,1.898437 -2.65625,2.75 C 3.003906,-5.410156 2.988281,-5.378906 3,-5.359375 c 0.00781,0.023437 0.023438,0.023437 0.046875,0 C 3.460938,-5.703125 4,-6.113281 4.65625,-6.59375 5.320312,-7.082031 6.023438,-7.5625 6.765625,-8.03125 7.503906,-8.5 8.207031,-8.882812 8.875,-9.1875 9.550781,-9.5 10.109375,-9.65625 10.546875,-9.65625 Z m 0,0"
             id="path41375" />
        </g>
      </g>
    </g>
    <g
       fill="#f9de7f"
       fill-opacity="1"
       id="g41389">
      <g
         transform="translate(193.62655,210.64793)"
         id="g41387">
        <g
           id="g41385">
          <path
             d="m 12.609375,-9.390625 c -0.9375,0.855469 -1.84375,1.710937 -2.71875,2.5625 -0.875,0.855469 -1.65625,1.636719 -2.34375,2.34375 C 6.867188,-3.773438 6.332031,-3.1875 5.9375,-2.71875 c -0.40625,0.480469 -0.742188,0.902344 -1,1.265625 -0.25,0.355469 -0.375,0.640625 -0.375,0.859375 0,0.199219 0.109375,0.296875 0.328125,0.296875 0.21875,0 0.507813,-0.101563 0.875,-0.3125 0.363281,-0.207031 0.738281,-0.445313 1.125,-0.71875 0.394531,-0.269531 0.738281,-0.515625 1.03125,-0.734375 0.519531,-0.414062 1.054687,-0.867188 1.609375,-1.359375 0.5625,-0.5 1.039062,-0.925781 1.4375,-1.28125 0.0625,-0.039063 0.132812,-0.082031 0.21875,-0.125 0.09375,-0.039063 0.171875,-0.019531 0.234375,0.0625 0.09375,0.09375 0.03906,0.226563 -0.15625,0.390625 C 10.785156,-3.90625 10.257812,-3.429688 9.6875,-2.953125 9.113281,-2.472656 8.625,-2.066406 8.21875,-1.734375 7.882812,-1.472656 7.503906,-1.1875 7.078125,-0.875 6.648438,-0.570312 6.222656,-0.3125 5.796875,-0.09375 5.367188,0.125 4.988281,0.234375 4.65625,0.234375 c -0.761719,0 -1.140625,-0.375 -1.140625,-1.125 0,-0.238281 0.066406,-0.53125 0.203125,-0.875 0.144531,-0.351563 0.394531,-0.738281 0.75,-1.15625 -0.949219,0.855469 -1.890625,1.59375 -2.828125,2.21875 -0.9375,0.625 -1.671875,0.9375 -2.203125,0.9375 -0.738281,0 -1.109375,-0.363281 -1.109375,-1.09375 -0.019531,-0.582031 0.214844,-1.304687 0.703125,-2.171875 0.492188,-0.863281 1.109375,-1.671875 1.859375,-2.421875 0.738281,-0.769531 1.582031,-1.476563 2.53125,-2.125 0.957031,-0.644531 1.894531,-1.160156 2.8125,-1.546875 0.925781,-0.394531 1.695313,-0.59375 2.3125,-0.59375 0.300781,0 0.550781,0.054688 0.75,0.15625 0.195313,0.09375 0.296875,0.28125 0.296875,0.5625 0,0.179688 -0.070312,0.402344 -0.203125,0.671875 -0.125,0.273437 -0.375,0.59375 -0.75,0.96875 C 8.617188,-7.335938 8.613281,-7.320312 8.625,-7.3125 c 0.00781,0.011719 0.023438,0.00781 0.046875,-0.015625 0.5,-0.5 1,-0.921875 1.5,-1.265625 0.507813,-0.351562 0.894531,-0.578125 1.15625,-0.671875 0.175781,-0.0625 0.347656,-0.097656 0.515625,-0.109375 0.164062,-0.00781 0.332031,-0.015625 0.5,-0.015625 z M 9.125,-8.875 c 0,-0.238281 -0.132812,-0.359375 -0.390625,-0.359375 -0.460937,0 -1.242187,0.390625 -2.34375,1.171875 -1.105469,0.78125 -2.4375,1.917969 -4,3.40625 -0.804687,0.804688 -1.507813,1.589844 -2.109375,2.359375 -0.601562,0.761719 -0.90625,1.328125 -0.90625,1.703125 0,0.09375 0.015625,0.171875 0.046875,0.234375 0.03125,0.0625 0.125,0.09375 0.28125,0.09375 0.28125,0 0.738281,-0.191406 1.375,-0.578125 0.632813,-0.394531 1.375,-0.941406 2.21875,-1.640625 0.84375,-0.707031 1.691406,-1.5 2.546875,-2.375 0.394531,-0.394531 0.847656,-0.847656 1.359375,-1.359375 0.519531,-0.519531 0.96875,-1.023438 1.34375,-1.515625 C 8.929688,-8.222656 9.125,-8.601562 9.125,-8.875 Z m 0,0"
             id="path41383" />
        </g>
      </g>
    </g>
    <g
       fill="#f9de7f"
       fill-opacity="1"
       id="g41397">
      <g
         transform="translate(203.94012,210.64793)"
         id="g41395">
        <g
           id="g41393">
          <path
             d="M 12.609375,-9.59375 C 11.671875,-8.738281 10.769531,-7.875 9.90625,-7 c -0.867188,0.875 -1.640625,1.683594 -2.328125,2.421875 -0.679687,0.730469 -1.210937,1.335937 -1.59375,1.8125 -0.398437,0.492187 -0.742187,0.929687 -1.03125,1.3125 -0.28125,0.375 -0.421875,0.664063 -0.421875,0.859375 0,0.199219 0.109375,0.296875 0.328125,0.296875 0.21875,0 0.503906,-0.097656 0.859375,-0.296875 0.363281,-0.195312 0.734375,-0.429688 1.109375,-0.703125 0.375,-0.269531 0.679687,-0.492187 0.921875,-0.671875 0.53125,-0.4375 1.082031,-0.898438 1.65625,-1.390625 0.582031,-0.5 1.09375,-0.929687 1.53125,-1.296875 0.08203,-0.050781 0.15625,-0.09375 0.21875,-0.125 0.07031,-0.03125 0.140625,-0.015625 0.203125,0.046875 0.113281,0.117187 0.08203,0.234375 -0.09375,0.359375 -0.304687,0.273438 -0.65625,0.585938 -1.0625,0.9375 -0.40625,0.34375 -0.804687,0.679688 -1.1875,1 -0.386719,0.3125 -0.699219,0.570312 -0.9375,0.765625 -0.523437,0.398437 -1.101563,0.8125 -1.734375,1.25 -0.636719,0.4375 -1.210938,0.65625 -1.71875,0.65625 -0.4375,0 -0.742188,-0.105469 -0.90625,-0.3125 -0.15625,-0.207031 -0.234375,-0.476563 -0.234375,-0.8125 0,-0.476563 0.207031,-1.066406 0.625,-1.765625 -0.21875,0.21875 -0.433594,0.414062 -0.640625,0.578125 -0.210938,0.15625 -0.382812,0.292969 -0.515625,0.40625 -0.5,0.417969 -1.089844,0.839844 -1.765625,1.265625 -0.679688,0.4257812 -1.2695312,0.640625 -1.78125,0.640625 -0.414062,0 -0.703125,-0.09375 -0.859375,-0.28125 -0.164063,-0.1875 -0.25,-0.421875 -0.25,-0.703125 0,-0.550781 0.21875,-1.179688 0.65625,-1.890625 0.4375,-0.71875 1.0273438,-1.476563 1.765625,-2.28125 C 1.15625,-5.378906 1.679688,-5.875 2.296875,-6.40625 2.910156,-6.945312 3.53125,-7.453125 4.15625,-7.921875 4.78125,-8.398438 5.3125,-8.757812 5.75,-9 c 0.238281,-0.15625 0.582031,-0.265625 1.03125,-0.328125 0.445312,-0.0625 0.78125,-0.082031 1,-0.0625 -0.960938,0.78125 -1.90625,1.59375 -2.84375,2.4375 -0.929688,0.84375 -1.75,1.636719 -2.46875,2.375 -0.710938,0.730469 -1.257812,1.335937 -1.640625,1.8125 -0.398437,0.492187 -0.7304688,0.929687 -1,1.3125 -0.28125,0.375 -0.421875,0.664063 -0.421875,0.859375 0,0.199219 0.101562,0.296875 0.296875,0.296875 0.21875,0 0.515625,-0.097656 0.890625,-0.296875 0.375,-0.195312 0.753906,-0.429688 1.140625,-0.703125 C 2.128906,-1.566406 2.457031,-1.8125 2.71875,-2.03125 3.007812,-2.25 3.367188,-2.550781 3.796875,-2.9375 4.222656,-3.320312 4.625,-3.703125 5,-4.078125 c 0.382812,-0.382813 0.664062,-0.664063 0.84375,-0.84375 0.4375,-0.457031 0.960938,-0.972656 1.578125,-1.546875 0.613281,-0.570312 1.226563,-1.113281 1.84375,-1.625 0.613281,-0.519531 1.140625,-0.910156 1.578125,-1.171875 0.164062,-0.101563 0.445312,-0.1875 0.84375,-0.25 0.394531,-0.070313 0.703125,-0.097656 0.921875,-0.078125 z m 0,0"
             id="path41391" />
        </g>
      </g>
    </g>
    <g
       fill="#f9de7f"
       fill-opacity="1"
       id="g41405">
      <g
         transform="translate(214.22083,210.64793)"
         id="g41403">
        <g
           id="g41401">
          <path
             d="m 20.65625,-18.390625 c -1.53125,0 -2.886719,0.328125 -4.0625,0.984375 -1.167969,0.65625 -2.40625,1.53125 -3.71875,2.625 -0.59375,0.480469 -1.265625,1.074219 -2.015625,1.78125 -0.742187,0.699219 -1.484375,1.421875 -2.234375,2.171875 -0.742188,0.742187 -1.402344,1.429687 -1.984375,2.0625 0.300781,0 0.675781,0 1.125,0 0.445313,0 0.878906,0.011719 1.296875,0.03125 0.039062,0 0.097656,0.011719 0.171875,0.03125 0.082031,0.023437 0.101563,0.089844 0.0625,0.203125 -0.023437,0.0625 -0.074219,0.101562 -0.15625,0.109375 C 9.066406,-8.378906 8.976562,-8.375 8.875,-8.375 c -0.511719,0 -0.980469,0.00781 -1.40625,0.015625 -0.429688,0.011719 -0.828125,0.027344 -1.203125,0.046875 -0.761719,0.855469 -1.492187,1.671875 -2.1875,2.453125 -0.6875,0.773437 -1.421875,1.585937 -2.203125,2.4375 -0.773438,0.855469 -1.683594,1.84375 -2.734375,2.96875 C -2.585938,1.378906 -4.382812,3.039062 -6.25,4.53125 c -1.875,1.488281 -3.832031,2.675781 -5.875,3.5625 -2.050781,0.882812 -4.21875,1.328125 -6.5,1.328125 -1.988281,0 -3.566406,-0.390625 -4.734375,-1.171875 -1.175781,-0.773438 -1.820313,-1.683594 -1.9375,-2.734375 -0.0625,-0.542969 -0.0039,-0.828125 0.171875,-0.859375 0.08594,-0.023438 0.140625,0.015625 0.171875,0.109375 0.02344,0.101563 0.04297,0.242187 0.0625,0.421875 0.148437,1.09375 0.796875,1.984375 1.953125,2.671875 1.148438,0.695313 2.574219,1.046875 4.28125,1.046875 1.625,0 3.164062,-0.277344 4.609375,-0.828125 1.4375,-0.542969 2.8125,-1.277344 4.125,-2.203125 1.3125,-0.917969 2.5625,-1.933594 3.75,-3.046875 1.179687,-1.117187 2.304687,-2.246094 3.375,-3.390625 0.53125,-0.5625 1.03125,-1.097656 1.5,-1.609375 0.46875,-0.519531 0.964844,-1.0625 1.484375,-1.625 C 0.71875,-4.367188 1.328125,-5.019531 2.015625,-5.75 2.703125,-6.488281 3.519531,-7.351562 4.46875,-8.34375 4.25,-8.363281 3.894531,-8.367188 3.40625,-8.359375 2.925781,-8.347656 2.578125,-8.34375 2.359375,-8.34375 c -0.167969,0 -0.25,-0.050781 -0.25,-0.15625 0,-0.070312 0.035156,-0.125 0.109375,-0.15625 0.070312,-0.03125 0.128906,-0.046875 0.171875,-0.046875 0.195313,-0.019531 0.554687,-0.03125 1.078125,-0.03125 0.53125,0 0.992188,-0.00781 1.390625,-0.03125 C 5.117188,-9.054688 5.503906,-9.46875 6.015625,-10 c 0.519531,-0.539062 1.117187,-1.140625 1.796875,-1.796875 0.675781,-0.65625 1.382812,-1.316406 2.125,-1.984375 0.75,-0.664062 1.5,-1.257812 2.25,-1.78125 1.289062,-0.96875 2.675781,-1.765625 4.15625,-2.390625 1.476562,-0.625 2.972656,-0.9375 4.484375,-0.9375 1.175781,0 2.148437,0.179687 2.921875,0.53125 0.78125,0.355469 1.171875,0.824219 1.171875,1.40625 0,0.21875 -0.08594,0.367187 -0.25,0.4375 -0.09375,0.02344 -0.203125,-0.03906 -0.328125,-0.1875 -0.117188,-0.144531 -0.226562,-0.257813 -0.328125,-0.34375 -0.3125,-0.300781 -0.746094,-0.597656 -1.296875,-0.890625 -0.542969,-0.300781 -1.230469,-0.453125 -2.0625,-0.453125 z m 0,0"
             id="path41399" />
        </g>
      </g>
    </g>
    <g
       fill="#f9de7f"
       fill-opacity="1"
       id="g41413">
      <g
         transform="translate(219.83745,210.64793)"
         id="g41411">
        <g
           id="g41409">
          <path
             d="m 20.65625,-18.390625 c -1.53125,0 -2.886719,0.328125 -4.0625,0.984375 -1.167969,0.65625 -2.40625,1.53125 -3.71875,2.625 -0.59375,0.480469 -1.265625,1.074219 -2.015625,1.78125 -0.742187,0.699219 -1.484375,1.421875 -2.234375,2.171875 -0.742188,0.742187 -1.402344,1.429687 -1.984375,2.0625 0.300781,0 0.675781,0 1.125,0 0.445313,0 0.878906,0.011719 1.296875,0.03125 0.039062,0 0.097656,0.011719 0.171875,0.03125 0.082031,0.023437 0.101563,0.089844 0.0625,0.203125 -0.023437,0.0625 -0.074219,0.101562 -0.15625,0.109375 C 9.066406,-8.378906 8.976562,-8.375 8.875,-8.375 c -0.511719,0 -0.980469,0.00781 -1.40625,0.015625 -0.429688,0.011719 -0.828125,0.027344 -1.203125,0.046875 -0.761719,0.855469 -1.492187,1.671875 -2.1875,2.453125 -0.6875,0.773437 -1.421875,1.585937 -2.203125,2.4375 -0.773438,0.855469 -1.683594,1.84375 -2.734375,2.96875 C -2.585938,1.378906 -4.382812,3.039062 -6.25,4.53125 c -1.875,1.488281 -3.832031,2.675781 -5.875,3.5625 -2.050781,0.882812 -4.21875,1.328125 -6.5,1.328125 -1.988281,0 -3.566406,-0.390625 -4.734375,-1.171875 -1.175781,-0.773438 -1.820313,-1.683594 -1.9375,-2.734375 -0.0625,-0.542969 -0.0039,-0.828125 0.171875,-0.859375 0.08594,-0.023438 0.140625,0.015625 0.171875,0.109375 0.02344,0.101563 0.04297,0.242187 0.0625,0.421875 0.148437,1.09375 0.796875,1.984375 1.953125,2.671875 1.148438,0.695313 2.574219,1.046875 4.28125,1.046875 1.625,0 3.164062,-0.277344 4.609375,-0.828125 1.4375,-0.542969 2.8125,-1.277344 4.125,-2.203125 1.3125,-0.917969 2.5625,-1.933594 3.75,-3.046875 1.179687,-1.117187 2.304687,-2.246094 3.375,-3.390625 0.53125,-0.5625 1.03125,-1.097656 1.5,-1.609375 0.46875,-0.519531 0.964844,-1.0625 1.484375,-1.625 C 0.71875,-4.367188 1.328125,-5.019531 2.015625,-5.75 2.703125,-6.488281 3.519531,-7.351562 4.46875,-8.34375 4.25,-8.363281 3.894531,-8.367188 3.40625,-8.359375 2.925781,-8.347656 2.578125,-8.34375 2.359375,-8.34375 c -0.167969,0 -0.25,-0.050781 -0.25,-0.15625 0,-0.070312 0.035156,-0.125 0.109375,-0.15625 0.070312,-0.03125 0.128906,-0.046875 0.171875,-0.046875 0.195313,-0.019531 0.554687,-0.03125 1.078125,-0.03125 0.53125,0 0.992188,-0.00781 1.390625,-0.03125 C 5.117188,-9.054688 5.503906,-9.46875 6.015625,-10 c 0.519531,-0.539062 1.117187,-1.140625 1.796875,-1.796875 0.675781,-0.65625 1.382812,-1.316406 2.125,-1.984375 0.75,-0.664062 1.5,-1.257812 2.25,-1.78125 1.289062,-0.96875 2.675781,-1.765625 4.15625,-2.390625 1.476562,-0.625 2.972656,-0.9375 4.484375,-0.9375 1.175781,0 2.148437,0.179687 2.921875,0.53125 0.78125,0.355469 1.171875,0.824219 1.171875,1.40625 0,0.21875 -0.08594,0.367187 -0.25,0.4375 -0.09375,0.02344 -0.203125,-0.03906 -0.328125,-0.1875 -0.117188,-0.144531 -0.226562,-0.257813 -0.328125,-0.34375 -0.3125,-0.300781 -0.746094,-0.597656 -1.296875,-0.890625 -0.542969,-0.300781 -1.230469,-0.453125 -2.0625,-0.453125 z m 0,0"
             id="path41407" />
        </g>
      </g>
    </g>
    <g
       fill="#f9de7f"
       fill-opacity="1"
       id="g41421">
      <g
         transform="translate(225.45407,210.64793)"
         id="g41419">
        <g
           id="g41417">
          <path
             d="M 3.09375,-5.546875 C 2.539062,-5.046875 2,-4.5 1.46875,-3.90625 0.945312,-3.3125 0.507812,-2.738281 0.15625,-2.1875 c -0.34375,0.542969 -0.515625,0.984375 -0.515625,1.328125 0,0.4375 0.25,0.65625 0.75,0.65625 0.332031,0 0.75,-0.09375 1.25,-0.28125 0.5,-0.195313 1.023437,-0.472656 1.578125,-0.828125 0.789062,-0.5 1.5625,-1.0625 2.3125,-1.6875 0.757812,-0.625 1.347656,-1.125 1.765625,-1.5 0.101563,-0.101562 0.207031,-0.1875 0.3125,-0.25 C 7.722656,-4.820312 7.8125,-4.828125 7.875,-4.765625 c 0.070312,0.074219 0.078125,0.152344 0.015625,0.234375 -0.054687,0.085938 -0.109375,0.164062 -0.171875,0.234375 -0.554688,0.5 -1.148438,1.011719 -1.78125,1.53125 C 5.3125,-2.253906 4.632812,-1.75 3.90625,-1.25 3.363281,-0.875 2.75,-0.519531 2.0625,-0.1875 1.382812,0.132812 0.726562,0.296875 0.09375,0.296875 c -0.394531,0 -0.769531,-0.101563 -1.125,-0.296875 -0.363281,-0.195312 -0.546875,-0.613281 -0.546875,-1.25 0,-0.4375 0.167969,-1.046875 0.5,-1.828125 0.324219,-0.789063 1.0117188,-1.691406 2.0625,-2.703125 0.75,-0.695312 1.5625,-1.34375 2.4375,-1.9375 0.875,-0.59375 1.71875,-1.070312 2.53125,-1.4375 0.820313,-0.375 1.5,-0.5625 2.03125,-0.5625 0.320313,0 0.566406,0.078125 0.734375,0.234375 0.164062,0.148437 0.25,0.339844 0.25,0.578125 0,0.355469 -0.179688,0.734375 -0.53125,1.140625 -0.34375,0.40625 -0.75,0.761719 -1.21875,1.0625 -0.523438,0.355469 -1.109375,0.65625 -1.765625,0.90625 -0.65625,0.25 -1.234375,0.375 -1.734375,0.375 -0.25,0 -0.460938,-0.039063 -0.625,-0.125 z M 3.3125,-5.78125 c 0.09375,0.042969 0.179688,0.0625 0.265625,0.0625 0.332031,0 0.804687,-0.128906 1.421875,-0.390625 0.625,-0.257813 1.242188,-0.644531 1.859375,-1.15625 C 7.316406,-7.628906 7.6875,-7.976562 7.96875,-8.3125 c 0.289062,-0.34375 0.4375,-0.613281 0.4375,-0.8125 0,-0.132812 -0.078125,-0.203125 -0.234375,-0.203125 -0.21875,0 -0.625,0.195313 -1.21875,0.578125 -0.585937,0.386719 -1.210937,0.855469 -1.875,1.40625 -0.667969,0.542969 -1.257813,1.0625 -1.765625,1.5625 z m 0,0"
             id="path41415" />
        </g>
      </g>
    </g>
    <g
       fill="#f9de7f"
       fill-opacity="1"
       id="g41429">
      <g
         transform="translate(232.28599,210.64793)"
         id="g41427">
        <g
           id="g41425">
          <path
             d="M 12.609375,-9.59375 C 11.671875,-8.738281 10.769531,-7.875 9.90625,-7 c -0.867188,0.875 -1.640625,1.683594 -2.328125,2.421875 -0.679687,0.730469 -1.210937,1.335937 -1.59375,1.8125 -0.398437,0.492187 -0.742187,0.929687 -1.03125,1.3125 -0.28125,0.375 -0.421875,0.664063 -0.421875,0.859375 0,0.199219 0.109375,0.296875 0.328125,0.296875 0.21875,0 0.503906,-0.097656 0.859375,-0.296875 0.363281,-0.195312 0.734375,-0.429688 1.109375,-0.703125 0.375,-0.269531 0.679687,-0.492187 0.921875,-0.671875 0.53125,-0.4375 1.082031,-0.898438 1.65625,-1.390625 0.582031,-0.5 1.09375,-0.929687 1.53125,-1.296875 0.08203,-0.050781 0.15625,-0.09375 0.21875,-0.125 0.07031,-0.03125 0.140625,-0.015625 0.203125,0.046875 0.113281,0.117187 0.08203,0.234375 -0.09375,0.359375 -0.304687,0.273438 -0.65625,0.585938 -1.0625,0.9375 -0.40625,0.34375 -0.804687,0.679688 -1.1875,1 -0.386719,0.3125 -0.699219,0.570312 -0.9375,0.765625 -0.523437,0.398437 -1.101563,0.8125 -1.734375,1.25 -0.636719,0.4375 -1.210938,0.65625 -1.71875,0.65625 -0.4375,0 -0.742188,-0.105469 -0.90625,-0.3125 -0.15625,-0.207031 -0.234375,-0.476563 -0.234375,-0.8125 0,-0.476563 0.207031,-1.066406 0.625,-1.765625 -0.21875,0.21875 -0.433594,0.414062 -0.640625,0.578125 -0.210938,0.15625 -0.382812,0.292969 -0.515625,0.40625 -0.5,0.417969 -1.089844,0.839844 -1.765625,1.265625 -0.679688,0.4257812 -1.2695312,0.640625 -1.78125,0.640625 -0.414062,0 -0.703125,-0.09375 -0.859375,-0.28125 -0.164063,-0.1875 -0.25,-0.421875 -0.25,-0.703125 0,-0.550781 0.21875,-1.179688 0.65625,-1.890625 0.4375,-0.71875 1.0273438,-1.476563 1.765625,-2.28125 C 1.15625,-5.378906 1.679688,-5.875 2.296875,-6.40625 2.910156,-6.945312 3.53125,-7.453125 4.15625,-7.921875 4.78125,-8.398438 5.3125,-8.757812 5.75,-9 c 0.238281,-0.15625 0.582031,-0.265625 1.03125,-0.328125 0.445312,-0.0625 0.78125,-0.082031 1,-0.0625 -0.960938,0.78125 -1.90625,1.59375 -2.84375,2.4375 -0.929688,0.84375 -1.75,1.636719 -2.46875,2.375 -0.710938,0.730469 -1.257812,1.335937 -1.640625,1.8125 -0.398437,0.492187 -0.7304688,0.929687 -1,1.3125 -0.28125,0.375 -0.421875,0.664063 -0.421875,0.859375 0,0.199219 0.101562,0.296875 0.296875,0.296875 0.21875,0 0.515625,-0.097656 0.890625,-0.296875 0.375,-0.195312 0.753906,-0.429688 1.140625,-0.703125 C 2.128906,-1.566406 2.457031,-1.8125 2.71875,-2.03125 3.007812,-2.25 3.367188,-2.550781 3.796875,-2.9375 4.222656,-3.320312 4.625,-3.703125 5,-4.078125 c 0.382812,-0.382813 0.664062,-0.664063 0.84375,-0.84375 0.4375,-0.457031 0.960938,-0.972656 1.578125,-1.546875 0.613281,-0.570312 1.226563,-1.113281 1.84375,-1.625 0.613281,-0.519531 1.140625,-0.910156 1.578125,-1.171875 0.164062,-0.101563 0.445312,-0.1875 0.84375,-0.25 0.394531,-0.070313 0.703125,-0.097656 0.921875,-0.078125 z m 0,0"
             id="path41423" />
        </g>
      </g>
    </g>
    <g
       fill="#f9de7f"
       fill-opacity="1"
       id="g41437">
      <g
         transform="translate(242.56671,210.64793)"
         id="g41435">
        <g
           id="g41433">
          <path
             d="m 5.328125,-1.078125 c -0.554687,0.367187 -1.074219,0.679687 -1.5625,0.9375 -0.480469,0.25 -0.902344,0.375 -1.265625,0.375 -0.773438,0 -1.15625,-0.394531 -1.15625,-1.1875 0,-0.675781 0.300781,-1.40625 0.90625,-2.1875 C 2.851562,-3.929688 3.671875,-4.78125 4.703125,-5.6875 5.117188,-6.050781 5.550781,-6.4375 6,-6.84375 6.445312,-7.25 6.828125,-7.609375 7.140625,-7.921875 7.460938,-8.242188 7.613281,-8.460938 7.59375,-8.578125 7.5625,-8.703125 7.488281,-8.785156 7.375,-8.828125 7.269531,-8.878906 7.097656,-8.957031 6.859375,-9.0625 6.578125,-9.21875 6.378906,-9.359375 6.265625,-9.484375 5.921875,-9.097656 5.539062,-8.695312 5.125,-8.28125 4.707031,-7.863281 4.28125,-7.4375 3.84375,-7 3.25,-6.445312 2.601562,-5.847656 1.90625,-5.203125 c -0.699219,0.648437 -1.277344,1.15625 -1.734375,1.53125 -0.0742188,0.0625 -0.1523438,0.105469 -0.234375,0.125 -0.09375,0.023437 -0.160156,0 -0.203125,-0.0625 -0.039063,-0.070313 -0.039063,-0.144531 0,-0.21875 C -0.222656,-3.898438 -0.164062,-3.957031 -0.09375,-4 c 0.519531,-0.46875 1.109375,-0.992188 1.765625,-1.578125 0.65625,-0.59375 1.269531,-1.164063 1.84375,-1.71875 0.539063,-0.5 1.019531,-0.960937 1.4375,-1.390625 0.414063,-0.425781 0.800781,-0.847656 1.15625,-1.265625 0,-0.238281 0.117187,-0.519531 0.359375,-0.84375 0.238281,-0.332031 0.546875,-0.640625 0.921875,-0.921875 0.300781,-0.21875 0.582031,-0.390625 0.84375,-0.515625 0.269531,-0.125 0.492187,-0.195313 0.671875,-0.21875 0.0625,-0.01953 0.171875,-0.03906 0.328125,-0.0625 0.164063,-0.01953 0.328125,-0.03125 0.484375,-0.03125 0.332031,0 0.5,0.04297 0.5,0.125 0,0.07422 -0.140625,0.210937 -0.421875,0.40625 -0.273437,0.199219 -0.574219,0.390625 -0.90625,0.578125 -0.324219,0.179688 -0.5625,0.3125 -0.71875,0.40625 C 7.828125,-10.8125 7.5,-10.59375 7.1875,-10.375 c -0.304688,0.21875 -0.453125,0.417969 -0.453125,0.59375 0,0.085938 0.109375,0.179688 0.328125,0.28125 0.21875,0.09375 0.378906,0.164062 0.484375,0.203125 0.613281,0.199219 0.921875,0.507813 0.921875,0.921875 0,0.4375 -0.167969,0.90625 -0.5,1.40625 C 7.644531,-6.476562 7.253906,-6 6.796875,-5.53125 c -0.460937,0.46875 -0.875,0.882812 -1.25,1.234375 -0.617187,0.5625 -1.152344,1.0625 -1.609375,1.5 -0.460938,0.4375 -0.839844,0.84375 -1.140625,1.21875 -0.355469,0.417969 -0.53125,0.746094 -0.53125,0.984375 0,0.21875 0.128906,0.328125 0.390625,0.328125 0.3125,0 0.734375,-0.15625 1.265625,-0.46875 C 4.460938,-1.054688 4.90625,-1.335938 5.25,-1.578125 5.820312,-1.992188 6.4375,-2.476562 7.09375,-3.03125 c 0.65625,-0.5625 1.203125,-1.019531 1.640625,-1.375 0.0625,-0.0625 0.132813,-0.113281 0.21875,-0.15625 0.09375,-0.039062 0.175781,-0.03125 0.25,0.03125 C 9.285156,-4.445312 9.28125,-4.351562 9.1875,-4.25 9.101562,-4.15625 9.019531,-4.070312 8.9375,-4 8.425781,-3.5625 7.847656,-3.070312 7.203125,-2.53125 6.554688,-2 5.929688,-1.515625 5.328125,-1.078125 Z m 0,0"
             id="path41431" />
        </g>
      </g>
    </g>
  </g>
</svg>
